<?xml version="1.0" standalone="no"?>
<!DOCTYPE svg PUBLIC "-//W3C//DTD SVG 1.1//EN" "http://www.w3.org/Graphics/SVG/1.1/DTD/svg11.dtd" >
<svg xmlns="http://www.w3.org/2000/svg">
<metadata></metadata>
<defs>
<font id="roboto__geo_nusregular" horiz-adv-x="1139" >
<font-face units-per-em="2048" ascent="1536" descent="-512" />
<missing-glyph horiz-adv-x="641" />
<glyph horiz-adv-x="0" />
<glyph unicode="&#x9;" horiz-adv-x="0" />
<glyph unicode=" "  horiz-adv-x="641" />
<glyph unicode="&#x09;" horiz-adv-x="641" />
<glyph unicode="&#xa0;" horiz-adv-x="641" />
<glyph unicode="!" horiz-adv-x="615" d="M172 0v201h196v-201h-196zM172 467v960h196v-960h-196z" />
<glyph unicode="&#x22;" horiz-adv-x="718" d="M124 917v510h194v-265l-99 -245h-95zM425 917v510h195v-265l-99 -245h-96z" />
<glyph unicode="#" horiz-adv-x="1249" d="M69 402v138h258l66 339h-251v140h279l81 408h149l-81 -408h249l81 408h148l-81 -408h195v-140h-220l-67 -339h213v-138h-241l-79 -402h-148l79 402h-251l-79 -402h-149l79 402h-230zM475 540h249l69 339h-251z" />
<glyph unicode="$" horiz-adv-x="1169" d="M128 416l2 3h188q0 -74 20 -127t54.5 -86.5t83 -49.5t104.5 -16q127 0 197 60.5t70 168.5q0 89 -61.5 150t-205.5 111q-199 60 -300.5 159.5t-101.5 265.5q0 163 94 264.5t256 124.5v216h154v-219q165 -23 255.5 -134.5t90.5 -301.5h-191q0 123 -61.5 201.5t-171.5 78.5 q-117 0 -174 -59.5t-57 -166.5q0 -48 13.5 -86t45.5 -69t84 -57t130 -52q201 -67 298.5 -163t97.5 -261q0 -170 -100.5 -267.5t-279.5 -119.5v-189h-154v189q-173 16 -276.5 122.5t-103.5 309.5z" />
<glyph unicode="%" horiz-adv-x="1467" d="M102 1078v74q0 62 21 115.5t59 93.5t92.5 63t123.5 23q67 0 120.5 -22t93 -62t60.5 -94.5t21 -116.5v-74q0 -65 -21 -118t-60.5 -92t-93.5 -61t-118 -22q-67 0 -122.5 22t-94.5 61t-60 92t-21 118zM245 1078q0 -71 38 -122.5t117 -51.5q72 0 110 50.5t38 123.5v74 q0 71 -39.5 124t-110.5 53q-77 0 -115 -53.5t-38 -123.5v-74zM341 172l699 1117l106 -67l-696 -1113zM793 273v76q0 62 21 116t60 94.5t93 62.5t121 22q66 0 120 -23t93.5 -63.5t60.5 -93t21 -115.5v-76q0 -61 -21 -115t-59.5 -93t-92.5 -62t-120 -23q-69 0 -123 23t-93 62 t-60 92.5t-21 115.5zM935 273q0 -70 39 -122.5t116 -52.5q74 0 112.5 52.5t38.5 122.5v76q0 72 -40.5 123.5t-112.5 51.5q-75 0 -114 -52.5t-39 -122.5v-76z" />
<glyph unicode="&#x26;" horiz-adv-x="1249" d="M62 383q0 125 70.5 212t204.5 177q-76 98 -113.5 173.5t-37.5 156.5q0 162 94.5 253.5t265.5 91.5q78 0 142.5 -24.5t110.5 -66.5t71 -97t25 -115q0 -96 -51 -166.5t-153 -142.5l-107 -80l333 -400q40 64 63.5 140.5t23.5 165.5h170q0 -261 -148 -439l182 -218l-2 -4 h-225l-84 100q-161 -121 -369 -120q-107 0 -193 29t-146.5 82t-93.5 127.5t-33 164.5zM255 383q0 -109 69.5 -181t203.5 -72q71 0 139 24t128 68l-353 429l-38 -29q-92 -68 -120.5 -129.5t-28.5 -109.5zM379 1103q0 -51 27 -107.5t80 -122.5l136 92q56 39 75 83t19 96 q0 56 -45 104.5t-125 48.5t-123.5 -56.5t-43.5 -137.5z" />
<glyph unicode="'" horiz-adv-x="435" d="M124 931v496h194v-219l-99 -277h-95z" />
<glyph unicode="(" horiz-adv-x="665" d="M128 570v10q0 191 44.5 358t115 301t155.5 227t169 137l6 -2l39 -111q-67 -52 -128.5 -137t-106.5 -199t-72 -257.5t-27 -314.5v-14q0 -170 27 -313.5t72 -259.5t106.5 -202t128.5 -140l-39 -107h-6q-82 44 -168 138t-156.5 226t-115 299.5t-44.5 360.5z" />
<glyph unicode=")" horiz-adv-x="672" d="M6 -347q65 50 125 134.5t106 200.5t74 261.5t28 318.5v14q0 167 -29 310.5t-76.5 260.5t-106 205t-121.5 139l36 106h6q82 -44 168.5 -137t157 -227t114.5 -301.5t44 -357.5v-10q0 -193 -44 -360.5t-114.5 -299.5t-157 -226t-168.5 -138h-6z" />
<glyph unicode="*" horiz-adv-x="866" d="M86 749l48 151l221 -90v249h149v-254l229 86l46 -152l-237 -67l151 -197l-131 -94l-137 215l-132 -207l-130 90l155 203z" />
<glyph unicode="+" horiz-adv-x="1137" d="M76 592v174h393v416h195v-416h390v-174h-390v-450h-195v450h-393z" />
<glyph unicode="," horiz-adv-x="394" d="M46 -253l71 309v161h192v-171l-146 -299h-117z" />
<glyph unicode="-" horiz-adv-x="904" d="M165 528v150h578v-150h-578z" />
<glyph unicode="." horiz-adv-x="537" d="M159 0v199h192v-199h-192z" />
<glyph unicode="/" horiz-adv-x="832" d="M16 -122l596 1549h163l-595 -1549h-164z" />
<glyph unicode="0" horiz-adv-x="1129" d="M111 504v419q0 121 31.5 218.5t91 164.5t144 104t186.5 37q101 0 186 -37t145.5 -105t92 -164.5t31.5 -217.5v-419q0 -121 -31.5 -217t-91 -164.5t-143 -105.5t-187.5 -37q-103 0 -188 37t-144.5 104.5t-91 164.5t-31.5 218zM303 464q0 -151 68.5 -242.5t194.5 -91.5 q127 0 194 90.5t67 243.5v499q0 151 -69.5 242.5t-193.5 91.5q-127 0 -194 -90.5t-67 -243.5v-499z" />
<glyph unicode="1" horiz-adv-x="969" d="M191 1247v148l506 52v-1447h-195v1247h-311z" />
<glyph unicode="2" horiz-adv-x="1129" d="M134 1032q0 88 31.5 164t88.5 131.5t140 87.5t188 32q94 0 170.5 -28t129.5 -77t82.5 -119.5t29.5 -154.5q0 -56 -15.5 -108.5t-45 -109.5t-78 -123t-114.5 -149l-360 -421l2 -6h651v-151h-887v132l447 534q60 73 100.5 129t63.5 102.5t32 87.5t9 85q0 100 -57.5 163.5 t-159.5 63.5q-65 0 -113 -21.5t-81 -58.5t-49 -86t-16 -105h-187z" />
<glyph unicode="3" horiz-adv-x="1129" d="M119 371l2 4h182q0 -52 20 -96t55.5 -77t84.5 -52.5t109 -19.5q121 0 187 73.5t66 189.5q0 136 -62 202.5t-195 66.5h-158v148h158q131 0 183 64.5t52 180.5q0 109 -58.5 175.5t-172.5 66.5q-54 0 -101.5 -18.5t-82.5 -51t-53.5 -77.5t-18.5 -96h-186l-4 5 q0 81 32.5 151.5t91.5 122.5t140 83t182 31q199 0 312.5 -99t113.5 -296q0 -100 -52.5 -182.5t-148.5 -128.5q220 -88 220 -343q0 -98 -32.5 -176t-91 -132t-141 -82t-180.5 -28q-90 0 -172 27t-144.5 77t-99.5 123.5t-37 163.5z" />
<glyph unicode="4" horiz-adv-x="1129" d="M71 329v108l599 990h205v-948h197v-150h-197v-329h-193v329h-611zM277 479h405v672h-6l-17 -49z" />
<glyph unicode="5" horiz-adv-x="1129" d="M155 369l2 6h174q0 -118 66.5 -181.5t174.5 -63.5q123 0 190 87.5t67 236.5q0 136 -68 219.5t-189 83.5q-112 0 -164.5 -33t-76.5 -106l-160 16l82 793h714v-173h-550l-46 -409q46 34 101.5 56t127.5 22q199 0 310 -124.5t111 -342.5q0 -109 -29 -196.5t-86 -149.5 t-140.5 -96t-193.5 -34q-92 0 -168.5 24t-131.5 73t-86 122.5t-31 169.5z" />
<glyph unicode="6" horiz-adv-x="1129" d="M134 542v327q0 123 37.5 229t103.5 183t156 121.5t197 44.5q84 0 165.5 -17t137.5 -41l-42 -148q-56 24 -116.5 40t-144.5 16q-66 0 -122 -31t-95.5 -85.5t-61.5 -129t-22 -160.5v-110q58 58 139.5 93t177.5 35q90 0 164.5 -33t127 -92.5t80.5 -141.5t28 -182 q0 -107 -31.5 -195.5t-88.5 -151.5t-140 -98t-186 -35q-100 0 -184.5 39t-146.5 112.5t-97.5 177t-35.5 233.5zM327 521q0 -90 21 -162t57.5 -123.5t85.5 -78.5t107 -27q62 0 109.5 25t78.5 69.5t47 104.5t16 131q0 136 -67.5 220t-199.5 84q-92 0 -156 -39t-99 -103v-101z " />
<glyph unicode="7" horiz-adv-x="1129" d="M94 1274v153h948v-153q-138 -165 -228 -302t-141 -266.5t-71 -262t-20 -286.5v-157h-195v157q0 164 30.5 306.5t88.5 276t145.5 264t199.5 270.5h-757z" />
<glyph unicode="8" horiz-adv-x="1129" d="M100 391q0 124 75.5 214t201.5 136q-110 40 -173.5 124.5t-63.5 195.5q0 96 32.5 168.5t89.5 120.5t136 72.5t176 24.5q88 0 164 -24.5t131.5 -72.5t88 -120.5t32.5 -168.5q0 -112 -62.5 -197t-167.5 -125q119 -42 194.5 -133.5t75.5 -214.5q0 -98 -34.5 -174.5 t-95.5 -129.5t-144.5 -80t-179.5 -27q-107 0 -194 27t-149 80t-97.5 129.5t-35.5 174.5zM293 395q0 -60 21 -109t58.5 -83t89.5 -53.5t114 -19.5q54 0 102 19.5t83.5 54.5t55.5 84t20 107t-20 107.5t-56.5 85.5t-84.5 56t-102 20q-60 0 -112 -21t-89.5 -57t-58.5 -85 t-21 -106zM333 1059q0 -110 69 -177.5t174 -67.5q92 0 156.5 67.5t64.5 177.5q0 50 -17.5 94t-47 75.5t-71 50t-87.5 18.5q-107 0 -174 -65.5t-67 -172.5z" />
<glyph unicode="9" horiz-adv-x="1129" d="M90 959q0 107 33.5 196.5t91.5 154.5t137 101t172 36q104 0 191.5 -34t149.5 -99t96.5 -161t34.5 -220v-431q0 -125 -37.5 -221.5t-104.5 -163.5t-159.5 -102t-202.5 -35q-76 0 -154.5 15t-148.5 47l30 147q64 -32 126.5 -45.5t146.5 -13.5q138 0 223.5 96.5t85.5 273.5 v120q-46 -70 -115.5 -105.5t-153.5 -35.5q-209 0 -325.5 128t-116.5 352zM285 959q0 -144 63.5 -236.5t183.5 -92.5q102 0 169 46t100 119v166q0 161 -70 248.5t-201 87.5q-52 0 -97.5 -25t-78.5 -69.5t-51 -106.5t-18 -137z" />
<glyph unicode=":" horiz-adv-x="505" d="M159 0v199h192v-199h-192zM159 859v199h192v-199h-192z" />
<glyph unicode=";" horiz-adv-x="513" d="M96 -253l71 309v161h192v-171l-146 -299h-117zM159 859v199h192v-199h-192z" />
<glyph unicode="&#x3c;" horiz-adv-x="1019" d="M71 475v147l798 372v-199l-548 -227l-82 -18v-6l82 -18l548 -225v-197z" />
<glyph unicode="=" horiz-adv-x="1129" d="M149 400v160h816v-160h-816zM149 807v160h816v-160h-816z" />
<glyph unicode="&#x3e;" horiz-adv-x="1049" d="M132 84v193l586 233l85 18v6l-85 18l-586 231v190l839 -371v-144z" />
<glyph unicode="?" horiz-adv-x="954" d="M60 1100q0 78 29.5 142t82 109t126 70.5t164.5 25.5q195 0 301 -98.5t106 -274.5q0 -126 -69.5 -230.5t-183.5 -215.5q-28 -30 -43 -52t-22 -46t-8 -54t-1 -74h-195q2 74 6.5 119t18 79t43 65.5t81.5 79.5q50 60 84 101t55.5 75.5t30 68t8.5 80.5q0 104 -55 159.5 t-157 55.5q-89 0 -152 -48.5t-63 -142.5h-185zM345 0v205h203v-205h-203z" />
<glyph unicode="@" horiz-adv-x="1795" d="M111 400q0 220 58.5 405t168.5 317t264.5 206.5t343.5 74.5q193 0 334 -65.5t234 -183.5t138.5 -286.5t45.5 -375.5q-4 -102 -33 -194.5t-83 -164t-135.5 -112.5t-192.5 -41q-70 0 -122 40t-77 114q-94 -155 -283 -154q-114 0 -179 97t-65 256q0 140 33 258t89.5 201 t131.5 129t160 46q52 0 92 -5.5t73 -19t65 -32.5t71 -45l-4 -4h6l-50 -574q-2 -12 -2 -23v-21q0 -84 29.5 -114.5t74.5 -30.5q68 0 119 35.5t86.5 97.5t52.5 146.5t17 180.5q0 168 -39 304t-117.5 229t-197 143.5t-276.5 50.5q-157 0 -284.5 -65.5t-217 -182t-137.5 -278 t-48 -353.5q0 -169 42 -304.5t121.5 -231.5t194.5 -147.5t264 -51.5q42 0 87 5.5t88.5 16t82.5 24.5t67 32l37 -107q-35 -19 -78 -35.5t-92.5 -27t-99.5 -17t-96 -6.5q-176 0 -316.5 58.5t-240 166.5t-152.5 265t-53 354zM703 337q0 -213 128 -213q65 0 116 23.5t95 85.5 q-2 6 -2 20q0 10 1 17t3 17l44 527q-52 25 -111 25q-124 0 -187.5 -106.5t-82.5 -324.5q-2 -20 -3 -37.5t-1 -33.5z" />
<glyph unicode="A" horiz-adv-x="1268" d="M42 0l514 1427h166l504 -1427h-196l-126 368h-536l-129 -368h-197zM421 530h428l-209 612h-6z" />
<glyph unicode="B" horiz-adv-x="1275" d="M167 0v1427h465q221 0 348 -95t127 -290q0 -92 -55.5 -165.5t-149.5 -112.5q68 -9 123 -40t95 -79.5t62 -111t22 -129.5q0 -100 -33 -175.5t-95.5 -126t-148.5 -76.5t-194 -26h-566zM360 151h373q132 0 204 65t72 186q0 118 -74 190t-200 76h-375v-517zM360 821h312 q109 0 176 58t67 167q0 114 -72.5 171t-210.5 57h-272v-453z" />
<glyph unicode="C" horiz-adv-x="1270" d="M117 586v253q0 132 40 244t112 192.5t172.5 126t220.5 45.5q123 0 220 -33t164.5 -95.5t103.5 -148.5t36 -193l-2 -6h-184q0 151 -88.5 238.5t-249.5 87.5q-84 0 -149 -36.5t-110 -98.5t-69.5 -145.5t-24.5 -175.5v-255q0 -96 24.5 -178.5t70.5 -144.5t111 -97.5 t147 -35.5q161 0 249.5 86.5t88.5 241.5h184l2 -6q0 -100 -36 -187t-104.5 -150t-165.5 -99t-218 -36q-120 0 -220.5 45.5t-172.5 126.5t-112 191.5t-40 242.5z" />
<glyph unicode="D" horiz-adv-x="1358" d="M167 0v1427h449q139 0 252 -46t194.5 -128.5t127 -194.5t45.5 -248v-194q0 -136 -44.5 -249.5t-125.5 -195t-195.5 -126.5t-253.5 -45h-449zM360 151h256q100 0 179.5 34.5t134 97t83.5 147.5t29 186v196q0 100 -29 185t-84.5 147t-135 96t-177.5 34h-256v-1123z" />
<glyph unicode="E" horiz-adv-x="1107" d="M167 0v1427h869v-153h-676v-462h586v-150h-586v-511h686v-151h-879z" />
<glyph unicode="F" horiz-adv-x="1107" d="M167 0v1427h894v-153h-701v-491h601v-153h-601v-630h-193z" />
<glyph unicode="G" horiz-adv-x="1358" d="M119 566v295q0 127 40 234t113 185t176.5 122.5t227.5 44.5q121 0 216.5 -34t160.5 -94.5t99 -142.5t34 -178l-2 -6h-184q0 64 -22 120t-63.5 97t-101.5 64.5t-137 23.5q-82 0 -148 -33.5t-114 -91.5t-74.5 -137t-26.5 -172v-297q0 -96 28 -175.5t78 -137.5t118.5 -90.5 t150.5 -32.5q126 0 200.5 32.5t111.5 78.5v321h-324v150h517v-519q-25 -40 -69 -78.5t-107 -68.5t-145.5 -48t-183.5 -18q-124 0 -228.5 43.5t-180.5 121t-118 185t-42 236.5z" />
<glyph unicode="H" horiz-adv-x="1412" d="M167 0v1427h193v-644h692v644h195v-1427h-195v630h-692v-630h-193z" />
<glyph unicode="I" horiz-adv-x="567" d="M186 0v1427h193v-1427h-193z" />
<glyph unicode="J" horiz-adv-x="1099" d="M78 387l2 6h185q0 -134 61 -198.5t176 -64.5q104 0 173.5 77.5t69.5 206.5v1013h192v-1013q0 -98 -32 -178.5t-89 -137t-137.5 -87.5t-176.5 -31q-201 0 -312.5 102t-111.5 305z" />
<glyph unicode="K" horiz-adv-x="1275" d="M167 0v1427h193v-632h106l530 632h216l2 -6l-578 -674l618 -743v-4h-235l-533 644h-126v-644h-193z" />
<glyph unicode="L" horiz-adv-x="1103" d="M167 0v1427h193v-1276h695v-151h-888z" />
<glyph unicode="M" horiz-adv-x="1743" d="M167 0v1427h252l456 -1160h4l458 1160h239v-1427h-193v1070h-6l-431 -1070h-136l-444 1105l-6 -2v-1103h-193z" />
<glyph unicode="N" horiz-adv-x="1412" d="M167 0v1427h193l686 -1090l6 2v1088h195v-1427h-195l-686 1090l-6 -2v-1088h-193z" />
<glyph unicode="O" horiz-adv-x="1368" d="M111 586v253q0 128 41 239.5t114 192.5t176.5 128.5t229.5 47.5q129 0 237 -46.5t184.5 -127t119.5 -192.5t43 -242v-253q0 -130 -43 -240.5t-119.5 -191.5t-184.5 -127.5t-237 -46.5q-124 0 -227.5 46.5t-177.5 127.5t-115 191.5t-41 240.5zM303 586q0 -100 27.5 -182.5 t75.5 -141.5t116 -92.5t150 -33.5q90 0 163.5 34.5t123.5 94.5t77 142.5t27 178.5v255q0 96 -27 177.5t-77 141.5t-123.5 94.5t-163.5 34.5q-84 0 -152 -34.5t-116.5 -93.5t-74.5 -141.5t-26 -178.5v-255z" />
<glyph unicode="P" horiz-adv-x="1275" d="M167 0v1427h545q115 0 204 -31t150.5 -87.5t95 -134.5t33.5 -174t-32.5 -174.5t-94 -135t-151.5 -87.5t-205 -31h-352v-572h-193zM360 722h352q73 0 127 21t90 58.5t54.5 87.5t18.5 109q0 56 -18.5 107t-54.5 88t-90 59t-127 22h-352v-552z" />
<glyph unicode="Q" horiz-adv-x="1398" d="M111 586v253q0 128 41 239.5t114 192.5t176.5 128.5t229.5 47.5q129 0 237 -46.5t184.5 -127t119.5 -192.5t43 -242v-253q0 -231 -126 -393l213 -207l-133 -126l-216 209q-140 -89 -322 -89q-124 0 -227.5 46.5t-177.5 127.5t-115 191.5t-41 240.5zM303 586 q0 -100 27.5 -182.5t75.5 -141.5t116 -92.5t150 -33.5q90 0 163.5 34.5t123.5 94.5t77 142.5t27 178.5v255q0 96 -27 177.5t-77 141.5t-123.5 94.5t-163.5 34.5q-84 0 -152 -34.5t-116.5 -93.5t-74.5 -141.5t-26 -178.5v-255z" />
<glyph unicode="R" horiz-adv-x="1275" d="M167 0v1425h488q237 0 359 -102.5t122 -303.5q0 -109 -57.5 -190.5t-167.5 -127.5q119 -40 170 -125.5t51 -211.5v-136q0 -66 15 -118t52 -86v-24h-199q-41 32 -51 96.5t-10 134.5v131q0 114 -67 185t-181 71h-331v-618h-193zM360 770h274q165 0 237.5 62.5t72.5 188.5 q0 121 -70.5 187t-218.5 66h-295v-504z" />
<glyph unicode="S" horiz-adv-x="1225" d="M113 406l2 6h182q0 -71 29 -123t75.5 -87t106.5 -53.5t122 -18.5q136 0 216.5 60.5t80.5 169.5q0 96 -69 162t-246 112q-218 54 -339.5 158.5t-121.5 262.5q0 83 34 154.5t96 124.5t149 83t194 30q113 0 203 -35t153.5 -94.5t97.5 -136t34 -160.5l-2 -6h-185 q0 58 -22 109.5t-62 89.5t-95 60.5t-122 22.5q-138 0 -209.5 -67.5t-71.5 -170.5q0 -96 79.5 -157t255.5 -107q217 -58 329.5 -166t112.5 -267q0 -85 -35 -155.5t-100.5 -120.5t-155.5 -78t-199 -28q-102 0 -195.5 29t-164.5 83.5t-114 133.5t-43 180z" />
<glyph unicode="T" horiz-adv-x="1199" d="M36 1274v153h1128v-153h-469v-1274h-193v1274h-466z" />
<glyph unicode="U" horiz-adv-x="1358" d="M144 479v948h193v-948q0 -168 94.5 -258.5t240.5 -90.5q79 0 144 24t111 69.5t72.5 110t26.5 145.5v948h192v-948q0 -118 -41 -210.5t-113 -156.5t-172.5 -98t-219.5 -34q-114 0 -211 34t-168 98t-110 157t-39 210z" />
<glyph unicode="V" horiz-adv-x="1268" d="M23 1427h208l369 -1052l32 -120h6l32 120l370 1052h209l-533 -1427h-164z" />
<glyph unicode="W" horiz-adv-x="1727" d="M36 1427h209l209 -931l23 -189h7l31 189l253 931h191l253 -931l35 -193h5l27 193l204 931h208l-344 -1427h-173l-285 990l-20 128h-6l-22 -128l-289 -990h-173z" />
<glyph unicode="X" horiz-adv-x="1268" d="M65 0l463 718l-454 709h231l331 -556l333 556h235l-453 -709l461 -718h-228l-344 566l-343 -566h-232z" />
<glyph unicode="Y" horiz-adv-x="1268" d="M40 1427h219l373 -724l372 724h220l-500 -925v-502h-192v515z" />
<glyph unicode="Z" horiz-adv-x="1199" d="M94 0v142l763 1132h-750v153h971v-138l-765 -1138h797v-151h-1016z" />
<glyph unicode="[" horiz-adv-x="540" d="M140 -305v1935h377v-151h-184v-1634h184v-150h-377z" />
<glyph unicode="\" horiz-adv-x="828" d="M38 1427h182l597 -1549h-183z" />
<glyph unicode="]" horiz-adv-x="540" d="M10 -155h187v1634h-187v151h379v-1935h-379v150z" />
<glyph unicode="^" horiz-adv-x="838" d="M60 714l293 713h131l293 -713h-179l-163 412l-16 69h-3l-16 -69l-161 -412h-179z" />
<glyph unicode="_" horiz-adv-x="912" d="M4 0h905v-151h-905v151z" />
<glyph unicode="`" horiz-adv-x="628" d="M80 1481l4 7h225l170 -262h-154z" />
<glyph unicode="a" horiz-adv-x="1103" d="M104 297q0 76 32.5 136.5t91.5 102.5t143.5 64t188.5 22h210v104q0 94 -56.5 147.5t-161.5 53.5q-94 0 -151.5 -47t-57.5 -112l-182 -2l-2 6q0 58 28 114t81 99t127 69t169 26q88 0 161.5 -23t127 -68t82 -112t28.5 -153v-511q0 -56 6 -108.5t23 -104.5h-199 q-10 48 -16.5 84.5t-6.5 74.5q-54 -75 -139 -127t-187 -52q-167 0 -253.5 83.5t-86.5 233.5zM297 293q0 -71 44 -112t130 -41q52 0 100.5 15.5t88 40t68.5 57t42 66.5v173h-216q-58 0 -105 -16t-80.5 -43t-52.5 -63.5t-19 -76.5z" />
<glyph unicode="b" d="M140 0v1530h193v-595q102 144 297 145q98 0 176.5 -42t131 -117.5t80.5 -180t28 -230.5v-20q0 -115 -29 -209.5t-82.5 -161.5t-130 -103t-172.5 -36q-209 0 -313 164l-30 -144h-149zM333 303q38 -79 97.5 -123t153.5 -44q136 0 202.5 97.5t66.5 256.5v20q0 90 -17 166.5 t-51 130.5t-84 85t-119 31q-90 0 -151.5 -43t-97.5 -118v-459z" />
<glyph unicode="c" horiz-adv-x="1049" d="M94 510v40q0 111 31.5 207t90.5 168.5t146.5 113.5t199.5 41q88 0 161.5 -29.5t127 -80.5t82 -120t28.5 -149l-2 -6h-174q0 48 -17 90t-47 74t-70 50t-89 18q-73 0 -125 -30t-85 -81.5t-48 -119.5t-15 -146v-40q0 -79 15 -148t48 -120t85 -81.5t125 -30.5q44 0 84 16.5 t71.5 44.5t49.5 65t18 79h174l2 -6q0 -68 -32 -131.5t-86 -111.5t-127.5 -77t-153.5 -29q-115 0 -202 41t-146 113.5t-89.5 169t-30.5 206.5z" />
<glyph unicode="d" d="M96 490v20q0 126 28.5 231.5t80.5 181t129.5 116.5t177.5 41q186 0 287 -134v584h195v-1530h-149l-31 134q-101 -154 -301 -154h-3q-98 0 -174.5 37t-129.5 104.5t-81.5 161.5t-28.5 207zM289 490q0 -157 64 -255.5t205 -98.5q86 0 145 39.5t96 109.5v496 q-37 65 -96 103.5t-143 38.5q-71 0 -122 -31t-84 -85t-49 -130.5t-16 -166.5v-20z" />
<glyph unicode="e" horiz-adv-x="1049" d="M94 510v42q0 114 36.5 210.5t97.5 167t143.5 110.5t176.5 40q109 0 189 -35.5t132 -99.5t78 -152t26 -197v-102h-678l-2 -4q0 -80 17 -146.5t52.5 -114t89.5 -73.5t128 -26q98 0 171.5 27t125.5 78l77 -124q-58 -56 -150 -93.5t-224 -37.5q-118 0 -208.5 39t-151.5 109.5 t-93.5 167.5t-32.5 214zM301 651l2 -5h478v16q0 56 -13 104t-42 84.5t-73.5 56.5t-104.5 20q-100 0 -165 -78.5t-82 -197.5z" />
<glyph unicode="f" horiz-adv-x="659" d="M54 917v142h166v136q0 170 89 262t247 92q34 0 68.5 -4.5t74.5 -14.5l-25 -149q-36 10 -94 10q-166 0 -166 -196v-136h192v-142h-192v-917h-194v917h-166z" />
<glyph unicode="g" d="M107 490v20q0 126 28 231.5t81 181t129 116.5t174 41q102 0 179 -41t129 -118l22 138h155v-1065q0 -205 -118 -313t-342 -108q-75 0 -165 19t-159 59l31 148q56 -28 135.5 -46t155.5 -18q140 0 204 63.5t64 195.5v121q-106 -135 -293 -135q-96 0 -172 36t-129 103 t-81 161.5t-28 209.5zM299 490q0 -157 64 -255.5t205 -98.5q89 0 145.5 39.5t96.5 113.5v488q-38 69 -96.5 107.5t-143.5 38.5q-70 0 -121 -31t-84.5 -85t-49.5 -130.5t-16 -166.5v-20z" />
<glyph unicode="h" d="M140 0v1530h193v-611q56 77 135.5 119t175.5 42q170 0 265 -101.5t95 -314.5v-664h-194v666q0 257 -224 257q-86 0 -149.5 -33t-103.5 -95v-795h-193z" />
<glyph unicode="i" horiz-adv-x="505" d="M157 0v1059h192v-1059h-192zM157 1333v197h192v-197h-192z" />
<glyph unicode="j" horiz-adv-x="519" d="M-65 -412l15 153q14 -4 39 -7.5t41 -3.5q65 0 102 43t37 141v1145h195v-1145q0 -165 -84.5 -253t-235.5 -88q-30 0 -55 4t-54 11zM165 1337v193h193v-193h-193z" />
<glyph unicode="k" horiz-adv-x="1029" d="M140 0v1530h195v-888h96l320 417h230l-385 -487l417 -572h-226l-354 490h-98v-490h-195z" />
<glyph unicode="l" horiz-adv-x="505" d="M157 0v1530h192v-1530h-192z" />
<glyph unicode="m" horiz-adv-x="1753" d="M140 0v1059h173l14 -138q52 77 130.5 118t186.5 41q107 0 182.5 -49.5t112.5 -147.5q52 92 133.5 144.5t191.5 52.5q163 0 256.5 -110.5t93.5 -335.5v-634h-193v636q0 161 -55.5 224t-159.5 63q-100 0 -160 -68t-73 -175v-680h-192v636q0 151 -55.5 219t-159.5 68 q-90 0 -146 -36t-87 -102v-785h-193z" />
<glyph unicode="n" d="M140 0v1059h173l14 -155q52 84 131.5 130t181.5 46q172 0 267 -99.5t95 -312.5v-668h-195v666q0 141 -54 199t-169 58q-90 0 -152.5 -36t-98.5 -100v-787h-193z" />
<glyph unicode="o" d="M94 517v23q0 117 33.5 215t94.5 170.5t148.5 113.5t197.5 41q109 0 197 -40t150 -111.5t96.5 -170.5t34.5 -218v-23q0 -116 -32.5 -214t-94.5 -170.5t-150.5 -112.5t-198.5 -40q-112 0 -199.5 40t-149.5 112.5t-94.5 171t-32.5 213.5zM289 517q0 -84 18 -155t53 -122 t87.5 -80.5t122.5 -29.5q69 0 122 29.5t87.5 80.5t53 122t18.5 155v23q0 82 -18.5 152t-53 122.5t-88 82.5t-123.5 30t-122.5 -29t-86.5 -81.5t-52 -123.5t-18 -153v-23z" />
<glyph unicode="p" d="M140 -408v1467h149l30 -136q104 157 309 157q98 0 175.5 -42t131 -117.5t81.5 -180t28 -230.5v-20q0 -115 -28 -208t-81.5 -160.5t-131 -104.5t-173.5 -37q-191 0 -297 131v-519h-193zM333 269q36 -65 95.5 -102t143.5 -37q138 0 208.5 100.5t70.5 259.5v20 q0 86 -17 161.5t-52 131.5t-88.5 88t-123.5 32q-84 0 -142.5 -38t-94.5 -102v-514z" />
<glyph unicode="q" d="M96 490v20q0 126 28.5 231.5t80.5 181t129.5 116.5t177.5 41q96 0 169.5 -36.5t125.5 -106.5l28 122h146v-1467h-192v508q-101 -120 -276 -120h-3q-98 0 -174.5 37t-129.5 104.5t-81.5 161.5t-28.5 207zM289 490q0 -78 16 -144.5t49 -114t83.5 -74.5t120.5 -27 q80 0 136.5 35.5t94.5 99.5v534q-38 59 -94.5 93.5t-134.5 34.5q-71 0 -122 -32t-84 -87t-49 -131.5t-16 -166.5v-20z" />
<glyph unicode="r" horiz-adv-x="701" d="M140 0v1059h173l18 -153q46 84 111.5 129t151.5 45q22 0 42.5 -3t31.5 -7l-26 -181l-98 6q-77 0 -129.5 -36t-81.5 -102v-757h-193z" />
<glyph unicode="s" horiz-adv-x="1049" d="M107 323l2 6h184q2 -52 22 -90t54.5 -62t77.5 -35.5t91 -11.5q102 0 160.5 43.5t58.5 111.5q0 65 -49 104.5t-184 70.5q-189 40 -288.5 112t-99.5 194q0 62 29.5 120t81.5 101t124.5 68t160.5 25q90 0 163 -26t126.5 -70.5t81.5 -104.5t28 -126l-2 -4h-184q0 32 -16.5 64 t-44 58t-67 41t-85.5 15q-102 0 -152.5 -45t-50.5 -110q0 -30 8 -52.5t32 -41.5t68.5 -35.5t114.5 -30.5q197 -40 297.5 -116.5t100.5 -196.5q0 -71 -30.5 -129.5t-84.5 -101t-130.5 -65.5t-166.5 -23q-104 0 -184.5 28t-135.5 75t-83 109.5t-28 130.5z" />
<glyph unicode="t" horiz-adv-x="676" d="M46 917v142h169v257h195v-257h201v-142h-201v-644q0 -74 29.5 -104.5t81.5 -30.5q39 0 71 15l28 -133q-22 -18 -64 -29t-85 -11q-118 0 -187 70.5t-69 222.5v644h-169z" />
<glyph unicode="u" d="M136 435v624h193v-626q0 -84 12 -141t38.5 -92t64.5 -49.5t92 -14.5q102 0 169 41.5t102 117.5v764h193v-1059h-173l-15 157q-50 -86 -128 -131.5t-180 -45.5q-173 0 -270.5 110.5t-97.5 344.5z" />
<glyph unicode="v" horiz-adv-x="1009" d="M44 1059h199l251 -746l16 -74h5l21 74l243 746h196l-389 -1059h-146z" />
<glyph unicode="w" horiz-adv-x="1519" d="M44 1059h201l167 -674l23 -134h7l25 134l211 674h157l211 -674l28 -150h6l32 150l156 674h201l-307 -1059h-157l-208 646l-40 168h-6l-39 -168l-204 -646h-157z" />
<glyph unicode="x" horiz-adv-x="1009" d="M44 0l356 536l-346 523h223l223 -391l224 391h228l-346 -523l355 -536h-222l-235 402l-235 -402h-225z" />
<glyph unicode="y" horiz-adv-x="1009" d="M26 1059h215l223 -666l36 -134h4l260 800h215l-445 -1222q-18 -52 -46 -99t-66.5 -84t-89.5 -59t-115 -22q-23 0 -60.5 5t-56.5 8l21 153h-2q2 0 16 -1t28.5 -1t28 -1t15.5 -1q32 0 57 16t45 41.5t36.5 57t27.5 62.5l46 111z" />
<glyph unicode="z" horiz-adv-x="1009" d="M92 0v134l574 773h-568v152h804v-130l-579 -778h612v-151h-843z" />
<glyph unicode="{" horiz-adv-x="682" d="M62 532v144q104 0 154.5 59.5t50.5 171.5v203q0 169 80 285t271 170l41 -114q-109 -34 -154 -122t-45 -219v-203q0 -101 -41.5 -179.5t-125.5 -123.5q84 -46 125.5 -124t41.5 -181v-201q0 -130 45 -217.5t154 -121.5l-41 -117q-191 54 -271 171.5t-80 284.5v201 q0 111 -50 172t-155 61z" />
<glyph unicode="|" horiz-adv-x="496" d="M142 -265v1692h193v-1692h-193z" />
<glyph unicode="}" horiz-adv-x="682" d="M20 -241q108 34 153.5 121.5t45.5 217.5v201q0 107 44 185t137 120q-92 40 -136.5 117.5t-44.5 185.5v203q0 131 -45.5 219t-153.5 122l40 114q189 -54 271.5 -171t82.5 -284v-203q0 -112 48 -171.5t156 -59.5v-144q-108 0 -156 -61t-48 -172v-201q0 -165 -81.5 -283 t-272.5 -173z" />
<glyph unicode="~" horiz-adv-x="1362" d="M124 464q0 66 22.5 124t61.5 102.5t93 70.5t120 26q85 0 159.5 -33.5t158.5 -102.5q58 -50 103 -72.5t100 -22.5q32 0 61 15t50 41t34 60.5t13 70.5l139 -19q0 -66 -23 -126t-62.5 -105t-94.5 -72.5t-117 -27.5q-90 0 -161.5 32.5t-154.5 104.5q-58 46 -106.5 70 t-98.5 24q-32 0 -61 -14t-50 -38t-34 -56t-13 -68z" />
<glyph unicode="&#xa1;" horiz-adv-x="496" d="M140 -368v960h195v-960h-195zM140 859v200h195v-200h-195z" />
<glyph unicode="&#xa2;" horiz-adv-x="1099" d="M94 510v40q0 98 25 185.5t73.5 156.5t117.5 116t157 64v221h195v-223q137 -30 219 -130.5t82 -238.5l-2 -6h-176q0 48 -17 90t-47 74t-70 50t-89 18q-73 0 -125 -30t-85 -81.5t-48 -119.5t-15 -146v-40q0 -79 15 -148t48 -120t85 -81.5t125 -30.5q44 0 84 16.5t71.5 44.5 t49.5 65t18 79h176v-4q0 -56 -22 -110t-62 -100.5t-95.5 -80.5t-119.5 -48v-233h-195v229q-90 14 -159 60t-117.5 115.5t-72.5 158t-24 188.5z" />
<glyph unicode="&#xa3;" horiz-adv-x="1169" d="M69 602v153h153l-9 264q0 98 28.5 178t82 136t129 85t165.5 29q197 0 302.5 -101t105.5 -272l-3 -6h-186q0 115 -61.5 172t-157.5 57q-98 0 -154 -73t-56 -205l9 -264h410v-153h-406l6 -144q0 -90 -14.5 -169.5t-43.5 -137.5h719v-151h-958v151h10q25 8 43 38.5t29.5 74 t17 95t5.5 99.5l-7 144h-159z" />
<glyph unicode="&#xa4;" horiz-adv-x="1613" d="M124 0v126h305q-64 35 -118 85t-94.5 113t-63.5 137.5t-23 158.5v237q0 116 30.5 209.5t85.5 162t133.5 106.5t174.5 44v104h181v-102h148v102h180v-106q90 -12 162.5 -53t124 -108.5t79.5 -158t28 -200.5v-289h-193v329q0 130 -52 216.5t-149 108.5v-496h-180v504h-148 v-504h-181v502q-113 -12 -172 -100t-59 -231v-317q0 -90 46.5 -172.5t120.5 -144.5t166.5 -99.5t186.5 -37.5h411v-126h-1130z" />
<glyph unicode="&#xa5;" horiz-adv-x="1218" d="M30 1427h221l351 -650l354 650h218l-410 -705h308v-120h-375v-162h375v-121h-375v-319h-195v319h-368v121h368v162h-368v120h306z" />
<glyph unicode="&#xa6;" horiz-adv-x="489" d="M142 -265v777h193v-777h-193zM142 684v743h193v-743h-193z" />
<glyph unicode="&#xa7;" horiz-adv-x="1233" d="M92 -69l2 7l185 2q0 -72 26 -124.5t71 -85.5t102.5 -48t121.5 -15q136 0 212.5 58t76.5 149q0 44 -16 77t-55 61t-105.5 54t-164.5 56q-119 33 -204 67.5t-141 83t-83.5 114t-27.5 153.5q0 90 46 158t131 109q-67 50 -100 117.5t-33 163.5q0 82 34.5 148t97.5 113 t152.5 72.5t197.5 25.5q234 0 357 -109.5t123 -305.5l-4 -6h-183q0 56 -20 105t-58 86t-92.5 58.5t-122.5 21.5q-142 0 -215.5 -59.5t-73.5 -147.5q0 -48 13 -83.5t50 -62.5t103.5 -51t172.5 -54q117 -34 203 -70t143.5 -84.5t84.5 -112.5t27 -151q0 -92 -47 -159t-133 -107 q68 -52 102 -118.5t34 -162.5q0 -85 -34.5 -151t-96.5 -112t-151.5 -71.5t-199.5 -25.5q-104 0 -196.5 24.5t-162 74.5t-109.5 129.5t-40 188.5zM285 542q0 -50 14 -85.5t51 -63t103 -52.5t171 -56q56 -15 91.5 -26.5t69.5 -23.5q71 20 109.5 68t38.5 116q0 45 -15.5 79 t-56 63t-107 56t-164.5 57q-46 12 -86 24t-77 28q-70 -17 -106 -66t-36 -118z" />
<glyph unicode="&#xa8;" horiz-adv-x="1000" d="M167 1230v197h214v-197h-214zM626 1230v197h215v-197h-215z" />
<glyph unicode="&#xa9;" horiz-adv-x="1570" d="M86 714q0 153 54.5 286.5t149.5 233t221.5 156.5t271.5 57q142 0 268.5 -57t221 -155.5t149.5 -233t55 -287.5q0 -152 -55 -286.5t-149.5 -234t-221 -156.5t-268.5 -57q-144 0 -272 57t-222 156.5t-148.5 234t-54.5 286.5zM205 714q0 -128 45 -240t123.5 -195.5 t183.5 -132t226 -48.5q119 0 223 48.5t182 132t124 195.5t46 240q0 127 -45 239t-123 194.5t-183 131t-224 48.5q-121 0 -226 -48.5t-183.5 -131t-123.5 -194.5t-45 -239zM427 657v115q0 85 24 155.5t69.5 119.5t108 77t139.5 28q157 0 240.5 -78t83.5 -223l-2 -6h-142 q0 94 -44.5 136t-135.5 42q-94 0 -143 -70t-49 -181v-115q0 -117 50 -185t142 -68q90 0 134 42t44 138h142l2 -6q0 -149 -82.5 -225t-239.5 -76q-80 0 -143 28t-107.5 77t-67.5 119.5t-23 155.5z" />
<glyph unicode="&#xaa;" horiz-adv-x="898" d="M119 902q0 108 82 167t241 59h136v50q0 128 -116 128q-65 0 -101 -27t-36 -73l-158 12l-2 6q0 98 80 160.5t217 62.5q132 0 208.5 -69.5t76.5 -201.5v-307q0 -50 5 -92t18 -84h-170q-8 19 -12 42.5t-8 49.5q-32 -46 -87.5 -76.5t-130.5 -30.5q-117 0 -180 59.5t-63 164.5 zM287 906q0 -92 117 -92q24 0 51 8.5t51 21.5t43 30t29 33v108h-136q-74 0 -114.5 -31.5t-40.5 -77.5z" />
<glyph unicode="&#xab;" horiz-adv-x="946" d="M97 496v18l288 381h145l-249 -389l249 -391h-145zM425 496v18l288 381h145l-249 -389l249 -391h-145z" />
<glyph unicode="&#xac;" horiz-adv-x="1113" d="M124 624v163h820v-419h-195v256h-625z" />
<glyph unicode="&#xad;" horiz-adv-x="904" d="M165 528v150h578v-150h-578z" />
<glyph unicode="&#xae;" horiz-adv-x="1570" d="M86 714q0 153 54.5 286.5t149.5 233t221.5 156.5t271.5 57q142 0 268.5 -57t221 -155.5t149.5 -233t55 -287.5q0 -152 -55 -286.5t-149.5 -234t-221 -156.5t-268.5 -57q-144 0 -272 57t-222 156.5t-148.5 234t-54.5 286.5zM205 714q0 -130 45 -242t123.5 -194.5 t183.5 -131t226 -48.5q119 0 223 48.5t182 132t124 195.5t46 240q0 129 -46 240t-124 193.5t-182 131t-223 48.5q-121 0 -226 -48.5t-183.5 -131t-123.5 -193.5t-45 -240zM494 309v833h274q151 0 235.5 -63.5t84.5 -187.5q0 -121 -127 -182q123 -52 123 -205v-54 q0 -86 16 -125v-16h-150q-10 22 -11.5 61.5t-1.5 81.5v52q0 70 -33 103t-109 33h-155v-331h-146zM640 768h149q65 0 109 30.5t44 86.5q0 72 -38.5 101t-135.5 29h-128v-247z" />
<glyph unicode="&#xaf;" horiz-adv-x="931" d="M121 1285v142h706v-142h-706z" />
<glyph unicode="&#xb0;" horiz-adv-x="747" d="M124 1193q0 50 21.5 96t55.5 81t80 56t96 21t95 -21t78.5 -56t53.5 -81t20 -96q0 -52 -19 -98.5t-52.5 -81t-78.5 -54.5t-97 -20t-98 20t-80 54.5t-54.5 81t-20.5 98.5zM253 1193q0 -54 36 -89.5t88 -35.5t86.5 35t34.5 90q0 50 -34.5 88t-86.5 38t-88 -37t-36 -89z" />
<glyph unicode="&#xb1;" horiz-adv-x="1075" d="M96 688v151h373v404h175v-404h352v-151h-352v-405h-175v405h-373zM132 4v153h820v-153h-820z" />
<glyph unicode="&#xb2;" horiz-adv-x="850" d="M117 1214q0 100 79 167.5t218 67.5q132 0 206.5 -62t74.5 -177q0 -40 -9.5 -70t-32.5 -62t-62 -69.5t-97 -89.5l-151 -132l2 -6h356v-126h-580v126l295 257q36 30 58 54t32.5 43t15 37t4.5 40q0 48 -27.5 78.5t-84.5 30.5q-65 0 -101 -31.5t-36 -79.5h-158z" />
<glyph unicode="&#xb3;" horiz-adv-x="858" d="M111 865v6h159q0 -46 36.5 -74.5t99.5 -28.5q70 0 111 29.5t41 77.5q0 117 -142 117h-129v122h129q64 0 96 28t32 78q0 42 -35.5 71.5t-102.5 29.5q-54 0 -88.5 -23.5t-34.5 -62.5h-159l-2 6q0 92 80.5 150t203.5 58q142 0 224 -58t82 -167q0 -54 -34 -98t-96 -71 q69 -22 105.5 -69t36.5 -113q0 -111 -87 -171t-231 -60q-127 0 -211 55.5t-84 167.5z" />
<glyph unicode="&#xb4;" horiz-adv-x="639" d="M128 1226l181 262h227l2 -7l-265 -255h-145z" />
<glyph unicode="&#xb5;" d="M151 -408v1467h190v-628q2 -90 16 -148.5t41 -92t65.5 -47t86.5 -13.5q96 0 155 35.5t92 103.5v790h193v-1059h-173l-10 107q-87 -127 -249 -127q-142 0 -217 66v-454h-190z" />
<glyph unicode="&#xb6;" horiz-adv-x="984" d="M62 967q0 100 32 185t94.5 145.5t151.5 95t204 34.5h275v-1427h-193v510h-82q-115 0 -205 34t-151.5 94.5t-93.5 144.5t-32 184z" />
<glyph unicode="&#xb7;" horiz-adv-x="529" d="M159 612v207h192v-207h-192z" />
<glyph unicode="&#xb8;" horiz-adv-x="498" d="M117 -319q70 0 113 24.5t43 72.5q0 46 -35 65t-119 25l30 132h138l-12 -50q65 -12 105.5 -52t40.5 -118q0 -95 -76 -150t-221 -55z" />
<glyph unicode="&#xb9;" horiz-adv-x="545" d="M92 1295v130l295 22v-794h-170v642h-125z" />
<glyph unicode="&#xba;" horiz-adv-x="914" d="M119 1004v116q0 75 24 134.5t69 103t106 66.5t138 23q74 0 137.5 -24.5t107.5 -67.5t69 -102.5t25 -132.5v-116q0 -71 -23 -131.5t-67 -103.5t-106.5 -68t-140.5 -25q-79 0 -142 24t-106 67t-67 103.5t-24 133.5zM287 1004q0 -87 43 -138.5t128 -51.5q82 0 125 52.5 t43 137.5v116q0 82 -43 134t-127 52q-85 0 -127 -52t-42 -134v-116z" />
<glyph unicode="&#xbb;" horiz-adv-x="946" d="M115 167l227 373l-227 371h145l273 -349h4l5 -14v-18l-5 -13h-4l-273 -350h-145zM454 167l227 373l-227 371h145l273 -349h4l5 -14v-18l-5 -13h-4l-273 -350h-145z" />
<glyph unicode="&#xbc;" horiz-adv-x="1563" d="M178 1293v130l295 23v-795h-170v642h-125zM333 180l697 1117l106 -67l-696 -1113zM768 249l416 536h168v-508h125v-128h-125v-149h-166v149h-410zM947 277h239v303l-6 2l-12 -22z" />
<glyph unicode="&#xbd;" horiz-adv-x="1673" d="M178 1293v130l295 23v-795h-170v642h-125zM345 180l697 1117l106 -67l-696 -1113zM912 562q0 98 78 165.5t219 67.5q132 0 206.5 -62.5t74.5 -176.5q0 -41 -9.5 -70.5t-32.5 -61t-62 -68.5t-97 -91l-151 -133l2 -6h356v-126h-580v126l295 257q68 60 89 96t21 79 q0 50 -27.5 80t-84.5 30q-65 0 -101 -31t-36 -81h-158z" />
<glyph unicode="&#xbe;" horiz-adv-x="1745" d="M127 866v6h159q0 -45 36.5 -72.5t99.5 -27.5q70 0 111 28.5t41 74.5q0 62 -36 89.5t-106 27.5h-129v125h129q64 0 96 27.5t32 78.5q0 43 -35.5 71.5t-102.5 28.5q-54 0 -88.5 -24t-34.5 -62h-159l-2 4q0 96 80.5 152.5t203.5 56.5q142 0 224 -57.5t82 -165.5 q0 -54 -34 -98.5t-96 -69.5q69 -23 105.5 -70t36.5 -115q0 -109 -87 -169t-231 -60q-127 0 -211 55t-84 166zM512 180l697 1117l106 -67l-696 -1113zM953 249l416 536h168v-508h125v-128h-125v-149h-166v149h-410zM1132 277h239v303l-6 2l-12 -22z" />
<glyph unicode="&#xbf;" horiz-adv-x="992" d="M113 -12q0 127 68 230t183 213q26 27 41.5 49t22.5 46t9.5 55t2.5 78h192q-2 -73 -6 -118t-18 -79.5t-43 -66t-81 -77.5q-50 -58 -84 -101t-55.5 -78t-30.5 -69t-9 -78q0 -104 54.5 -159t157.5 -55q89 0 152.5 48t63.5 142h184l2 -6q0 -79 -29 -143t-82 -109t-127.5 -70 t-163.5 -25q-193 0 -298.5 95t-105.5 278zM431 857v204h203v-204h-203z" />
<glyph unicode="&#xc0;" horiz-adv-x="1268" d="M42 0l514 1427h166l504 -1427h-196l-126 368h-536l-129 -368h-197zM317 1822l4 7h225l170 -262h-154zM421 530h428l-209 612h-6z" />
<glyph unicode="&#xc1;" horiz-adv-x="1268" d="M42 0l514 1427h166l504 -1427h-196l-126 368h-536l-129 -368h-197zM421 530h428l-209 612h-6zM545 1563l181 262h227l2 -7l-265 -255h-145z" />
<glyph unicode="&#xc2;" horiz-adv-x="1268" d="M42 0l514 1427h166l504 -1427h-196l-126 368h-536l-129 -368h-197zM334 1567v26l243 234h116l242 -234v-26h-156l-145 147l-142 -147h-158zM421 530h428l-209 612h-6z" />
<glyph unicode="&#xc3;" horiz-adv-x="1268" d="M42 0l514 1427h166l504 -1427h-196l-126 368h-536l-129 -368h-197zM295 1595q0 45 15.5 86t42.5 72t65 49t82 18q25 0 61.5 -14t76 -32t75.5 -32t59 -14q40 0 69 32t29 79l105 -33q0 -46 -14.5 -85t-42 -69t-65 -47t-81.5 -17q-35 0 -72 13.5t-73.5 30.5t-69 31.5 t-57.5 14.5q-42 0 -70 -31.5t-28 -77.5zM421 530h428l-209 612h-6z" />
<glyph unicode="&#xc4;" horiz-adv-x="1268" d="M42 0l514 1427h166l504 -1427h-196l-126 368h-536l-129 -368h-197zM297 1571v197h214v-197h-214zM421 530h428l-209 612h-6zM756 1571v197h215v-197h-215z" />
<glyph unicode="&#xc5;" horiz-adv-x="1268" d="M42 0l514 1427h166l504 -1427h-196l-126 368h-536l-129 -368h-197zM421 530h428l-209 612h-6zM462 1700q0 74 52 119t120 45q69 0 119 -47.5t50 -116.5q0 -71 -49 -116t-120 -45q-72 0 -122 42t-50 119zM558 1700q0 -31 22 -52t54 -21q29 0 50 20t21 53q0 32 -21 52.5 t-50 20.5q-32 0 -54 -20.5t-22 -52.5z" />
<glyph unicode="&#xc6;" horiz-adv-x="1958" d="M14 0l863 1427h948v-153h-657v-455h578v-153h-551v-515h690v-151h-891v343h-546l-197 -343h-237zM548 517h409v699h37z" />
<glyph unicode="&#xc7;" horiz-adv-x="1270" d="M117 586v253q0 132 40 244t112 192.5t172.5 126t220.5 45.5q123 0 220 -33t164.5 -95.5t103.5 -148.5t36 -193l-2 -6h-184q0 151 -88.5 238.5t-249.5 87.5q-84 0 -149 -36.5t-110 -98.5t-69.5 -145.5t-24.5 -175.5v-255q0 -96 24.5 -178.5t70.5 -144.5t111 -97.5 t147 -35.5q161 0 249.5 86.5t88.5 241.5h184l2 -6q0 -100 -36 -187t-104.5 -150t-165.5 -99t-218 -36q-120 0 -220.5 45.5t-172.5 126.5t-112 191.5t-40 242.5zM571 -327q70 0 113 24.5t43 72.5q0 46 -35 65t-119 25l30 132h138l-12 -50q65 -12 105.5 -52t40.5 -118 q0 -95 -76 -150t-221 -55z" />
<glyph unicode="&#xc8;" horiz-adv-x="1107" d="M167 0v1427h869v-153h-676v-462h586v-150h-586v-511h686v-151h-879zM289 1822l4 7h225l170 -262h-154z" />
<glyph unicode="&#xc9;" horiz-adv-x="1107" d="M167 0v1427h869v-153h-676v-462h586v-150h-586v-511h686v-151h-879zM517 1563l181 262h227l2 -7l-265 -255h-145z" />
<glyph unicode="&#xca;" horiz-adv-x="1107" d="M167 0v1427h869v-153h-676v-462h586v-150h-586v-511h686v-151h-879zM305 1567v26l243 234h116l242 -234v-26h-156l-145 147l-142 -147h-158z" />
<glyph unicode="&#xcb;" horiz-adv-x="1107" d="M167 0v1427h869v-153h-676v-462h586v-150h-586v-511h686v-151h-879zM269 1571v197h214v-197h-214zM728 1571v197h215v-197h-215z" />
<glyph unicode="&#xcc;" horiz-adv-x="567" d="M-35 1822l4 7h225l170 -262h-154zM186 0v1427h193v-1427h-193z" />
<glyph unicode="&#xcd;" horiz-adv-x="567" d="M186 0v1427h193v-1427h-193zM195 1563l181 262h227l2 -7l-265 -255h-145z" />
<glyph unicode="&#xce;" horiz-adv-x="567" d="M-15 1567v26l243 234h116l242 -234v-26h-156l-145 147l-142 -147h-158zM186 0v1427h193v-1427h-193z" />
<glyph unicode="&#xcf;" horiz-adv-x="567" d="M-52 1571v197h214v-197h-214zM186 0v1427h193v-1427h-193zM407 1571v197h215v-197h-215z" />
<glyph unicode="&#xd0;" horiz-adv-x="1358" d="M2 651v150h165v626h449q139 0 252 -46t194.5 -128.5t127 -194.5t45.5 -248v-194q0 -136 -44.5 -249.5t-125.5 -195t-195.5 -126.5t-253.5 -45h-449v651h-165zM360 151h256q100 0 179.5 34.5t134 97t83.5 147.5t29 186v196q0 100 -29 185t-84.5 147t-135 96t-177.5 34 h-256v-473h270v-150h-270v-500z" />
<glyph unicode="&#xd1;" horiz-adv-x="1412" d="M167 0v1427h193l686 -1090l6 2v1088h195v-1427h-195l-686 1090l-6 -2v-1088h-193zM365 1595q0 45 15.5 86t42.5 72t65 49t82 18q25 0 61.5 -14t76 -32t75.5 -32t59 -14q40 0 69 32t29 79l105 -33q0 -46 -14.5 -85t-42 -69t-65 -47t-81.5 -17q-35 0 -72 13.5t-73.5 30.5 t-69 31.5t-57.5 14.5q-42 0 -70 -31.5t-28 -77.5z" />
<glyph unicode="&#xd2;" horiz-adv-x="1368" d="M111 586v253q0 128 41 239.5t114 192.5t176.5 128.5t229.5 47.5q129 0 237 -46.5t184.5 -127t119.5 -192.5t43 -242v-253q0 -130 -43 -240.5t-119.5 -191.5t-184.5 -127.5t-237 -46.5q-124 0 -227.5 46.5t-177.5 127.5t-115 191.5t-41 240.5zM303 586q0 -100 27.5 -182.5 t75.5 -141.5t116 -92.5t150 -33.5q90 0 163.5 34.5t123.5 94.5t77 142.5t27 178.5v255q0 96 -27 177.5t-77 141.5t-123.5 94.5t-163.5 34.5q-84 0 -152 -34.5t-116.5 -93.5t-74.5 -141.5t-26 -178.5v-255zM365 1845l4 7h225l170 -262h-154z" />
<glyph unicode="&#xd3;" horiz-adv-x="1368" d="M111 586v253q0 128 41 239.5t114 192.5t176.5 128.5t229.5 47.5q129 0 237 -46.5t184.5 -127t119.5 -192.5t43 -242v-253q0 -130 -43 -240.5t-119.5 -191.5t-184.5 -127.5t-237 -46.5q-124 0 -227.5 46.5t-177.5 127.5t-115 191.5t-41 240.5zM303 586q0 -100 27.5 -182.5 t75.5 -141.5t116 -92.5t150 -33.5q90 0 163.5 34.5t123.5 94.5t77 142.5t27 178.5v255q0 96 -27 177.5t-77 141.5t-123.5 94.5t-163.5 34.5q-84 0 -152 -34.5t-116.5 -93.5t-74.5 -141.5t-26 -178.5v-255zM595 1586l181 262h227l2 -7l-265 -255h-145z" />
<glyph unicode="&#xd4;" horiz-adv-x="1368" d="M111 586v253q0 128 41 239.5t114 192.5t176.5 128.5t229.5 47.5q129 0 237 -46.5t184.5 -127t119.5 -192.5t43 -242v-253q0 -130 -43 -240.5t-119.5 -191.5t-184.5 -127.5t-237 -46.5q-124 0 -227.5 46.5t-177.5 127.5t-115 191.5t-41 240.5zM303 586q0 -100 27.5 -182.5 t75.5 -141.5t116 -92.5t150 -33.5q90 0 163.5 34.5t123.5 94.5t77 142.5t27 178.5v255q0 96 -27 177.5t-77 141.5t-123.5 94.5t-163.5 34.5q-84 0 -152 -34.5t-116.5 -93.5t-74.5 -141.5t-26 -178.5v-255zM384 1590v26l243 234h116l242 -234v-26h-156l-145 147l-142 -147 h-158z" />
<glyph unicode="&#xd5;" horiz-adv-x="1368" d="M111 586v253q0 128 41 239.5t114 192.5t176.5 128.5t229.5 47.5q129 0 237 -46.5t184.5 -127t119.5 -192.5t43 -242v-253q0 -130 -43 -240.5t-119.5 -191.5t-184.5 -127.5t-237 -46.5q-124 0 -227.5 46.5t-177.5 127.5t-115 191.5t-41 240.5zM303 586q0 -100 27.5 -182.5 t75.5 -141.5t116 -92.5t150 -33.5q90 0 163.5 34.5t123.5 94.5t77 142.5t27 178.5v255q0 96 -27 177.5t-77 141.5t-123.5 94.5t-163.5 34.5q-84 0 -152 -34.5t-116.5 -93.5t-74.5 -141.5t-26 -178.5v-255zM343 1618q0 45 15.5 86t42.5 72t65 49t82 18q25 0 61.5 -14t76 -32 t75.5 -32t59 -14q40 0 69 32t29 79l105 -33q0 -46 -14.5 -85t-42 -69t-65 -47t-81.5 -17q-35 0 -72 13.5t-73.5 30.5t-69 31.5t-57.5 14.5q-42 0 -70 -31.5t-28 -77.5z" />
<glyph unicode="&#xd6;" horiz-adv-x="1368" d="M111 586v253q0 128 41 239.5t114 192.5t176.5 128.5t229.5 47.5q129 0 237 -46.5t184.5 -127t119.5 -192.5t43 -242v-253q0 -130 -43 -240.5t-119.5 -191.5t-184.5 -127.5t-237 -46.5q-124 0 -227.5 46.5t-177.5 127.5t-115 191.5t-41 240.5zM303 586q0 -100 27.5 -182.5 t75.5 -141.5t116 -92.5t150 -33.5q90 0 163.5 34.5t123.5 94.5t77 142.5t27 178.5v255q0 96 -27 177.5t-77 141.5t-123.5 94.5t-163.5 34.5q-84 0 -152 -34.5t-116.5 -93.5t-74.5 -141.5t-26 -178.5v-255zM347 1594v197h214v-197h-214zM806 1594v197h215v-197h-215z" />
<glyph unicode="&#xd7;" horiz-adv-x="1073" d="M86 343l322 327l-322 330l123 122l321 -327l319 327l124 -122l-320 -330l320 -327l-124 -123l-319 326l-321 -326z" />
<glyph unicode="&#xd8;" horiz-adv-x="1368" d="M111 586v253q0 128 41 239.5t114 192.5t176.5 128.5t229.5 47.5q92 0 175.5 -24.5t154.5 -70.5l80 136h144l-128 -218q76 -84 117 -194.5t41 -236.5v-253q0 -130 -43 -240.5t-119.5 -191.5t-184.5 -127.5t-237 -46.5q-170 0 -293 78l-88 -150h-147l137 228 q-84 84 -127 199t-43 251zM303 586q0 -84 19 -155t53 -122l6 -2l534 899q-50 41 -111 62t-132 21q-84 0 -152 -34.5t-116.5 -93.5t-74.5 -141.5t-26 -178.5v-255zM466 205q90 -69 206 -69q90 0 163.5 34.5t123.5 94.5t77 142.5t27 178.5v255q0 153 -61 255h-6z" />
<glyph unicode="&#xd9;" horiz-adv-x="1358" d="M144 479v948h193v-948q0 -168 94.5 -258.5t240.5 -90.5q79 0 144 24t111 69.5t72.5 110t26.5 145.5v948h192v-948q0 -118 -41 -210.5t-113 -156.5t-172.5 -98t-219.5 -34q-114 0 -211 34t-168 98t-110 157t-39 210zM365 1822l4 7h225l170 -262h-154z" />
<glyph unicode="&#xda;" horiz-adv-x="1358" d="M144 479v948h193v-948q0 -168 94.5 -258.5t240.5 -90.5q79 0 144 24t111 69.5t72.5 110t26.5 145.5v948h192v-948q0 -118 -41 -210.5t-113 -156.5t-172.5 -98t-219.5 -34q-114 0 -211 34t-168 98t-110 157t-39 210zM594 1563l181 262h227l2 -7l-265 -255h-145z" />
<glyph unicode="&#xdb;" horiz-adv-x="1358" d="M144 479v948h193v-948q0 -168 94.5 -258.5t240.5 -90.5q79 0 144 24t111 69.5t72.5 110t26.5 145.5v948h192v-948q0 -118 -41 -210.5t-113 -156.5t-172.5 -98t-219.5 -34q-114 0 -211 34t-168 98t-110 157t-39 210zM382 1567v26l243 234h116l242 -234v-26h-156l-145 147 l-142 -147h-158z" />
<glyph unicode="&#xdc;" horiz-adv-x="1358" d="M144 479v948h193v-948q0 -168 94.5 -258.5t240.5 -90.5q79 0 144 24t111 69.5t72.5 110t26.5 145.5v948h192v-948q0 -118 -41 -210.5t-113 -156.5t-172.5 -98t-219.5 -34q-114 0 -211 34t-168 98t-110 157t-39 210zM345 1571v197h214v-197h-214zM804 1571v197h215v-197 h-215z" />
<glyph unicode="&#xdd;" horiz-adv-x="1268" d="M40 1427h219l373 -724l372 724h220l-500 -925v-502h-192v515zM545 1563l181 262h227l2 -7l-265 -255h-145z" />
<glyph unicode="&#xde;" horiz-adv-x="1183" d="M161 0v1427h192v-287h263q113 0 202 -30t151.5 -84.5t95.5 -131.5t33 -172q0 -92 -33 -168.5t-94.5 -131t-151 -85t-203.5 -30.5h-263v-307h-192zM353 458h263q73 0 127 21t90 57t54.5 83t18.5 101t-18.5 103.5t-54.5 87t-90.5 58.5t-126.5 21h-263v-532z" />
<glyph unicode="&#xdf;" horiz-adv-x="1195" d="M134 0v1059q0 111 31.5 198.5t85.5 145.5t129.5 89t163.5 31q78 0 143.5 -21t112.5 -62.5t73.5 -103.5t26.5 -143q0 -58 -20.5 -116t-44 -110t-43.5 -94t-20 -68q0 -79 172 -219q170 -142 170 -277q0 -163 -101.5 -246t-277.5 -83q-40 0 -84.5 6t-84.5 15t-73 21t-51 26 l44 157q42 -29 106.5 -52t121.5 -23q107 0 156 46t49 123q0 84 -168 222q-171 141 -171 286q0 36 22 86.5t47 101.5t47 99t22 82q0 88 -50 142.5t-114 54.5q-102 0 -164.5 -81.5t-62.5 -232.5v-1059h-193z" />
<glyph unicode="&#xe0;" horiz-adv-x="1103" d="M104 297q0 76 32.5 136.5t91.5 102.5t143.5 64t188.5 22h210v104q0 94 -56.5 147.5t-161.5 53.5q-94 0 -151.5 -47t-57.5 -112l-182 -2l-2 6q0 58 28 114t81 99t127 69t169 26q88 0 161.5 -23t127 -68t82 -112t28.5 -153v-511q0 -56 6 -108.5t23 -104.5h-199 q-10 48 -16.5 84.5t-6.5 74.5q-54 -75 -139 -127t-187 -52q-167 0 -253.5 83.5t-86.5 233.5zM224 1507l4 7h225l170 -262h-154zM297 293q0 -71 44 -112t130 -41q52 0 100.5 15.5t88 40t68.5 57t42 66.5v173h-216q-58 0 -105 -16t-80.5 -43t-52.5 -63.5t-19 -76.5z" />
<glyph unicode="&#xe1;" horiz-adv-x="1103" d="M104 297q0 76 32.5 136.5t91.5 102.5t143.5 64t188.5 22h210v104q0 94 -56.5 147.5t-161.5 53.5q-94 0 -151.5 -47t-57.5 -112l-182 -2l-2 6q0 58 28 114t81 99t127 69t169 26q88 0 161.5 -23t127 -68t82 -112t28.5 -153v-511q0 -56 6 -108.5t23 -104.5h-199 q-10 48 -16.5 84.5t-6.5 74.5q-54 -75 -139 -127t-187 -52q-167 0 -253.5 83.5t-86.5 233.5zM297 293q0 -71 44 -112t130 -41q52 0 100.5 15.5t88 40t68.5 57t42 66.5v173h-216q-58 0 -105 -16t-80.5 -43t-52.5 -63.5t-19 -76.5zM455 1249l181 262h227l2 -7l-265 -255h-145z " />
<glyph unicode="&#xe2;" horiz-adv-x="1103" d="M104 297q0 76 32.5 136.5t91.5 102.5t143.5 64t188.5 22h210v104q0 94 -56.5 147.5t-161.5 53.5q-94 0 -151.5 -47t-57.5 -112l-182 -2l-2 6q0 58 28 114t81 99t127 69t169 26q88 0 161.5 -23t127 -68t82 -112t28.5 -153v-511q0 -56 6 -108.5t23 -104.5h-199 q-10 48 -16.5 84.5t-6.5 74.5q-54 -75 -139 -127t-187 -52q-167 0 -253.5 83.5t-86.5 233.5zM243 1252v26l243 234h116l242 -234v-26h-156l-145 147l-142 -147h-158zM297 293q0 -71 44 -112t130 -41q52 0 100.5 15.5t88 40t68.5 57t42 66.5v173h-216q-58 0 -105 -16 t-80.5 -43t-52.5 -63.5t-19 -76.5z" />
<glyph unicode="&#xe3;" horiz-adv-x="1103" d="M104 297q0 76 32.5 136.5t91.5 102.5t143.5 64t188.5 22h210v104q0 94 -56.5 147.5t-161.5 53.5q-94 0 -151.5 -47t-57.5 -112l-182 -2l-2 6q0 58 28 114t81 99t127 69t169 26q88 0 161.5 -23t127 -68t82 -112t28.5 -153v-511q0 -56 6 -108.5t23 -104.5h-199 q-10 48 -16.5 84.5t-6.5 74.5q-54 -75 -139 -127t-187 -52q-167 0 -253.5 83.5t-86.5 233.5zM205 1280q0 45 15.5 86t42.5 72t65 49t82 18q25 0 61.5 -14t76 -32t75.5 -32t59 -14q40 0 69 32t29 79l105 -33q0 -46 -14.5 -85t-42 -69t-65 -47t-81.5 -17q-35 0 -72 13.5 t-73.5 30.5t-69 31.5t-57.5 14.5q-42 0 -70 -31.5t-28 -77.5zM297 293q0 -71 44 -112t130 -41q52 0 100.5 15.5t88 40t68.5 57t42 66.5v173h-216q-58 0 -105 -16t-80.5 -43t-52.5 -63.5t-19 -76.5z" />
<glyph unicode="&#xe4;" horiz-adv-x="1103" d="M104 297q0 76 32.5 136.5t91.5 102.5t143.5 64t188.5 22h210v104q0 94 -56.5 147.5t-161.5 53.5q-94 0 -151.5 -47t-57.5 -112l-182 -2l-2 6q0 58 28 114t81 99t127 69t169 26q88 0 161.5 -23t127 -68t82 -112t28.5 -153v-511q0 -56 6 -108.5t23 -104.5h-199 q-10 48 -16.5 84.5t-6.5 74.5q-54 -75 -139 -127t-187 -52q-167 0 -253.5 83.5t-86.5 233.5zM207 1256v197h214v-197h-214zM297 293q0 -71 44 -112t130 -41q52 0 100.5 15.5t88 40t68.5 57t42 66.5v173h-216q-58 0 -105 -16t-80.5 -43t-52.5 -63.5t-19 -76.5zM666 1256v197 h215v-197h-215z" />
<glyph unicode="&#xe5;" horiz-adv-x="1103" d="M104 297q0 76 32.5 136.5t91.5 102.5t143.5 64t188.5 22h210v104q0 94 -56.5 147.5t-161.5 53.5q-94 0 -151.5 -47t-57.5 -112l-182 -2l-2 6q0 58 28 114t81 99t127 69t169 26q88 0 161.5 -23t127 -68t82 -112t28.5 -153v-511q0 -56 6 -108.5t23 -104.5h-199 q-10 48 -16.5 84.5t-6.5 74.5q-54 -75 -139 -127t-187 -52q-167 0 -253.5 83.5t-86.5 233.5zM297 293q0 -71 44 -112t130 -41q52 0 100.5 15.5t88 40t68.5 57t42 66.5v173h-216q-58 0 -105 -16t-80.5 -43t-52.5 -63.5t-19 -76.5zM372 1385q0 74 52 119t120 45 q69 0 119 -47.5t50 -116.5q0 -71 -49 -116t-120 -45q-72 0 -122 42t-50 119zM468 1385q0 -31 22 -52t54 -21q29 0 50 20t21 53q0 32 -21 52.5t-50 20.5q-32 0 -54 -20.5t-22 -52.5z" />
<glyph unicode="&#xe6;" horiz-adv-x="1753" d="M86 297q0 155 112.5 239t329.5 84h225v87q0 101 -51 160.5t-148 59.5q-102 0 -160.5 -53t-58.5 -129l-184 15l-2 6q0 67 28 124.5t80 99.5t127.5 66t169.5 24q231 0 333 -155q62 75 147.5 115t185.5 40q213 0 324.5 -128.5t111.5 -349.5v-116h-695l-2 -7q2 -76 20.5 -140 t56.5 -110.5t95 -72.5t135 -26q52 0 92 7t75.5 20.5t69 32.5t71.5 45l66 -137q-52 -42 -145 -80t-229 -38q-134 0 -235.5 46.5t-165.5 136.5q-54 -77 -164.5 -130t-267.5 -53q-168 0 -257.5 85.5t-89.5 231.5zM279 293q0 -73 48 -118t144 -45q39 0 79 12.5t77 31.5t70 44 t56 52v212h-223q-58 0 -104.5 -15t-79.5 -41t-50 -60.5t-17 -72.5zM963 632l2 -6h498v33q0 120 -58 194t-185 74q-111 0 -179 -82.5t-78 -212.5z" />
<glyph unicode="&#xe7;" horiz-adv-x="1049" d="M94 510v40q0 111 31.5 207t90.5 168.5t146.5 113.5t199.5 41q88 0 161.5 -29.5t127 -80.5t82 -120t28.5 -149l-2 -6h-174q0 48 -17 90t-47 74t-70 50t-89 18q-73 0 -125 -30t-85 -81.5t-48 -119.5t-15 -146v-40q0 -79 15 -148t48 -120t85 -81.5t125 -30.5q44 0 84 16.5 t71.5 44.5t49.5 65t18 79h174l2 -6q0 -68 -32 -131.5t-86 -111.5t-127.5 -77t-153.5 -29q-115 0 -202 41t-146 113.5t-89.5 169t-30.5 206.5zM442 -327q70 0 113 24.5t43 72.5q0 46 -35 65t-119 25l30 132h138l-12 -50q65 -12 105.5 -52t40.5 -118q0 -95 -76 -150t-221 -55z " />
<glyph unicode="&#xe8;" horiz-adv-x="1049" d="M94 510v42q0 114 36.5 210.5t97.5 167t143.5 110.5t176.5 40q109 0 189 -35.5t132 -99.5t78 -152t26 -197v-102h-678l-2 -4q0 -80 17 -146.5t52.5 -114t89.5 -73.5t128 -26q98 0 171.5 27t125.5 78l77 -124q-58 -56 -150 -93.5t-224 -37.5q-118 0 -208.5 39t-151.5 109.5 t-93.5 167.5t-32.5 214zM208 1509l4 7h225l170 -262h-154zM301 651l2 -5h478v16q0 56 -13 104t-42 84.5t-73.5 56.5t-104.5 20q-100 0 -165 -78.5t-82 -197.5z" />
<glyph unicode="&#xe9;" horiz-adv-x="1049" d="M94 510v42q0 114 36.5 210.5t97.5 167t143.5 110.5t176.5 40q109 0 189 -35.5t132 -99.5t78 -152t26 -197v-102h-678l-2 -4q0 -80 17 -146.5t52.5 -114t89.5 -73.5t128 -26q98 0 171.5 27t125.5 78l77 -124q-58 -56 -150 -93.5t-224 -37.5q-118 0 -208.5 39t-151.5 109.5 t-93.5 167.5t-32.5 214zM301 651l2 -5h478v16q0 56 -13 104t-42 84.5t-73.5 56.5t-104.5 20q-100 0 -165 -78.5t-82 -197.5zM439 1250l181 262h227l2 -7l-265 -255h-145z" />
<glyph unicode="&#xea;" horiz-adv-x="1049" d="M94 510v42q0 114 36.5 210.5t97.5 167t143.5 110.5t176.5 40q109 0 189 -35.5t132 -99.5t78 -152t26 -197v-102h-678l-2 -4q0 -80 17 -146.5t52.5 -114t89.5 -73.5t128 -26q98 0 171.5 27t125.5 78l77 -124q-58 -56 -150 -93.5t-224 -37.5q-118 0 -208.5 39t-151.5 109.5 t-93.5 167.5t-32.5 214zM227 1254v26l243 234h116l242 -234v-26h-156l-145 147l-142 -147h-158zM301 651l2 -5h478v16q0 56 -13 104t-42 84.5t-73.5 56.5t-104.5 20q-100 0 -165 -78.5t-82 -197.5z" />
<glyph unicode="&#xeb;" horiz-adv-x="1049" d="M94 510v42q0 114 36.5 210.5t97.5 167t143.5 110.5t176.5 40q109 0 189 -35.5t132 -99.5t78 -152t26 -197v-102h-678l-2 -4q0 -80 17 -146.5t52.5 -114t89.5 -73.5t128 -26q98 0 171.5 27t125.5 78l77 -124q-58 -56 -150 -93.5t-224 -37.5q-118 0 -208.5 39t-151.5 109.5 t-93.5 167.5t-32.5 214zM191 1258v197h214v-197h-214zM301 651l2 -5h478v16q0 56 -13 104t-42 84.5t-73.5 56.5t-104.5 20q-100 0 -165 -78.5t-82 -197.5zM650 1258v197h215v-197h-215z" />
<glyph unicode="&#xec;" horiz-adv-x="503" d="M-71 1487l4 7h225l170 -262h-154zM151 0v1059h192v-1059h-192z" />
<glyph unicode="&#xed;" horiz-adv-x="503" d="M151 0v1059h192v-1059h-192zM158 1228l181 262h227l2 -7l-265 -255h-145z" />
<glyph unicode="&#xee;" horiz-adv-x="503" d="M-52 1232v26l243 234h116l242 -234v-26h-156l-145 147l-142 -147h-158zM151 0v1059h192v-1059h-192z" />
<glyph unicode="&#xef;" horiz-adv-x="503" d="M-88 1236v197h214v-197h-214zM151 0v1059h192v-1059h-192zM371 1236v197h215v-197h-215z" />
<glyph unicode="&#xf0;" horiz-adv-x="1177" d="M71 458q0 110 35.5 202.5t99.5 158.5t152 103t192 37q90 0 166.5 -37t128.5 -95l4 6q-10 107 -51 193t-107 150l-285 -163l-75 101l251 142q-40 23 -80 38.5t-85 32.5l60 161q153 -37 280 -130l214 123l75 -100l-191 -111q94 -102 144.5 -235t50.5 -294v-217 q0 -118 -37.5 -217.5t-102.5 -172t-155.5 -113.5t-196.5 -41q-109 0 -198.5 37t-153.5 101t-99.5 152t-35.5 188zM263 458q0 -67 21 -126t60 -104.5t94 -71.5t124 -26q64 0 118.5 30.5t93 82.5t61 124.5t22.5 156.5v144q-35 58 -113 98.5t-194 40.5q-65 0 -118 -27t-90 -75 t-58 -111.5t-21 -135.5z" />
<glyph unicode="&#xf1;" d="M140 0v1059h173l14 -155q52 84 131.5 130t181.5 46q172 0 267 -99.5t95 -312.5v-668h-195v666q0 141 -54 199t-169 58q-90 0 -152.5 -36t-98.5 -100v-787h-193zM226 1280q0 45 15.5 86t42.5 72t65 49t82 18q25 0 61.5 -14t76 -32t75.5 -32t59 -14q40 0 69 32t29 79 l105 -33q0 -46 -14.5 -85t-42 -69t-65 -47t-81.5 -17q-35 0 -72 13.5t-73.5 30.5t-69 31.5t-57.5 14.5q-42 0 -70 -31.5t-28 -77.5z" />
<glyph unicode="&#xf2;" d="M94 517v23q0 117 33.5 215t94.5 170.5t148.5 113.5t197.5 41q109 0 197 -40t150 -111.5t96.5 -170.5t34.5 -218v-23q0 -116 -32.5 -214t-94.5 -170.5t-150.5 -112.5t-198.5 -40q-112 0 -199.5 40t-149.5 112.5t-94.5 171t-32.5 213.5zM251 1507l4 7h225l170 -262h-154z M289 517q0 -84 18 -155t53 -122t87.5 -80.5t122.5 -29.5q69 0 122 29.5t87.5 80.5t53 122t18.5 155v23q0 82 -18.5 152t-53 122.5t-88 82.5t-123.5 30t-122.5 -29t-86.5 -81.5t-52 -123.5t-18 -153v-23z" />
<glyph unicode="&#xf3;" d="M94 517v23q0 117 33.5 215t94.5 170.5t148.5 113.5t197.5 41q109 0 197 -40t150 -111.5t96.5 -170.5t34.5 -218v-23q0 -116 -32.5 -214t-94.5 -170.5t-150.5 -112.5t-198.5 -40q-112 0 -199.5 40t-149.5 112.5t-94.5 171t-32.5 213.5zM289 517q0 -84 18 -155t53 -122 t87.5 -80.5t122.5 -29.5q69 0 122 29.5t87.5 80.5t53 122t18.5 155v23q0 82 -18.5 152t-53 122.5t-88 82.5t-123.5 30t-122.5 -29t-86.5 -81.5t-52 -123.5t-18 -153v-23zM481 1249l181 262h227l2 -7l-265 -255h-145z" />
<glyph unicode="&#xf4;" d="M94 517v23q0 117 33.5 215t94.5 170.5t148.5 113.5t197.5 41q109 0 197 -40t150 -111.5t96.5 -170.5t34.5 -218v-23q0 -116 -32.5 -214t-94.5 -170.5t-150.5 -112.5t-198.5 -40q-112 0 -199.5 40t-149.5 112.5t-94.5 171t-32.5 213.5zM269 1252v26l243 234h116l242 -234 v-26h-156l-145 147l-142 -147h-158zM289 517q0 -84 18 -155t53 -122t87.5 -80.5t122.5 -29.5q69 0 122 29.5t87.5 80.5t53 122t18.5 155v23q0 82 -18.5 152t-53 122.5t-88 82.5t-123.5 30t-122.5 -29t-86.5 -81.5t-52 -123.5t-18 -153v-23z" />
<glyph unicode="&#xf5;" d="M94 517v23q0 117 33.5 215t94.5 170.5t148.5 113.5t197.5 41q109 0 197 -40t150 -111.5t96.5 -170.5t34.5 -218v-23q0 -116 -32.5 -214t-94.5 -170.5t-150.5 -112.5t-198.5 -40q-112 0 -199.5 40t-149.5 112.5t-94.5 171t-32.5 213.5zM230 1280q0 45 15.5 86t42.5 72 t65 49t82 18q25 0 61.5 -14t76 -32t75.5 -32t59 -14q40 0 69 32t29 79l105 -33q0 -46 -14.5 -85t-42 -69t-65 -47t-81.5 -17q-35 0 -72 13.5t-73.5 30.5t-69 31.5t-57.5 14.5q-42 0 -70 -31.5t-28 -77.5zM289 517q0 -84 18 -155t53 -122t87.5 -80.5t122.5 -29.5 q69 0 122 29.5t87.5 80.5t53 122t18.5 155v23q0 82 -18.5 152t-53 122.5t-88 82.5t-123.5 30t-122.5 -29t-86.5 -81.5t-52 -123.5t-18 -153v-23z" />
<glyph unicode="&#xf6;" d="M94 517v23q0 117 33.5 215t94.5 170.5t148.5 113.5t197.5 41q109 0 197 -40t150 -111.5t96.5 -170.5t34.5 -218v-23q0 -116 -32.5 -214t-94.5 -170.5t-150.5 -112.5t-198.5 -40q-112 0 -199.5 40t-149.5 112.5t-94.5 171t-32.5 213.5zM234 1256v197h214v-197h-214z M289 517q0 -84 18 -155t53 -122t87.5 -80.5t122.5 -29.5q69 0 122 29.5t87.5 80.5t53 122t18.5 155v23q0 82 -18.5 152t-53 122.5t-88 82.5t-123.5 30t-122.5 -29t-86.5 -81.5t-52 -123.5t-18 -153v-23zM693 1256v197h215v-197h-215z" />
<glyph unicode="&#xf7;" horiz-adv-x="1145" d="M71 586v182h977v-182h-977zM462 176v199h195v-199h-195zM462 979v199h195v-199h-195z" />
<glyph unicode="&#xf8;" d="M94 517v23q0 117 33.5 215t94.5 170.5t148.5 113.5t197.5 41q111 0 200 -40l73 144h126l-100 -207q87 -72 133 -185.5t46 -251.5v-23q0 -116 -32.5 -214t-94.5 -170.5t-150.5 -112.5t-198.5 -40q-94 0 -181 32l-70 -144h-126l98 201q-96 70 -146.5 186t-50.5 262z M289 517q0 -90 19 -163t60 -119h5l326 660q-60 32 -131 32q-70 0 -122.5 -29t-86.5 -81.5t-52 -123.5t-18 -153v-23zM460 153q44 -23 110 -23q69 0 122 29.5t87.5 80.5t53 122t18.5 155v23q0 78 -16 147.5t-48 115.5h-6z" />
<glyph unicode="&#xf9;" d="M136 435v624h193v-626q0 -84 12 -141t38.5 -92t64.5 -49.5t92 -14.5q102 0 169 41.5t102 117.5v764h193v-1059h-173l-15 157q-50 -86 -128 -131.5t-180 -45.5q-173 0 -270.5 110.5t-97.5 344.5zM249 1487l4 7h225l170 -262h-154z" />
<glyph unicode="&#xfa;" d="M136 435v624h193v-626q0 -84 12 -141t38.5 -92t64.5 -49.5t92 -14.5q102 0 169 41.5t102 117.5v764h193v-1059h-173l-15 157q-50 -86 -128 -131.5t-180 -45.5q-173 0 -270.5 110.5t-97.5 344.5zM479 1228l181 262h227l2 -7l-265 -255h-145z" />
<glyph unicode="&#xfb;" d="M136 435v624h193v-626q0 -84 12 -141t38.5 -92t64.5 -49.5t92 -14.5q102 0 169 41.5t102 117.5v764h193v-1059h-173l-15 157q-50 -86 -128 -131.5t-180 -45.5q-173 0 -270.5 110.5t-97.5 344.5zM267 1232v26l243 234h116l242 -234v-26h-156l-145 147l-142 -147h-158z" />
<glyph unicode="&#xfc;" d="M136 435v624h193v-626q0 -84 12 -141t38.5 -92t64.5 -49.5t92 -14.5q102 0 169 41.5t102 117.5v764h193v-1059h-173l-15 157q-50 -86 -128 -131.5t-180 -45.5q-173 0 -270.5 110.5t-97.5 344.5zM232 1236v197h214v-197h-214zM691 1236v197h215v-197h-215z" />
<glyph unicode="&#xfd;" horiz-adv-x="1009" d="M26 1059h215l223 -666l36 -134h4l260 800h215l-445 -1222q-18 -52 -46 -99t-66.5 -84t-89.5 -59t-115 -22q-23 0 -60.5 5t-56.5 8l21 153h-2q2 0 16 -1t28.5 -1t28 -1t15.5 -1q32 0 57 16t45 41.5t36.5 57t27.5 62.5l46 111zM415 1228l181 262h227l2 -7l-265 -255h-145z " />
<glyph unicode="&#xfe;" horiz-adv-x="1161" d="M151 -408v1938h192v-586q52 66 125.5 101t169.5 35q98 0 175.5 -42t131 -117.5t81.5 -180t28 -230.5v-20q0 -115 -28 -208t-81.5 -160.5t-130.5 -104.5t-174 -37q-191 0 -297 131v-519h-192zM343 269q36 -65 94.5 -102t144.5 -37q69 0 121 26t87 73.5t53 114t18 146.5v20 q0 86 -17 161.5t-52 131.5t-88 88t-124 32q-84 0 -142.5 -38t-94.5 -102v-514z" />
<glyph unicode="&#xff;" horiz-adv-x="1009" d="M26 1059h215l223 -666l36 -134h4l260 800h215l-445 -1222q-18 -52 -46 -99t-66.5 -84t-89.5 -59t-115 -22q-23 0 -60.5 5t-56.5 8l21 153h-2q2 0 16 -1t28.5 -1t28 -1t15.5 -1q32 0 57 16t45 41.5t36.5 57t27.5 62.5l46 111zM167 1236v197h214v-197h-214zM626 1236v197 h215v-197h-215z" />
<glyph unicode="&#x100;" horiz-adv-x="1268" d="M42 0l514 1427h166l504 -1427h-196l-126 368h-536l-129 -368h-197zM288 1608v142h706v-142h-706zM421 530h428l-209 612h-6z" />
<glyph unicode="&#x101;" horiz-adv-x="1103" d="M104 297q0 76 32.5 136.5t91.5 102.5t143.5 64t188.5 22h210v104q0 94 -56.5 147.5t-161.5 53.5q-94 0 -151.5 -47t-57.5 -112l-182 -2l-2 6q0 58 28 114t81 99t127 69t169 26q88 0 161.5 -23t127 -68t82 -112t28.5 -153v-511q0 -56 6 -108.5t23 -104.5h-199 q-10 48 -16.5 84.5t-6.5 74.5q-54 -75 -139 -127t-187 -52q-167 0 -253.5 83.5t-86.5 233.5zM197 1293v142h706v-142h-706zM297 293q0 -71 44 -112t130 -41q52 0 100.5 15.5t88 40t68.5 57t42 66.5v173h-216q-58 0 -105 -16t-80.5 -43t-52.5 -63.5t-19 -76.5z" />
<glyph unicode="&#x102;" horiz-adv-x="1268" d="M42 0l514 1427h166l504 -1427h-196l-126 368h-536l-129 -368h-197zM345 1827l2 6h149q0 -65 33 -104.5t105 -39.5q71 0 106 40t35 104h149l1 -6q0 -115 -76 -186t-215 -71q-134 0 -211.5 71t-77.5 186zM421 530h428l-209 612h-6z" />
<glyph unicode="&#x103;" horiz-adv-x="1103" d="M104 297q0 76 32.5 136.5t91.5 102.5t143.5 64t188.5 22h210v104q0 94 -56.5 147.5t-161.5 53.5q-94 0 -151.5 -47t-57.5 -112l-182 -2l-2 6q0 58 28 114t81 99t127 69t169 26q88 0 161.5 -23t127 -68t82 -112t28.5 -153v-511q0 -56 6 -108.5t23 -104.5h-199 q-10 48 -16.5 84.5t-6.5 74.5q-54 -75 -139 -127t-187 -52q-167 0 -253.5 83.5t-86.5 233.5zM254 1511l2 6h149q0 -65 33 -104.5t105 -39.5q71 0 106 40t35 104h149l1 -6q0 -115 -76 -186t-215 -71q-134 0 -211.5 71t-77.5 186zM297 293q0 -71 44 -112t130 -41 q52 0 100.5 15.5t88 40t68.5 57t42 66.5v173h-216q-58 0 -105 -16t-80.5 -43t-52.5 -63.5t-19 -76.5z" />
<glyph unicode="&#x104;" horiz-adv-x="1268" d="M42 0l514 1427h166l504 -1427h-196l-126 368h-536l-129 -368h-197zM421 530h428l-209 612h-6zM890 -219q0 79 58.5 149t183.5 126l70 -56q-68 -52 -106 -98t-38 -99q0 -40 21 -64t73 -24q27 0 49 7.5t47 18.5l33 -120q-35 -20 -78 -32t-101 -12q-90 0 -151 52t-61 152z " />
<glyph unicode="&#x105;" horiz-adv-x="1103" d="M104 297q0 76 32.5 136.5t91.5 102.5t143.5 64t188.5 22h210v104q0 94 -56.5 147.5t-161.5 53.5q-94 0 -151.5 -47t-57.5 -112l-182 -2l-2 6q0 58 28 114t81 99t127 69t169 26q88 0 161.5 -23t127 -68t82 -112t28.5 -153v-511q0 -56 6 -108.5t23 -104.5h-199 q-10 48 -16.5 84.5t-6.5 74.5q-54 -75 -139 -127t-187 -52q-167 0 -253.5 83.5t-86.5 233.5zM297 293q0 -71 44 -112t130 -41q52 0 100.5 15.5t88 40t68.5 57t42 66.5v173h-216q-58 0 -105 -16t-80.5 -43t-52.5 -63.5t-19 -76.5zM653 -219q0 79 58.5 149t183.5 126l70 -56 q-68 -52 -106 -98t-38 -99q0 -40 21 -64t73 -24q27 0 49 7.5t47 18.5l33 -120q-35 -20 -78 -32t-101 -12q-90 0 -151 52t-61 152z" />
<glyph unicode="&#x106;" horiz-adv-x="1270" d="M117 586v253q0 132 40 244t112 192.5t172.5 126t220.5 45.5q123 0 220 -33t164.5 -95.5t103.5 -148.5t36 -193l-2 -6h-184q0 151 -88.5 238.5t-249.5 87.5q-84 0 -149 -36.5t-110 -98.5t-69.5 -145.5t-24.5 -175.5v-255q0 -96 24.5 -178.5t70.5 -144.5t111 -97.5 t147 -35.5q161 0 249.5 86.5t88.5 241.5h184l2 -6q0 -100 -36 -187t-104.5 -150t-165.5 -99t-218 -36q-120 0 -220.5 45.5t-172.5 126.5t-112 191.5t-40 242.5zM576 1586l181 262h227l2 -7l-265 -255h-145z" />
<glyph unicode="&#x107;" horiz-adv-x="1049" d="M94 510v40q0 111 31.5 207t90.5 168.5t146.5 113.5t199.5 41q88 0 161.5 -29.5t127 -80.5t82 -120t28.5 -149l-2 -6h-174q0 48 -17 90t-47 74t-70 50t-89 18q-73 0 -125 -30t-85 -81.5t-48 -119.5t-15 -146v-40q0 -79 15 -148t48 -120t85 -81.5t125 -30.5q44 0 84 16.5 t71.5 44.5t49.5 65t18 79h174l2 -6q0 -68 -32 -131.5t-86 -111.5t-127.5 -77t-153.5 -29q-115 0 -202 41t-146 113.5t-89.5 169t-30.5 206.5zM447 1249l181 262h227l2 -7l-265 -255h-145z" />
<glyph unicode="&#x108;" horiz-adv-x="1270" d="M117 586v253q0 132 40 244t112 192.5t172.5 126t220.5 45.5q123 0 220 -33t164.5 -95.5t103.5 -148.5t36 -193l-2 -6h-184q0 151 -88.5 238.5t-249.5 87.5q-84 0 -149 -36.5t-110 -98.5t-69.5 -145.5t-24.5 -175.5v-255q0 -96 24.5 -178.5t70.5 -144.5t111 -97.5 t147 -35.5q161 0 249.5 86.5t88.5 241.5h184l2 -6q0 -100 -36 -187t-104.5 -150t-165.5 -99t-218 -36q-120 0 -220.5 45.5t-172.5 126.5t-112 191.5t-40 242.5zM364 1590v26l243 234h116l242 -234v-26h-156l-145 147l-142 -147h-158z" />
<glyph unicode="&#x109;" horiz-adv-x="1049" d="M94 510v40q0 111 31.5 207t90.5 168.5t146.5 113.5t199.5 41q88 0 161.5 -29.5t127 -80.5t82 -120t28.5 -149l-2 -6h-174q0 48 -17 90t-47 74t-70 50t-89 18q-73 0 -125 -30t-85 -81.5t-48 -119.5t-15 -146v-40q0 -79 15 -148t48 -120t85 -81.5t125 -30.5q44 0 84 16.5 t71.5 44.5t49.5 65t18 79h174l2 -6q0 -68 -32 -131.5t-86 -111.5t-127.5 -77t-153.5 -29q-115 0 -202 41t-146 113.5t-89.5 169t-30.5 206.5zM236 1252v26l243 234h116l242 -234v-26h-156l-145 147l-142 -147h-158z" />
<glyph unicode="&#x10a;" horiz-adv-x="1270" d="M117 586v253q0 132 40 244t112 192.5t172.5 126t220.5 45.5q123 0 220 -33t164.5 -95.5t103.5 -148.5t36 -193l-2 -6h-184q0 151 -88.5 238.5t-249.5 87.5q-84 0 -149 -36.5t-110 -98.5t-69.5 -145.5t-24.5 -175.5v-255q0 -96 24.5 -178.5t70.5 -144.5t111 -97.5 t147 -35.5q161 0 249.5 86.5t88.5 241.5h184l2 -6q0 -100 -36 -187t-104.5 -150t-165.5 -99t-218 -36q-120 0 -220.5 45.5t-172.5 126.5t-112 191.5t-40 242.5zM559 1594v197h214v-197h-214z" />
<glyph unicode="&#x10b;" horiz-adv-x="1049" d="M94 510v40q0 111 31.5 207t90.5 168.5t146.5 113.5t199.5 41q88 0 161.5 -29.5t127 -80.5t82 -120t28.5 -149l-2 -6h-174q0 48 -17 90t-47 74t-70 50t-89 18q-73 0 -125 -30t-85 -81.5t-48 -119.5t-15 -146v-40q0 -79 15 -148t48 -120t85 -81.5t125 -30.5q44 0 84 16.5 t71.5 44.5t49.5 65t18 79h174l2 -6q0 -68 -32 -131.5t-86 -111.5t-127.5 -77t-153.5 -29q-115 0 -202 41t-146 113.5t-89.5 169t-30.5 206.5zM430 1256v197h214v-197h-214z" />
<glyph unicode="&#x10c;" horiz-adv-x="1270" d="M117 586v253q0 132 40 244t112 192.5t172.5 126t220.5 45.5q123 0 220 -33t164.5 -95.5t103.5 -148.5t36 -193l-2 -6h-184q0 151 -88.5 238.5t-249.5 87.5q-84 0 -149 -36.5t-110 -98.5t-69.5 -145.5t-24.5 -175.5v-255q0 -96 24.5 -178.5t70.5 -144.5t111 -97.5 t147 -35.5q161 0 249.5 86.5t88.5 241.5h184l2 -6q0 -100 -36 -187t-104.5 -150t-165.5 -99t-218 -36q-120 0 -220.5 45.5t-172.5 126.5t-112 191.5t-40 242.5zM355 1829v21h163l145 -147l144 147h167v-19l-253 -241h-117z" />
<glyph unicode="&#x10d;" horiz-adv-x="1049" d="M94 510v40q0 111 31.5 207t90.5 168.5t146.5 113.5t199.5 41q88 0 161.5 -29.5t127 -80.5t82 -120t28.5 -149l-2 -6h-174q0 48 -17 90t-47 74t-70 50t-89 18q-73 0 -125 -30t-85 -81.5t-48 -119.5t-15 -146v-40q0 -79 15 -148t48 -120t85 -81.5t125 -30.5q44 0 84 16.5 t71.5 44.5t49.5 65t18 79h174l2 -6q0 -68 -32 -131.5t-86 -111.5t-127.5 -77t-153.5 -29q-115 0 -202 41t-146 113.5t-89.5 169t-30.5 206.5zM226 1493v21h163l145 -147l144 147h167v-19l-253 -241h-117z" />
<glyph unicode="&#x10e;" horiz-adv-x="1358" d="M167 0v1427h449q139 0 252 -46t194.5 -128.5t127 -194.5t45.5 -248v-194q0 -136 -44.5 -249.5t-125.5 -195t-195.5 -126.5t-253.5 -45h-449zM291 1808v21h163l145 -147l144 147h167v-19l-253 -241h-117zM360 151h256q100 0 179.5 34.5t134 97t83.5 147.5t29 186v196 q0 100 -29 185t-84.5 147t-135 96t-177.5 34h-256v-1123z" />
<glyph unicode="&#x10f;" d="M96 490v20q0 126 28.5 231.5t80.5 181t129.5 116.5t177.5 41q186 0 287 -134v584h195v-1530h-149l-31 134q-102 -155 -304 -154q-98 0 -174.5 37t-129.5 104.5t-81.5 161.5t-28.5 207zM289 490q0 -157 64 -255.5t205 -98.5q86 0 145 39.5t96 109.5v496q-37 65 -96 103.5 t-143 38.5q-71 0 -122 -31t-84 -85t-49 -130.5t-16 -166.5v-20zM1067 1161l61 241v128h154v-139l-118 -230h-97z" />
<glyph unicode="&#x110;" horiz-adv-x="1358" d="M2 651v150h165v626h449q139 0 252 -46t194.5 -128.5t127 -194.5t45.5 -248v-194q0 -136 -44.5 -249.5t-125.5 -195t-195.5 -126.5t-253.5 -45h-449v651h-165zM360 151h256q100 0 179.5 34.5t134 97t83.5 147.5t29 186v196q0 100 -29 185t-84.5 147t-135 96t-177.5 34 h-256v-473h270v-150h-270v-500z" />
<glyph unicode="&#x111;" d="M96 490v20q0 126 28.5 231.5t80.5 181t129.5 116.5t177.5 41q186 0 287 -134v260h-241v152h241v172h195v-172h192v-152h-192v-1206h-149l-31 134q-102 -155 -304 -154q-98 0 -174.5 37t-129.5 104.5t-81.5 161.5t-28.5 207zM289 490q0 -157 64 -255.5t205 -98.5 q86 0 145 39.5t96 109.5v496q-37 65 -96 103.5t-143 38.5q-71 0 -122 -31t-84 -85t-49 -130.5t-16 -166.5v-20z" />
<glyph unicode="&#x112;" horiz-adv-x="1107" d="M167 0v1427h869v-153h-676v-462h586v-150h-586v-511h686v-151h-879zM259 1608v142h706v-142h-706z" />
<glyph unicode="&#x113;" horiz-adv-x="1049" d="M94 510v42q0 114 36.5 210.5t97.5 167t143.5 110.5t176.5 40q109 0 189 -35.5t132 -99.5t78 -152t26 -197v-102h-678l-2 -4q0 -80 17 -146.5t52.5 -114t89.5 -73.5t128 -26q98 0 171.5 27t125.5 78l77 -124q-58 -56 -150 -93.5t-224 -37.5q-118 0 -208.5 39t-151.5 109.5 t-93.5 167.5t-32.5 214zM181 1293v142h706v-142h-706zM301 651l2 -5h478v16q0 56 -13 104t-42 84.5t-73.5 56.5t-104.5 20q-100 0 -165 -78.5t-82 -197.5z" />
<glyph unicode="&#x114;" horiz-adv-x="1107" d="M167 0v1427h869v-153h-676v-462h586v-150h-586v-511h686v-151h-879zM316 1827l2 6h149q0 -65 33 -104.5t105 -39.5q71 0 106 40t35 104h149l1 -6q0 -115 -76 -186t-215 -71q-134 0 -211.5 71t-77.5 186z" />
<glyph unicode="&#x115;" horiz-adv-x="1049" d="M94 510v42q0 114 36.5 210.5t97.5 167t143.5 110.5t176.5 40q109 0 189 -35.5t132 -99.5t78 -152t26 -197v-102h-678l-2 -4q0 -80 17 -146.5t52.5 -114t89.5 -73.5t128 -26q98 0 171.5 27t125.5 78l77 -124q-58 -56 -150 -93.5t-224 -37.5q-118 0 -208.5 39t-151.5 109.5 t-93.5 167.5t-32.5 214zM239 1511l2 6h149q0 -65 33 -104.5t105 -39.5q71 0 106 40t35 104h149l1 -6q0 -115 -76 -186t-215 -71q-134 0 -211.5 71t-77.5 186zM301 651l2 -5h478v16q0 56 -13 104t-42 84.5t-73.5 56.5t-104.5 20q-100 0 -165 -78.5t-82 -197.5z" />
<glyph unicode="&#x116;" horiz-adv-x="1107" d="M167 0v1427h869v-153h-676v-462h586v-150h-586v-511h686v-151h-879zM500 1571v197h214v-197h-214z" />
<glyph unicode="&#x117;" horiz-adv-x="1049" d="M94 510v42q0 114 36.5 210.5t97.5 167t143.5 110.5t176.5 40q109 0 189 -35.5t132 -99.5t78 -152t26 -197v-102h-678l-2 -4q0 -80 17 -146.5t52.5 -114t89.5 -73.5t128 -26q98 0 171.5 27t125.5 78l77 -124q-58 -56 -150 -93.5t-224 -37.5q-118 0 -208.5 39t-151.5 109.5 t-93.5 167.5t-32.5 214zM301 651l2 -5h478v16q0 56 -13 104t-42 84.5t-73.5 56.5t-104.5 20q-100 0 -165 -78.5t-82 -197.5zM422 1258v197h214v-197h-214z" />
<glyph unicode="&#x118;" horiz-adv-x="1107" d="M167 0v1427h869v-153h-676v-462h586v-150h-586v-511h686v-151h-879zM358 -219q0 79 58.5 149t183.5 126l70 -56q-68 -52 -106 -98t-38 -99q0 -40 21 -64t73 -24q27 0 49 7.5t47 18.5l33 -120q-35 -20 -78 -32t-101 -12q-90 0 -151 52t-61 152z" />
<glyph unicode="&#x119;" horiz-adv-x="1049" d="M94 510v42q0 114 36.5 210.5t97.5 167t143.5 110.5t176.5 40q109 0 189 -35.5t132 -99.5t78 -152t26 -197v-102h-678l-2 -4q0 -80 17 -146.5t52.5 -114t89.5 -73.5t128 -26q98 0 171.5 27t125.5 78l77 -124q-58 -56 -150 -93.5t-224 -37.5q-118 0 -208.5 39t-151.5 109.5 t-93.5 167.5t-32.5 214zM301 651l2 -5h478v16q0 56 -13 104t-42 84.5t-73.5 56.5t-104.5 20q-100 0 -165 -78.5t-82 -197.5zM553 -161q0 79 58.5 149t183.5 126l70 -56q-68 -52 -106 -98t-38 -99q0 -40 21 -64t73 -24q27 0 49 7.5t47 18.5l33 -120q-35 -20 -78 -32t-101 -12 q-90 0 -151 52t-61 152z" />
<glyph unicode="&#x11a;" horiz-adv-x="1107" d="M167 0v1427h869v-153h-676v-462h586v-150h-586v-511h686v-151h-879zM299 1808v21h163l145 -147l144 147h167v-19l-253 -241h-117z" />
<glyph unicode="&#x11b;" horiz-adv-x="1049" d="M94 510v42q0 114 36.5 210.5t97.5 167t143.5 110.5t176.5 40q109 0 189 -35.5t132 -99.5t78 -152t26 -197v-102h-678l-2 -4q0 -80 17 -146.5t52.5 -114t89.5 -73.5t128 -26q98 0 171.5 27t125.5 78l77 -124q-58 -56 -150 -93.5t-224 -37.5q-118 0 -208.5 39t-151.5 109.5 t-93.5 167.5t-32.5 214zM220 1493v21h163l145 -147l144 147h167v-19l-253 -241h-117zM301 651l2 -5h478v16q0 56 -13 104t-42 84.5t-73.5 56.5t-104.5 20q-100 0 -165 -78.5t-82 -197.5z" />
<glyph unicode="&#x11c;" horiz-adv-x="1358" d="M119 566v295q0 127 40 234t113 185t176.5 122.5t227.5 44.5q121 0 216.5 -34t160.5 -94.5t99 -142.5t34 -178l-2 -6h-184q0 64 -22 120t-63.5 97t-101.5 64.5t-137 23.5q-82 0 -148 -33.5t-114 -91.5t-74.5 -137t-26.5 -172v-297q0 -96 28 -175.5t78 -137.5t118.5 -90.5 t150.5 -32.5q126 0 200.5 32.5t111.5 78.5v321h-324v150h517v-519q-25 -40 -69 -78.5t-107 -68.5t-145.5 -48t-183.5 -18q-124 0 -228.5 43.5t-180.5 121t-118 185t-42 236.5zM356 1590v26l243 234h116l242 -234v-26h-156l-145 147l-142 -147h-158z" />
<glyph unicode="&#x11d;" d="M107 490v20q0 126 28 231.5t81 181t129 116.5t174 41q102 0 179 -41t129 -118l22 138h155v-1065q0 -205 -118 -313t-342 -108q-75 0 -165 19t-159 59l31 148q56 -28 135.5 -46t155.5 -18q140 0 204 63.5t64 195.5v121q-106 -135 -293 -135q-96 0 -172 36t-129 103 t-81 161.5t-28 209.5zM255 1252v26l243 234h116l242 -234v-26h-156l-145 147l-142 -147h-158zM299 490q0 -157 64 -255.5t205 -98.5q89 0 145.5 39.5t96.5 113.5v488q-38 69 -96.5 107.5t-143.5 38.5q-70 0 -121 -31t-84.5 -85t-49.5 -130.5t-16 -166.5v-20z" />
<glyph unicode="&#x11e;" horiz-adv-x="1358" d="M119 566v295q0 127 40 234t113 185t176.5 122.5t227.5 44.5q121 0 216.5 -34t160.5 -94.5t99 -142.5t34 -178l-2 -6h-184q0 64 -22 120t-63.5 97t-101.5 64.5t-137 23.5q-82 0 -148 -33.5t-114 -91.5t-74.5 -137t-26.5 -172v-297q0 -96 28 -175.5t78 -137.5t118.5 -90.5 t150.5 -32.5q126 0 200.5 32.5t111.5 78.5v321h-324v150h517v-519q-25 -40 -69 -78.5t-107 -68.5t-145.5 -48t-183.5 -18q-124 0 -228.5 43.5t-180.5 121t-118 185t-42 236.5zM367 1846l2 6h149q0 -65 33 -104.5t105 -39.5q71 0 106 40t35 104h149l1 -6q0 -115 -76 -186 t-215 -71q-134 0 -211.5 71t-77.5 186z" />
<glyph unicode="&#x11f;" d="M107 490v20q0 126 28 231.5t81 181t129 116.5t174 41q102 0 179 -41t129 -118l22 138h155v-1065q0 -205 -118 -313t-342 -108q-75 0 -165 19t-159 59l31 148q56 -28 135.5 -46t155.5 -18q140 0 204 63.5t64 195.5v121q-106 -135 -293 -135q-96 0 -172 36t-129 103 t-81 161.5t-28 209.5zM266 1511l2 6h149q0 -65 33 -104.5t105 -39.5q71 0 106 40t35 104h149l1 -6q0 -115 -76 -186t-215 -71q-134 0 -211.5 71t-77.5 186zM299 490q0 -157 64 -255.5t205 -98.5q89 0 145.5 39.5t96.5 113.5v488q-38 69 -96.5 107.5t-143.5 38.5 q-70 0 -121 -31t-84.5 -85t-49.5 -130.5t-16 -166.5v-20z" />
<glyph unicode="&#x120;" horiz-adv-x="1358" d="M119 566v295q0 127 40 234t113 185t176.5 122.5t227.5 44.5q121 0 216.5 -34t160.5 -94.5t99 -142.5t34 -178l-2 -6h-184q0 64 -22 120t-63.5 97t-101.5 64.5t-137 23.5q-82 0 -148 -33.5t-114 -91.5t-74.5 -137t-26.5 -172v-297q0 -96 28 -175.5t78 -137.5t118.5 -90.5 t150.5 -32.5q126 0 200.5 32.5t111.5 78.5v321h-324v150h517v-519q-25 -40 -69 -78.5t-107 -68.5t-145.5 -48t-183.5 -18q-124 0 -228.5 43.5t-180.5 121t-118 185t-42 236.5zM548 1594v197h214v-197h-214z" />
<glyph unicode="&#x121;" d="M107 490v20q0 126 28 231.5t81 181t129 116.5t174 41q102 0 179 -41t129 -118l22 138h155v-1065q0 -205 -118 -313t-342 -108q-75 0 -165 19t-159 59l31 148q56 -28 135.5 -46t155.5 -18q140 0 204 63.5t64 195.5v121q-106 -135 -293 -135q-96 0 -172 36t-129 103 t-81 161.5t-28 209.5zM299 490q0 -157 64 -255.5t205 -98.5q89 0 145.5 39.5t96.5 113.5v488q-38 69 -96.5 107.5t-143.5 38.5q-70 0 -121 -31t-84.5 -85t-49.5 -130.5t-16 -166.5v-20zM450 1256v197h214v-197h-214z" />
<glyph unicode="&#x122;" horiz-adv-x="1358" d="M119 566v295q0 127 40 234t113 185t176.5 122.5t227.5 44.5q121 0 216.5 -34t160.5 -94.5t99 -142.5t34 -178l-2 -6h-184q0 64 -22 120t-63.5 97t-101.5 64.5t-137 23.5q-82 0 -148 -33.5t-114 -91.5t-74.5 -137t-26.5 -172v-297q0 -96 28 -175.5t78 -137.5t118.5 -90.5 t150.5 -32.5q126 0 200.5 32.5t111.5 78.5v321h-324v150h517v-519q-25 -40 -69 -78.5t-107 -68.5t-145.5 -48t-183.5 -18q-124 0 -228.5 43.5t-180.5 121t-118 185t-42 236.5zM512 -483l61 241v128h154v-139l-118 -230h-97z" />
<glyph unicode="&#x123;" d="M107 490v20q0 126 28 231.5t81 181t129 116.5t174 41q102 0 179 -41t129 -118l22 138h155v-1065q0 -205 -118 -313t-342 -108q-75 0 -165 19t-159 59l31 148q56 -28 135.5 -46t155.5 -18q140 0 204 63.5t64 195.5v121q-106 -135 -293 -135q-96 0 -172 36t-129 103 t-81 161.5t-28 209.5zM299 490q0 -157 64 -255.5t205 -98.5q89 0 145.5 39.5t96.5 113.5v488q-38 69 -96.5 107.5t-143.5 38.5q-70 0 -121 -31t-84.5 -85t-49.5 -130.5t-16 -166.5v-20zM452 1226v147l118 241h96l-22 -251v-137h-192z" />
<glyph unicode="&#x124;" horiz-adv-x="1412" d="M167 0v1427h193v-644h692v644h195v-1427h-195v630h-692v-630h-193zM398 1567v26l243 234h116l242 -234v-26h-156l-145 147l-142 -147h-158z" />
<glyph unicode="&#x125;" d="M140 0v1530h193v-611q56 77 135.5 119t175.5 42q170 0 265 -101.5t95 -314.5v-664h-194v666q0 257 -224 257q-86 0 -149.5 -33t-103.5 -95v-795h-193zM199 1567v26l243 234h116l242 -234v-26h-156l-145 147l-142 -147h-158z" />
<glyph unicode="&#x126;" horiz-adv-x="1410" d="M30 1004v142h144v281h194v-281h691v281h195v-281h141v-142h-141v-1004h-195v630h-691v-630h-194v1004h-144zM368 783h691v221h-691v-221z" />
<glyph unicode="&#x127;" d="M-28 1206v152h168v172h193v-172h267v-152h-267v-287q56 77 135.5 119t175.5 42q170 0 265 -101.5t95 -314.5v-664h-194v666q0 257 -224 257q-86 0 -149.5 -33t-103.5 -95v-795h-193v1206h-168z" />
<glyph unicode="&#x128;" horiz-adv-x="567" d="M-57 1595q0 45 15.5 86t42.5 72t65 49t82 18q25 0 61.5 -14t76 -32t75.5 -32t59 -14q40 0 69 32t29 79l105 -33q0 -46 -14.5 -85t-42 -69t-65 -47t-81.5 -17q-35 0 -72 13.5t-73.5 30.5t-69 31.5t-57.5 14.5q-42 0 -70 -31.5t-28 -77.5zM186 0v1427h193v-1427h-193z" />
<glyph unicode="&#x129;" horiz-adv-x="503" d="M-92 1260q0 45 15.5 86t42.5 72t65 49t82 18q25 0 61.5 -14t76 -32t75.5 -32t59 -14q40 0 69 32t29 79l105 -33q0 -46 -14.5 -85t-42 -69t-65 -47t-81.5 -17q-35 0 -72 13.5t-73.5 30.5t-69 31.5t-57.5 14.5q-42 0 -70 -31.5t-28 -77.5zM151 0v1059h192v-1059h-192z" />
<glyph unicode="&#x12a;" horiz-adv-x="567" d="M-63 1608v142h706v-142h-706zM186 0v1427h193v-1427h-193z" />
<glyph unicode="&#x12b;" horiz-adv-x="503" d="M-99 1273v142h706v-142h-706zM151 0v1059h192v-1059h-192z" />
<glyph unicode="&#x12c;" horiz-adv-x="567" d="M-4 1827l2 6h149q0 -65 33 -104.5t105 -39.5q71 0 106 40t35 104h149l1 -6q0 -115 -76 -186t-215 -71q-134 0 -211.5 71t-77.5 186zM186 0v1427h193v-1427h-193z" />
<glyph unicode="&#x12d;" horiz-adv-x="503" d="M-41 1492l2 6h149q0 -65 33 -104.5t105 -39.5q71 0 106 40t35 104h149l1 -6q0 -115 -76 -186t-215 -71q-134 0 -211.5 71t-77.5 186zM151 0v1059h192v-1059h-192z" />
<glyph unicode="&#x12e;" horiz-adv-x="567" d="M44 -219q0 79 58.5 149t183.5 126l70 -56q-68 -52 -106 -98t-38 -99q0 -40 21 -64t73 -24q27 0 49 7.5t47 18.5l33 -120q-35 -20 -78 -32t-101 -12q-90 0 -151 52t-61 152zM186 0v1427h193v-1427h-193z" />
<glyph unicode="&#x12f;" horiz-adv-x="505" d="M13 -219q0 79 58.5 149t183.5 126l70 -56q-68 -52 -106 -98t-38 -99q0 -40 21 -64t73 -24q27 0 49 7.5t47 18.5l33 -120q-35 -20 -78 -32t-101 -12q-90 0 -151 52t-61 152zM157 0v1059h192v-1059h-192zM157 1333v197h192v-197h-192z" />
<glyph unicode="&#x130;" horiz-adv-x="567" d="M177 1571v197h214v-197h-214zM186 0v1427h193v-1427h-193z" />
<glyph unicode="&#x131;" horiz-adv-x="503" d="M151 0v1059h192v-1059h-192z" />
<glyph unicode="&#x132;" horiz-adv-x="1666" d="M186 0v1427h193v-1427h-193zM646 387l2 6h185q0 -134 61 -198.5t176 -64.5q104 0 173.5 77.5t69.5 206.5v1013h192v-1013q0 -98 -32 -178.5t-89 -137t-137.5 -87.5t-176.5 -31q-201 0 -312.5 102t-111.5 305z" />
<glyph unicode="&#x133;" horiz-adv-x="1025" d="M157 0v1059h192v-1059h-192zM157 1333v197h192v-197h-192zM441 -412l15 153q14 -4 39 -7.5t41 -3.5q65 0 102 43t37 141v1145h195v-1145q0 -165 -84.5 -253t-235.5 -88q-30 0 -55 4t-54 11zM671 1337v193h193v-193h-193z" />
<glyph unicode="&#x134;" horiz-adv-x="1099" d="M78 387l2 6h185q0 -134 61 -198.5t176 -64.5q104 0 173.5 77.5t69.5 206.5v1013h192v-1013q0 -98 -32 -178.5t-89 -137t-137.5 -87.5t-176.5 -31q-201 0 -312.5 102t-111.5 305zM533 1557v26l243 234h116l242 -234v-26h-156l-145 147l-142 -147h-158z" />
<glyph unicode="&#x135;" horiz-adv-x="511" d="M-67 -412l15 149q4 -2 16 -4.5t27 -5t29 -3.5t22 -1q58 0 91.5 50.5t33.5 140.5v1145h195v-1145q0 -165 -84.5 -253t-235.5 -88q-30 0 -55 4t-54 11zM-36 1214v26l243 234h116l242 -234v-26h-156l-145 147l-142 -147h-158z" />
<glyph unicode="&#x136;" horiz-adv-x="1275" d="M167 0v1427h193v-632h106l530 632h216l2 -6l-578 -674l618 -743v-4h-235l-533 644h-126v-644h-193zM467 -467l61 241v128h154v-139l-118 -230h-97z" />
<glyph unicode="&#x137;" horiz-adv-x="1029" d="M140 0v1530h195v-888h96l320 417h230l-385 -487l417 -572h-226l-354 490h-98v-490h-195zM379 -465l61 241v128h154v-139l-118 -230h-97z" />
<glyph unicode="&#x138;" horiz-adv-x="1121" d="M151 0v1059h192v-447h82l380 447h227l2 -4l-442 -503l473 -548l-2 -4h-234l-387 450h-99v-450h-192z" />
<glyph unicode="&#x139;" horiz-adv-x="1103" d="M167 0v1427h193v-1276h695v-151h-888zM172 1503l181 262h227l2 -7l-265 -255h-145z" />
<glyph unicode="&#x13a;" horiz-adv-x="505" d="M157 0v1530h192v-1530h-192zM164 1575l181 262h227l2 -7l-265 -255h-145z" />
<glyph unicode="&#x13b;" horiz-adv-x="1103" d="M167 0v1427h193v-1276h695v-151h-888zM462 -465l61 241v128h154v-139l-118 -230h-97z" />
<glyph unicode="&#x13c;" horiz-adv-x="505" d="M106 -465l61 241v128h154v-139l-118 -230h-97zM157 0v1530h192v-1530h-192z" />
<glyph unicode="&#x13d;" horiz-adv-x="1103" d="M167 0v1427h193v-1276h695v-151h-888zM560 1060l61 241v128h154v-139l-118 -230h-97z" />
<glyph unicode="&#x13e;" horiz-adv-x="505" d="M157 0v1530h192v-1530h-192zM456 1161l61 241v128h154v-139l-118 -230h-97z" />
<glyph unicode="&#x13f;" horiz-adv-x="1103" d="M167 0v1427h193v-1276h695v-151h-888zM592 674v197h214v-197h-214z" />
<glyph unicode="&#x140;" horiz-adv-x="505" d="M157 0v1530h192v-1530h-192zM392 656v197h214v-197h-214z" />
<glyph unicode="&#x141;" horiz-adv-x="1055" d="M40 564v162l121 38v663h192v-600l263 84v-162l-263 -85v-513h695v-151h-887v602z" />
<glyph unicode="&#x142;" horiz-adv-x="545" d="M36 566v162l138 53v749h195v-675l146 56v-160l-146 -58v-693h-195v620z" />
<glyph unicode="&#x143;" horiz-adv-x="1412" d="M167 0v1427h193l686 -1090l6 2v1088h195v-1427h-195l-686 1090l-6 -2v-1088h-193zM616 1563l181 262h227l2 -7l-265 -255h-145z" />
<glyph unicode="&#x144;" d="M140 0v1059h173l14 -155q52 84 131.5 130t181.5 46q172 0 267 -99.5t95 -312.5v-668h-195v666q0 141 -54 199t-169 58q-90 0 -152.5 -36t-98.5 -100v-787h-193zM477 1249l181 262h227l2 -7l-265 -255h-145z" />
<glyph unicode="&#x145;" horiz-adv-x="1412" d="M167 0v1427h193l686 -1090l6 2v1088h195v-1427h-195l-686 1090l-6 -2v-1088h-193zM558 -465l61 241v128h154v-139l-118 -230h-97z" />
<glyph unicode="&#x146;" d="M140 0v1059h173l14 -155q52 84 131.5 130t181.5 46q172 0 267 -99.5t95 -312.5v-668h-195v666q0 141 -54 199t-169 58q-90 0 -152.5 -36t-98.5 -100v-787h-193zM421 -465l61 241v128h154v-139l-118 -230h-97z" />
<glyph unicode="&#x147;" horiz-adv-x="1412" d="M167 0v1427h193l686 -1090l6 2v1088h195v-1427h-195l-686 1090l-6 -2v-1088h-193zM395 1808v21h163l145 -147l144 147h167v-19l-253 -241h-117z" />
<glyph unicode="&#x148;" d="M140 0v1059h173l14 -155q52 84 131.5 130t181.5 46q172 0 267 -99.5t95 -312.5v-668h-195v666q0 141 -54 199t-169 58q-90 0 -152.5 -36t-98.5 -100v-787h-193zM258 1493v21h163l145 -147l144 147h167v-19l-253 -241h-117z" />
<glyph unicode="&#x149;" d="M-32 1161l61 241v128h154v-139l-118 -230h-97zM140 0v1059h173l14 -155q52 84 131.5 130t181.5 46q172 0 267 -99.5t95 -312.5v-668h-195v666q0 141 -54 199t-169 58q-90 0 -152.5 -36t-98.5 -100v-787h-193z" />
<glyph unicode="&#x14a;" horiz-adv-x="1386" d="M159 0v1427h192l687 -1090l6 2v1088h193v-1513q0 -165 -84.5 -253t-235.5 -88q-30 0 -56 4t-54 11l14 149q6 -2 19 -4.5t28 -5t29 -3.5t20 -1q58 0 92.5 50.5t34.5 140.5v86l-686 1090l-7 -2v-1088h-192z" />
<glyph unicode="&#x14b;" d="M140 0v1059h173l12 -146q52 81 130.5 124t178.5 43q171 0 265.5 -99.5t94.5 -312.5v-754q0 -165 -84.5 -253t-237.5 -88q-30 0 -55 4t-53 11l14 159q4 -2 17.5 -4t28 -4t28.5 -3t20 -1q60 0 93.5 45.5t33.5 133.5v752q0 141 -55.5 199t-169.5 58q-84 0 -143.5 -32 t-97.5 -90v-801h-193z" />
<glyph unicode="&#x14c;" horiz-adv-x="1368" d="M111 586v253q0 128 41 239.5t114 192.5t176.5 128.5t229.5 47.5q129 0 237 -46.5t184.5 -127t119.5 -192.5t43 -242v-253q0 -130 -43 -240.5t-119.5 -191.5t-184.5 -127.5t-237 -46.5q-124 0 -227.5 46.5t-177.5 127.5t-115 191.5t-41 240.5zM303 586q0 -100 27.5 -182.5 t75.5 -141.5t116 -92.5t150 -33.5q90 0 163.5 34.5t123.5 94.5t77 142.5t27 178.5v255q0 96 -27 177.5t-77 141.5t-123.5 94.5t-163.5 34.5q-84 0 -152 -34.5t-116.5 -93.5t-74.5 -141.5t-26 -178.5v-255zM336 1628v142h706v-142h-706z" />
<glyph unicode="&#x14d;" d="M94 517v23q0 117 33.5 215t94.5 170.5t148.5 113.5t197.5 41q109 0 197 -40t150 -111.5t96.5 -170.5t34.5 -218v-23q0 -116 -32.5 -214t-94.5 -170.5t-150.5 -112.5t-198.5 -40q-112 0 -199.5 40t-149.5 112.5t-94.5 171t-32.5 213.5zM223 1293v142h706v-142h-706z M289 517q0 -84 18 -155t53 -122t87.5 -80.5t122.5 -29.5q69 0 122 29.5t87.5 80.5t53 122t18.5 155v23q0 82 -18.5 152t-53 122.5t-88 82.5t-123.5 30t-122.5 -29t-86.5 -81.5t-52 -123.5t-18 -153v-23z" />
<glyph unicode="&#x14e;" horiz-adv-x="1368" d="M111 586v253q0 128 41 239.5t114 192.5t176.5 128.5t229.5 47.5q129 0 237 -46.5t184.5 -127t119.5 -192.5t43 -242v-253q0 -130 -43 -240.5t-119.5 -191.5t-184.5 -127.5t-237 -46.5q-124 0 -227.5 46.5t-177.5 127.5t-115 191.5t-41 240.5zM303 586q0 -100 27.5 -182.5 t75.5 -141.5t116 -92.5t150 -33.5q90 0 163.5 34.5t123.5 94.5t77 142.5t27 178.5v255q0 96 -27 177.5t-77 141.5t-123.5 94.5t-163.5 34.5q-84 0 -152 -34.5t-116.5 -93.5t-74.5 -141.5t-26 -178.5v-255zM395 1846l2 6h149q0 -65 33 -104.5t105 -39.5q71 0 106 40t35 104 h149l1 -6q0 -115 -76 -186t-215 -71q-134 0 -211.5 71t-77.5 186z" />
<glyph unicode="&#x14f;" d="M94 517v23q0 117 33.5 215t94.5 170.5t148.5 113.5t197.5 41q109 0 197 -40t150 -111.5t96.5 -170.5t34.5 -218v-23q0 -116 -32.5 -214t-94.5 -170.5t-150.5 -112.5t-198.5 -40q-112 0 -199.5 40t-149.5 112.5t-94.5 171t-32.5 213.5zM281 1511l2 6h149q0 -65 33 -104.5 t105 -39.5q71 0 106 40t35 104h149l1 -6q0 -115 -76 -186t-215 -71q-134 0 -211.5 71t-77.5 186zM289 517q0 -84 18 -155t53 -122t87.5 -80.5t122.5 -29.5q69 0 122 29.5t87.5 80.5t53 122t18.5 155v23q0 82 -18.5 152t-53 122.5t-88 82.5t-123.5 30t-122.5 -29t-86.5 -81.5 t-52 -123.5t-18 -153v-23z" />
<glyph unicode="&#x150;" horiz-adv-x="1368" d="M111 586v253q0 128 41 239.5t114 192.5t176.5 128.5t229.5 47.5q129 0 237 -46.5t184.5 -127t119.5 -192.5t43 -242v-253q0 -130 -43 -240.5t-119.5 -191.5t-184.5 -127.5t-237 -46.5q-124 0 -227.5 46.5t-177.5 127.5t-115 191.5t-41 240.5zM303 586q0 -100 27.5 -182.5 t75.5 -141.5t116 -92.5t150 -33.5q90 0 163.5 34.5t123.5 94.5t77 142.5t27 178.5v255q0 96 -27 177.5t-77 141.5t-123.5 94.5t-163.5 34.5q-84 0 -152 -34.5t-116.5 -93.5t-74.5 -141.5t-26 -178.5v-255zM453 1590l181 262h207l2 -5l-237 -257h-153zM717 1596l236 256h225 l2 -7l-293 -255h-168z" />
<glyph unicode="&#x151;" d="M94 517v23q0 117 33.5 215t94.5 170.5t148.5 113.5t197.5 41q109 0 197 -40t150 -111.5t96.5 -170.5t34.5 -218v-23q0 -116 -32.5 -214t-94.5 -170.5t-150.5 -112.5t-198.5 -40q-112 0 -199.5 40t-149.5 112.5t-94.5 171t-32.5 213.5zM289 517q0 -84 18 -155t53 -122 t87.5 -80.5t122.5 -29.5q69 0 122 29.5t87.5 80.5t53 122t18.5 155v23q0 82 -18.5 152t-53 122.5t-88 82.5t-123.5 30t-122.5 -29t-86.5 -81.5t-52 -123.5t-18 -153v-23zM339 1252l181 262h207l2 -5l-237 -257h-153zM603 1258l236 256h225l2 -7l-293 -255h-168z" />
<glyph unicode="&#x152;" horiz-adv-x="1919" d="M102 564v299q0 129 39 236t111.5 184.5t173 120.5t223.5 43q68 0 138 -5t146 -15h823v-153h-676v-462h586v-150h-586v-511h686v-151h-833q-90 -10 -152.5 -15t-129.5 -5q-121 0 -222.5 42.5t-174 119.5t-112.5 184t-40 238zM295 564q0 -213 95.5 -323.5t260.5 -110.5 q122 0 236 19v1128q-60 10 -120 15t-118 5q-165 0 -259.5 -112.5t-94.5 -319.5v-301z" />
<glyph unicode="&#x153;" horiz-adv-x="1815" d="M94 517v23q0 117 33.5 215t94.5 170.5t148.5 113.5t197.5 41q127 0 224 -52.5t162 -148.5q61 96 155.5 148.5t202.5 52.5q109 0 189.5 -35.5t132.5 -99.5t78.5 -152t26.5 -197v-102h-680l-2 -4q0 -78 17.5 -144.5t52.5 -115t88 -74.5t128 -26q98 0 172.5 27t126.5 78 l76 -124q-58 -56 -150.5 -93.5t-224.5 -37.5q-133 0 -232.5 49t-160.5 143q-62 -92 -158.5 -142t-221.5 -50q-112 0 -199.5 40t-149.5 112.5t-94.5 171t-32.5 213.5zM289 517q0 -84 18 -155t53 -122t87.5 -80.5t122.5 -29.5q69 0 122 29.5t87.5 80.5t53 122t18.5 155v23 q0 82 -18.5 152t-53 122.5t-88 82.5t-123.5 30t-122.5 -29t-86.5 -81.5t-52 -123.5t-18 -153v-23zM1065 651l3 -5h477v16q0 56 -13 104t-42 84.5t-73.5 56.5t-104.5 20q-100 0 -165 -78.5t-82 -197.5z" />
<glyph unicode="&#x154;" horiz-adv-x="1275" d="M167 0v1425h488q237 0 359 -102.5t122 -303.5q0 -109 -57.5 -190.5t-167.5 -127.5q119 -40 170 -125.5t51 -211.5v-136q0 -66 15 -118t52 -86v-24h-199q-41 32 -51 96.5t-10 134.5v131q0 114 -67 185t-181 71h-331v-618h-193zM360 770h274q165 0 237.5 62.5t72.5 188.5 q0 121 -70.5 187t-218.5 66h-295v-504zM509 1563l181 262h227l2 -7l-265 -255h-145z" />
<glyph unicode="&#x155;" horiz-adv-x="701" d="M140 0v1059h173l18 -153q46 84 111.5 129t151.5 45q22 0 42.5 -3t31.5 -7l-26 -181l-98 6q-77 0 -129.5 -36t-81.5 -102v-757h-193zM317 1249l181 262h227l2 -7l-265 -255h-145z" />
<glyph unicode="&#x156;" horiz-adv-x="1275" d="M167 0v1425h488q237 0 359 -102.5t122 -303.5q0 -109 -57.5 -190.5t-167.5 -127.5q119 -40 170 -125.5t51 -211.5v-136q0 -66 15 -118t52 -86v-24h-199q-41 32 -51 96.5t-10 134.5v131q0 114 -67 185t-181 71h-331v-618h-193zM360 770h274q165 0 237.5 62.5t72.5 188.5 q0 121 -70.5 187t-218.5 66h-295v-504zM451 -465l61 241v128h154v-139l-118 -230h-97z" />
<glyph unicode="&#x157;" horiz-adv-x="701" d="M104 -465l61 241v128h154v-139l-118 -230h-97zM140 0v1059h173l18 -153q46 84 111.5 129t151.5 45q22 0 42.5 -3t31.5 -7l-26 -181l-98 6q-77 0 -129.5 -36t-81.5 -102v-757h-193z" />
<glyph unicode="&#x158;" horiz-adv-x="1275" d="M167 0v1425h488q237 0 359 -102.5t122 -303.5q0 -109 -57.5 -190.5t-167.5 -127.5q119 -40 170 -125.5t51 -211.5v-136q0 -66 15 -118t52 -86v-24h-199q-41 32 -51 96.5t-10 134.5v131q0 114 -67 185t-181 71h-331v-618h-193zM289 1808v21h163l145 -147l144 147h167v-19 l-253 -241h-117zM360 770h274q165 0 237.5 62.5t72.5 188.5q0 121 -70.5 187t-218.5 66h-295v-504z" />
<glyph unicode="&#x159;" horiz-adv-x="701" d="M96 1493v21h163l145 -147l144 147h167v-19l-253 -241h-117zM140 0v1059h173l18 -153q46 84 111.5 129t151.5 45q22 0 42.5 -3t31.5 -7l-26 -181l-98 6q-77 0 -129.5 -36t-81.5 -102v-757h-193z" />
<glyph unicode="&#x15a;" horiz-adv-x="1225" d="M113 406l2 6h182q0 -71 29 -123t75.5 -87t106.5 -53.5t122 -18.5q136 0 216.5 60.5t80.5 169.5q0 96 -69 162t-246 112q-218 54 -339.5 158.5t-121.5 262.5q0 83 34 154.5t96 124.5t149 83t194 30q113 0 203 -35t153.5 -94.5t97.5 -136t34 -160.5l-2 -6h-185 q0 58 -22 109.5t-62 89.5t-95 60.5t-122 22.5q-138 0 -209.5 -67.5t-71.5 -170.5q0 -96 79.5 -157t255.5 -107q217 -58 329.5 -166t112.5 -267q0 -85 -35 -155.5t-100.5 -120.5t-155.5 -78t-199 -28q-102 0 -195.5 29t-164.5 83.5t-114 133.5t-43 180zM523 1586l181 262h227 l2 -7l-265 -255h-145z" />
<glyph unicode="&#x15b;" horiz-adv-x="1049" d="M107 323l2 6h184q2 -52 22 -90t54.5 -62t77.5 -35.5t91 -11.5q102 0 160.5 43.5t58.5 111.5q0 65 -49 104.5t-184 70.5q-189 40 -288.5 112t-99.5 194q0 62 29.5 120t81.5 101t124.5 68t160.5 25q90 0 163 -26t126.5 -70.5t81.5 -104.5t28 -126l-2 -4h-184q0 32 -16.5 64 t-44 58t-67 41t-85.5 15q-102 0 -152.5 -45t-50.5 -110q0 -30 8 -52.5t32 -41.5t68.5 -35.5t114.5 -30.5q197 -40 297.5 -116.5t100.5 -196.5q0 -71 -30.5 -129.5t-84.5 -101t-130.5 -65.5t-166.5 -23q-104 0 -184.5 28t-135.5 75t-83 109.5t-28 130.5zM435 1249l181 262 h227l2 -7l-265 -255h-145z" />
<glyph unicode="&#x15c;" horiz-adv-x="1225" d="M113 406l2 6h182q0 -71 29 -123t75.5 -87t106.5 -53.5t122 -18.5q136 0 216.5 60.5t80.5 169.5q0 96 -69 162t-246 112q-218 54 -339.5 158.5t-121.5 262.5q0 83 34 154.5t96 124.5t149 83t194 30q113 0 203 -35t153.5 -94.5t97.5 -136t34 -160.5l-2 -6h-185 q0 58 -22 109.5t-62 89.5t-95 60.5t-122 22.5q-138 0 -209.5 -67.5t-71.5 -170.5q0 -96 79.5 -157t255.5 -107q217 -58 329.5 -166t112.5 -267q0 -85 -35 -155.5t-100.5 -120.5t-155.5 -78t-199 -28q-102 0 -195.5 29t-164.5 83.5t-114 133.5t-43 180zM311 1590v26l243 234 h116l242 -234v-26h-156l-145 147l-142 -147h-158z" />
<glyph unicode="&#x15d;" horiz-adv-x="1049" d="M107 323l2 6h184q2 -52 22 -90t54.5 -62t77.5 -35.5t91 -11.5q102 0 160.5 43.5t58.5 111.5q0 65 -49 104.5t-184 70.5q-189 40 -288.5 112t-99.5 194q0 62 29.5 120t81.5 101t124.5 68t160.5 25q90 0 163 -26t126.5 -70.5t81.5 -104.5t28 -126l-2 -4h-184q0 32 -16.5 64 t-44 58t-67 41t-85.5 15q-102 0 -152.5 -45t-50.5 -110q0 -30 8 -52.5t32 -41.5t68.5 -35.5t114.5 -30.5q197 -40 297.5 -116.5t100.5 -196.5q0 -71 -30.5 -129.5t-84.5 -101t-130.5 -65.5t-166.5 -23q-104 0 -184.5 28t-135.5 75t-83 109.5t-28 130.5zM223 1252v26l243 234 h116l242 -234v-26h-156l-145 147l-142 -147h-158z" />
<glyph unicode="&#x15e;" horiz-adv-x="1225" d="M113 406l2 6h182q0 -71 29 -123t75.5 -87t106.5 -53.5t122 -18.5q136 0 216.5 60.5t80.5 169.5q0 96 -69 162t-246 112q-218 54 -339.5 158.5t-121.5 262.5q0 83 34 154.5t96 124.5t149 83t194 30q113 0 203 -35t153.5 -94.5t97.5 -136t34 -160.5l-2 -6h-185 q0 58 -22 109.5t-62 89.5t-95 60.5t-122 22.5q-138 0 -209.5 -67.5t-71.5 -170.5q0 -96 79.5 -157t255.5 -107q217 -58 329.5 -166t112.5 -267q0 -85 -35 -155.5t-100.5 -120.5t-155.5 -78t-199 -28q-102 0 -195.5 29t-164.5 83.5t-114 133.5t-43 180zM519 -327 q70 0 113 24.5t43 72.5q0 46 -35 65t-119 25l30 132h138l-12 -50q65 -12 105.5 -52t40.5 -118q0 -95 -76 -150t-221 -55z" />
<glyph unicode="&#x15f;" horiz-adv-x="1049" d="M107 323l2 6h184q2 -52 22 -90t54.5 -62t77.5 -35.5t91 -11.5q102 0 160.5 43.5t58.5 111.5q0 65 -49 104.5t-184 70.5q-189 40 -288.5 112t-99.5 194q0 62 29.5 120t81.5 101t124.5 68t160.5 25q90 0 163 -26t126.5 -70.5t81.5 -104.5t28 -126l-2 -4h-184q0 32 -16.5 64 t-44 58t-67 41t-85.5 15q-102 0 -152.5 -45t-50.5 -110q0 -30 8 -52.5t32 -41.5t68.5 -35.5t114.5 -30.5q197 -40 297.5 -116.5t100.5 -196.5q0 -71 -30.5 -129.5t-84.5 -101t-130.5 -65.5t-166.5 -23q-104 0 -184.5 28t-135.5 75t-83 109.5t-28 130.5zM430 -327 q70 0 113 24.5t43 72.5q0 46 -35 65t-119 25l30 132h138l-12 -50q65 -12 105.5 -52t40.5 -118q0 -95 -76 -150t-221 -55z" />
<glyph unicode="&#x160;" horiz-adv-x="1225" d="M113 406l2 6h182q0 -71 29 -123t75.5 -87t106.5 -53.5t122 -18.5q136 0 216.5 60.5t80.5 169.5q0 96 -69 162t-246 112q-218 54 -339.5 158.5t-121.5 262.5q0 83 34 154.5t96 124.5t149 83t194 30q113 0 203 -35t153.5 -94.5t97.5 -136t34 -160.5l-2 -6h-185 q0 58 -22 109.5t-62 89.5t-95 60.5t-122 22.5q-138 0 -209.5 -67.5t-71.5 -170.5q0 -96 79.5 -157t255.5 -107q217 -58 329.5 -166t112.5 -267q0 -85 -35 -155.5t-100.5 -120.5t-155.5 -78t-199 -28q-102 0 -195.5 29t-164.5 83.5t-114 133.5t-43 180zM303 1829v21h163 l145 -147l144 147h167v-19l-253 -241h-117z" />
<glyph unicode="&#x161;" horiz-adv-x="1049" d="M107 323l2 6h184q2 -52 22 -90t54.5 -62t77.5 -35.5t91 -11.5q102 0 160.5 43.5t58.5 111.5q0 65 -49 104.5t-184 70.5q-189 40 -288.5 112t-99.5 194q0 62 29.5 120t81.5 101t124.5 68t160.5 25q90 0 163 -26t126.5 -70.5t81.5 -104.5t28 -126l-2 -4h-184q0 32 -16.5 64 t-44 58t-67 41t-85.5 15q-102 0 -152.5 -45t-50.5 -110q0 -30 8 -52.5t32 -41.5t68.5 -35.5t114.5 -30.5q197 -40 297.5 -116.5t100.5 -196.5q0 -71 -30.5 -129.5t-84.5 -101t-130.5 -65.5t-166.5 -23q-104 0 -184.5 28t-135.5 75t-83 109.5t-28 130.5zM216 1493v21h163 l145 -147l144 147h167v-19l-253 -241h-117z" />
<glyph unicode="&#x162;" horiz-adv-x="1199" d="M36 1274v153h1128v-153h-469v-1274h-193v1274h-466zM456 -465l61 241v128h154v-139l-118 -230h-97z" />
<glyph unicode="&#x163;" horiz-adv-x="676" d="M46 917v142h169v257h195v-257h201v-142h-201v-644q0 -74 29.5 -104.5t81.5 -30.5q39 0 71 15l28 -133q-22 -18 -64 -29t-85 -11q-118 0 -187 70.5t-69 222.5v644h-169zM315 -475l61 241v128h154v-139l-118 -230h-97z" />
<glyph unicode="&#x164;" horiz-adv-x="1199" d="M36 1274v153h1128v-153h-469v-1274h-193v1274h-466zM293 1806v21h163l145 -147l144 147h167v-19l-253 -241h-117z" />
<glyph unicode="&#x165;" horiz-adv-x="676" d="M46 917v142h169v257h195v-257h201v-142h-201v-644q0 -74 29.5 -104.5t81.5 -30.5q39 0 71 15l28 -133q-22 -18 -64 -29t-85 -11q-118 0 -187 70.5t-69 222.5v644h-169zM546 1186l61 241v128h154v-139l-118 -230h-97z" />
<glyph unicode="&#x166;" horiz-adv-x="1199" d="M36 1274v153h1128v-153h-469v-318h214v-153h-214v-803h-193v803h-221v153h221v318h-466z" />
<glyph unicode="&#x167;" horiz-adv-x="676" d="M6 588v153h209v176h-169v142h169v257h195v-257h201v-142h-201v-176h224v-153h-224v-315q0 -74 29.5 -104.5t81.5 -30.5q39 0 71 15l28 -133q-22 -18 -64 -29t-85 -11q-118 0 -187 70.5t-69 222.5v315h-209z" />
<glyph unicode="&#x168;" horiz-adv-x="1358" d="M144 479v948h193v-948q0 -168 94.5 -258.5t240.5 -90.5q79 0 144 24t111 69.5t72.5 110t26.5 145.5v948h192v-948q0 -118 -41 -210.5t-113 -156.5t-172.5 -98t-219.5 -34q-114 0 -211 34t-168 98t-110 157t-39 210zM343 1595q0 45 15.5 86t42.5 72t65 49t82 18 q25 0 61.5 -14t76 -32t75.5 -32t59 -14q40 0 69 32t29 79l105 -33q0 -46 -14.5 -85t-42 -69t-65 -47t-81.5 -17q-35 0 -72 13.5t-73.5 30.5t-69 31.5t-57.5 14.5q-42 0 -70 -31.5t-28 -77.5z" />
<glyph unicode="&#x169;" d="M136 435v624h193v-626q0 -84 12 -141t38.5 -92t64.5 -49.5t92 -14.5q102 0 169 41.5t102 117.5v764h193v-1059h-173l-15 157q-50 -86 -128 -131.5t-180 -45.5q-173 0 -270.5 110.5t-97.5 344.5zM228 1260q0 45 15.5 86t42.5 72t65 49t82 18q25 0 61.5 -14t76 -32 t75.5 -32t59 -14q40 0 69 32t29 79l105 -33q0 -46 -14.5 -85t-42 -69t-65 -47t-81.5 -17q-35 0 -72 13.5t-73.5 30.5t-69 31.5t-57.5 14.5q-42 0 -70 -31.5t-28 -77.5z" />
<glyph unicode="&#x16a;" horiz-adv-x="1358" d="M144 479v948h193v-948q0 -168 94.5 -258.5t240.5 -90.5q79 0 144 24t111 69.5t72.5 110t26.5 145.5v948h192v-948q0 -118 -41 -210.5t-113 -156.5t-172.5 -98t-219.5 -34q-114 0 -211 34t-168 98t-110 157t-39 210zM336 1608v142h706v-142h-706z" />
<glyph unicode="&#x16b;" d="M136 435v624h193v-626q0 -84 12 -141t38.5 -92t64.5 -49.5t92 -14.5q102 0 169 41.5t102 117.5v764h193v-1059h-173l-15 157q-50 -86 -128 -131.5t-180 -45.5q-173 0 -270.5 110.5t-97.5 344.5zM221 1273v142h706v-142h-706z" />
<glyph unicode="&#x16c;" horiz-adv-x="1358" d="M144 479v948h193v-948q0 -168 94.5 -258.5t240.5 -90.5q79 0 144 24t111 69.5t72.5 110t26.5 145.5v948h192v-948q0 -118 -41 -210.5t-113 -156.5t-172.5 -98t-219.5 -34q-114 0 -211 34t-168 98t-110 157t-39 210zM393 1827l2 6h149q0 -65 33 -104.5t105 -39.5 q71 0 106 40t35 104h149l1 -6q0 -115 -76 -186t-215 -71q-134 0 -211.5 71t-77.5 186z" />
<glyph unicode="&#x16d;" d="M136 435v624h193v-626q0 -84 12 -141t38.5 -92t64.5 -49.5t92 -14.5q102 0 169 41.5t102 117.5v764h193v-1059h-173l-15 157q-50 -86 -128 -131.5t-180 -45.5q-173 0 -270.5 110.5t-97.5 344.5zM279 1492l2 6h149q0 -65 33 -104.5t105 -39.5q71 0 106 40t35 104h149l1 -6 q0 -115 -76 -186t-215 -71q-134 0 -211.5 71t-77.5 186z" />
<glyph unicode="&#x16e;" horiz-adv-x="1358" d="M144 479v948h193v-948q0 -168 94.5 -258.5t240.5 -90.5q79 0 144 24t111 69.5t72.5 110t26.5 145.5v948h192v-948q0 -118 -41 -210.5t-113 -156.5t-172.5 -98t-219.5 -34q-114 0 -211 34t-168 98t-110 157t-39 210zM510 1700q0 74 52 119t120 45q69 0 119 -47.5 t50 -116.5q0 -71 -49 -116t-120 -45q-72 0 -122 42t-50 119zM606 1700q0 -31 22 -52t54 -21q29 0 50 20t21 53q0 32 -21 52.5t-50 20.5q-32 0 -54 -20.5t-22 -52.5z" />
<glyph unicode="&#x16f;" d="M136 435v624h193v-626q0 -84 12 -141t38.5 -92t64.5 -49.5t92 -14.5q102 0 169 41.5t102 117.5v764h193v-1059h-173l-15 157q-50 -86 -128 -131.5t-180 -45.5q-173 0 -270.5 110.5t-97.5 344.5zM396 1365q0 74 52 119t120 45q69 0 119 -47.5t50 -116.5q0 -71 -49 -116 t-120 -45q-72 0 -122 42t-50 119zM492 1365q0 -31 22 -52t54 -21q29 0 50 20t21 53q0 32 -21 52.5t-50 20.5q-32 0 -54 -20.5t-22 -52.5z" />
<glyph unicode="&#x170;" horiz-adv-x="1358" d="M144 479v948h193v-948q0 -168 94.5 -258.5t240.5 -90.5q79 0 144 24t111 69.5t72.5 110t26.5 145.5v948h192v-948q0 -118 -41 -210.5t-113 -156.5t-172.5 -98t-219.5 -34q-114 0 -211 34t-168 98t-110 157t-39 210zM451 1567l181 262h207l2 -5l-237 -257h-153zM715 1573 l236 256h225l2 -7l-293 -255h-168z" />
<glyph unicode="&#x171;" d="M136 435v624h193v-626q0 -84 12 -141t38.5 -92t64.5 -49.5t92 -14.5q102 0 169 41.5t102 117.5v764h193v-1059h-173l-15 157q-50 -86 -128 -131.5t-180 -45.5q-173 0 -270.5 110.5t-97.5 344.5zM337 1232l181 262h207l2 -5l-237 -257h-153zM601 1238l236 256h225l2 -7 l-293 -255h-168z" />
<glyph unicode="&#x172;" horiz-adv-x="1358" d="M144 479v948h193v-948q0 -168 94.5 -258.5t240.5 -90.5q79 0 144 24t111 69.5t72.5 110t26.5 145.5v948h192v-948q0 -118 -41 -210.5t-113 -156.5t-172.5 -98t-219.5 -34q-114 0 -211 34t-168 98t-110 157t-39 210zM484 -219q0 79 58.5 149t183.5 126l70 -56 q-68 -52 -106 -98t-38 -99q0 -40 21 -64t73 -24q27 0 49 7.5t47 18.5l33 -120q-35 -20 -78 -32t-101 -12q-90 0 -151 52t-61 152z" />
<glyph unicode="&#x173;" d="M136 435v624h193v-626q0 -84 12 -141t38.5 -92t64.5 -49.5t92 -14.5q102 0 169 41.5t102 117.5v764h193v-1059h-173l-15 157q-50 -86 -128 -131.5t-180 -45.5q-173 0 -270.5 110.5t-97.5 344.5zM661 -219q0 79 58.5 149t183.5 126l70 -56q-68 -52 -106 -98t-38 -99 q0 -40 21 -64t73 -24q27 0 49 7.5t47 18.5l33 -120q-35 -20 -78 -32t-101 -12q-90 0 -151 52t-61 152z" />
<glyph unicode="&#x174;" horiz-adv-x="1727" d="M36 1427h209l209 -931l23 -189h7l31 189l253 931h191l253 -931l35 -193h5l27 193l204 931h208l-344 -1427h-173l-285 990l-20 128h-6l-22 -128l-289 -990h-173zM562 1567v26l243 234h116l242 -234v-26h-156l-145 147l-142 -147h-158z" />
<glyph unicode="&#x175;" horiz-adv-x="1519" d="M44 1059h201l167 -674l23 -134h7l25 134l211 674h157l211 -674l28 -150h6l32 150l156 674h201l-307 -1059h-157l-208 646l-40 168h-6l-39 -168l-204 -646h-157zM458 1232v26l243 234h116l242 -234v-26h-156l-145 147l-142 -147h-158z" />
<glyph unicode="&#x176;" horiz-adv-x="1268" d="M40 1427h219l373 -724l372 724h220l-500 -925v-502h-192v515zM334 1567v26l243 234h116l242 -234v-26h-156l-145 147l-142 -147h-158z" />
<glyph unicode="&#x177;" horiz-adv-x="1009" d="M26 1059h215l223 -666l36 -134h4l260 800h215l-445 -1222q-18 -52 -46 -99t-66.5 -84t-89.5 -59t-115 -22q-23 0 -60.5 5t-56.5 8l21 153h-2q2 0 16 -1t28.5 -1t28 -1t15.5 -1q32 0 57 16t45 41.5t36.5 57t27.5 62.5l46 111zM203 1232v26l243 234h116l242 -234v-26h-156 l-145 147l-142 -147h-158z" />
<glyph unicode="&#x178;" horiz-adv-x="1268" d="M40 1427h219l373 -724l372 724h220l-500 -925v-502h-192v515zM295 1571v197h214v-197h-214zM754 1571v197h215v-197h-215z" />
<glyph unicode="&#x179;" horiz-adv-x="1199" d="M94 0v142l763 1132h-750v153h971v-138l-765 -1138h797v-151h-1016zM507 1563l181 262h227l2 -7l-265 -255h-145z" />
<glyph unicode="&#x17a;" horiz-adv-x="1009" d="M92 0v134l574 773h-568v152h804v-130l-579 -778h612v-151h-843zM425 1228l181 262h227l2 -7l-265 -255h-145z" />
<glyph unicode="&#x17b;" horiz-adv-x="1199" d="M94 0v142l763 1132h-750v153h971v-138l-765 -1138h797v-151h-1016zM490 1571v197h214v-197h-214z" />
<glyph unicode="&#x17c;" horiz-adv-x="1009" d="M92 0v134l574 773h-568v152h804v-130l-579 -778h612v-151h-843zM408 1236v197h214v-197h-214z" />
<glyph unicode="&#x17d;" horiz-adv-x="1199" d="M94 0v142l763 1132h-750v153h971v-138l-765 -1138h797v-151h-1016zM289 1808v21h163l145 -147l144 147h167v-19l-253 -241h-117z" />
<glyph unicode="&#x17e;" horiz-adv-x="1009" d="M92 0v134l574 773h-568v152h804v-130l-579 -778h612v-151h-843zM205 1471v21h163l145 -147l144 147h167v-19l-253 -241h-117z" />
<glyph unicode="&#x17f;" horiz-adv-x="505" d="M157 0v1195q0 170 88 262t249 92q32 0 66 -4.5t74 -14.5l-23 -143q-20 4 -41.5 6.5t-45.5 2.5q-86 0 -130.5 -52.5t-44.5 -148.5v-1195h-192z" />
<glyph unicode="&#x192;" horiz-adv-x="687" d="M-23 -412l15 149q10 -4 44.5 -9t49.5 -5q58 0 91.5 50.5t33.5 140.5v1003h-165v142h165v136q0 170 88 262t249 92q34 0 67.5 -4.5t75.5 -14.5l-25 -149q-40 10 -94 10q-166 0 -166 -196v-136h190v-142h-190v-1003q0 -165 -84.5 -253t-235.5 -88q-32 0 -57 4t-52 11z" />
<glyph unicode="&#x1a0;" horiz-adv-x="1373" d="M107 586v253q0 130 41 242t115 192.5t177.5 127t227.5 46.5q119 0 219.5 -39t177.5 -111q121 11 183 94.5t62 228.5h195q0 -189 -86 -307t-247 -155q38 -70 59 -150.5t21 -168.5v-253q0 -128 -42 -238.5t-119.5 -192t-184.5 -128.5t-238 -47q-124 0 -226.5 45.5 t-177.5 126.5t-116 191.5t-41 242.5zM299 586q0 -100 26 -182.5t74.5 -141.5t116.5 -92.5t152 -33.5q92 0 165 33.5t122.5 93.5t75.5 142.5t26 180.5v255q0 96 -26.5 178.5t-77.5 142.5t-122.5 93.5t-162.5 33.5q-86 0 -154 -34.5t-116.5 -93.5t-73.5 -141.5t-25 -178.5 v-255z" />
<glyph unicode="&#x1a1;" horiz-adv-x="1151" d="M94 517v23q0 117 33.5 215t94.5 170.5t148.5 113.5t197.5 41q102 0 184.5 -34.5t144.5 -95.5q80 17 119 81.5t39 167.5h175q0 -141 -65 -232.5t-192 -123.5q34 -65 53.5 -142t19.5 -161v-23q0 -116 -32.5 -214t-94.5 -170.5t-150.5 -112.5t-198.5 -40q-112 0 -199.5 40 t-149.5 112.5t-94.5 171t-32.5 213.5zM289 517q0 -84 18 -155t53 -122t87.5 -80.5t122.5 -29.5q69 0 122 29.5t87.5 80.5t53 122t18.5 155v23q0 82 -18.5 152t-53 122.5t-88 82.5t-123.5 30t-122.5 -29t-86.5 -81.5t-52 -123.5t-18 -153v-23z" />
<glyph unicode="&#x1af;" horiz-adv-x="1400" d="M144 479v948h193v-948q0 -168 94.5 -258.5t240.5 -90.5q79 0 144 24t111 69.5t72.5 110t26.5 145.5v948h192v-175l6 -2q86 29 130 107t44 202h188l4 -6q0 -189 -94.5 -307t-277.5 -152v-615q0 -118 -41 -210.5t-113 -156.5t-172.5 -98t-219.5 -34q-114 0 -211 34t-168 98 t-110 157t-39 210z" />
<glyph unicode="&#x1b0;" horiz-adv-x="1179" d="M136 435v624h193v-626q0 -84 12 -141t38.5 -92t64.5 -49.5t92 -14.5q102 0 169 41.5t102 117.5v764h193v-109l5 -2q98 6 139.5 68t41.5 186h166l2 -5q0 -175 -83 -268.5t-271 -107.5v-821h-173l-15 157q-50 -86 -128 -131.5t-180 -45.5q-173 0 -270.5 110.5t-97.5 344.5z " />
<glyph unicode="&#x1f0;" horiz-adv-x="511" d="M-67 -412l15 149q4 -2 16 -4.5t27 -5t29 -3.5t22 -1q58 0 91.5 50.5t33.5 140.5v1145h195v-1145q0 -165 -84.5 -253t-235.5 -88q-30 0 -55 4t-54 11zM-42 1453v21h163l145 -147l144 147h167v-19l-253 -241h-117z" />
<glyph unicode="&#x1fa;" horiz-adv-x="1268" d="M42 0l514 1427h166l504 -1427h-196l-126 368h-536l-129 -368h-197zM421 530h428l-209 612h-6zM469 1649q0 71 49 117t121 46q71 0 119 -46t48 -117q0 -72 -48.5 -116.5t-118.5 -44.5q-72 0 -121 45t-49 116zM555 1649q0 -34 25 -58t59 -24q35 0 59 23t24 59t-24 61 t-59 25q-34 0 -59 -25t-25 -61zM593 1860l140 183h197l2 -6l-212 -177h-127z" />
<glyph unicode="&#x1fb;" horiz-adv-x="1103" d="M104 297q0 76 32.5 136.5t91.5 102.5t143.5 64t188.5 22h210v104q0 94 -56.5 147.5t-161.5 53.5q-94 0 -151.5 -47t-57.5 -112l-182 -2l-2 6q0 58 28 114t81 99t127 69t169 26q88 0 161.5 -23t127 -68t82 -112t28.5 -153v-511q0 -56 6 -108.5t23 -104.5h-199 q-10 48 -16.5 84.5t-6.5 74.5q-54 -75 -139 -127t-187 -52q-167 0 -253.5 83.5t-86.5 233.5zM297 293q0 -71 44 -112t130 -41q52 0 100.5 15.5t88 40t68.5 57t42 66.5v173h-216q-58 0 -105 -16t-80.5 -43t-52.5 -63.5t-19 -76.5zM375 1335q0 71 49 117t121 46q71 0 119 -46 t48 -117q0 -72 -48.5 -116.5t-118.5 -44.5q-72 0 -121 45t-49 116zM461 1335q0 -34 25 -58t59 -24q35 0 59 23t24 59t-24 61t-59 25q-34 0 -59 -25t-25 -61zM499 1546l140 183h197l2 -6l-212 -177h-127z" />
<glyph unicode="&#x1fc;" horiz-adv-x="1958" d="M14 0l863 1427h948v-153h-657v-455h578v-153h-551v-515h690v-151h-891v343h-546l-197 -343h-237zM548 517h409v699h37zM863 1563l181 262h227l2 -7l-265 -255h-145z" />
<glyph unicode="&#x1fd;" horiz-adv-x="1753" d="M86 297q0 155 112.5 239t329.5 84h225v87q0 101 -51 160.5t-148 59.5q-102 0 -160.5 -53t-58.5 -129l-184 15l-2 6q0 67 28 124.5t80 99.5t127.5 66t169.5 24q231 0 333 -155q62 75 147.5 115t185.5 40q213 0 324.5 -128.5t111.5 -349.5v-116h-695l-2 -7q2 -76 20.5 -140 t56.5 -110.5t95 -72.5t135 -26q52 0 92 7t75.5 20.5t69 32.5t71.5 45l66 -137q-52 -42 -145 -80t-229 -38q-134 0 -235.5 46.5t-165.5 136.5q-54 -77 -164.5 -130t-267.5 -53q-168 0 -257.5 85.5t-89.5 231.5zM279 293q0 -73 48 -118t144 -45q39 0 79 12.5t77 31.5t70 44 t56 52v212h-223q-58 0 -104.5 -15t-79.5 -41t-50 -60.5t-17 -72.5zM783 1250l181 262h227l2 -7l-265 -255h-145zM963 632l2 -6h498v33q0 120 -58 194t-185 74q-111 0 -179 -82.5t-78 -212.5z" />
<glyph unicode="&#x1fe;" horiz-adv-x="1368" d="M111 586v253q0 128 41 239.5t114 192.5t176.5 128.5t229.5 47.5q92 0 175.5 -24.5t154.5 -70.5l80 136h144l-128 -218q76 -84 117 -194.5t41 -236.5v-253q0 -130 -43 -240.5t-119.5 -191.5t-184.5 -127.5t-237 -46.5q-170 0 -293 78l-88 -150h-147l137 228 q-84 84 -127 199t-43 251zM303 586q0 -84 19 -155t53 -122l6 -2l534 899q-50 41 -111 62t-132 21q-84 0 -152 -34.5t-116.5 -93.5t-74.5 -141.5t-26 -178.5v-255zM466 205q90 -69 206 -69q90 0 163.5 34.5t123.5 94.5t77 142.5t27 178.5v255q0 153 -61 255h-6zM595 1626 l181 262h227l2 -7l-265 -255h-145z" />
<glyph unicode="&#x1ff;" d="M94 517v23q0 117 33.5 215t94.5 170.5t148.5 113.5t197.5 41q111 0 200 -40l73 144h126l-100 -207q87 -72 133 -185.5t46 -251.5v-23q0 -116 -32.5 -214t-94.5 -170.5t-150.5 -112.5t-198.5 -40q-94 0 -181 32l-70 -144h-126l98 201q-96 70 -146.5 186t-50.5 262z M289 517q0 -90 19 -163t60 -119h5l326 660q-60 32 -131 32q-70 0 -122.5 -29t-86.5 -81.5t-52 -123.5t-18 -153v-23zM439 1249l181 262h227l2 -7l-265 -255h-145zM460 153q44 -23 110 -23q69 0 122 29.5t87.5 80.5t53 122t18.5 155v23q0 78 -16 147.5t-48 115.5h-6z" />
<glyph unicode="&#x218;" horiz-adv-x="1225" d="M113 406l2 6h182q0 -71 29 -123t75.5 -87t106.5 -53.5t122 -18.5q136 0 216.5 60.5t80.5 169.5q0 96 -69 162t-246 112q-218 54 -339.5 158.5t-121.5 262.5q0 83 34 154.5t96 124.5t149 83t194 30q113 0 203 -35t153.5 -94.5t97.5 -136t34 -160.5l-2 -6h-185 q0 58 -22 109.5t-62 89.5t-95 60.5t-122 22.5q-138 0 -209.5 -67.5t-71.5 -170.5q0 -96 79.5 -157t255.5 -107q217 -58 329.5 -166t112.5 -267q0 -85 -35 -155.5t-100.5 -120.5t-155.5 -78t-199 -28q-102 0 -195.5 29t-164.5 83.5t-114 133.5t-43 180zM467 -485l61 241v128 h154v-139l-118 -230h-97z" />
<glyph unicode="&#x219;" horiz-adv-x="1049" d="M107 323l2 6h184q2 -52 22 -90t54.5 -62t77.5 -35.5t91 -11.5q102 0 160.5 43.5t58.5 111.5q0 65 -49 104.5t-184 70.5q-189 40 -288.5 112t-99.5 194q0 62 29.5 120t81.5 101t124.5 68t160.5 25q90 0 163 -26t126.5 -70.5t81.5 -104.5t28 -126l-2 -4h-184q0 32 -16.5 64 t-44 58t-67 41t-85.5 15q-102 0 -152.5 -45t-50.5 -110q0 -30 8 -52.5t32 -41.5t68.5 -35.5t114.5 -30.5q197 -40 297.5 -116.5t100.5 -196.5q0 -71 -30.5 -129.5t-84.5 -101t-130.5 -65.5t-166.5 -23q-104 0 -184.5 28t-135.5 75t-83 109.5t-28 130.5zM379 -483l61 241v128 h154v-139l-118 -230h-97z" />
<glyph unicode="&#x237;" horiz-adv-x="511" d="M-67 -412l15 149q4 -2 16 -4.5t27 -5t29 -3.5t22 -1q58 0 91.5 50.5t33.5 140.5v1145h195v-1145q0 -165 -84.5 -253t-235.5 -88q-30 0 -55 4t-54 11z" />
<glyph unicode="&#x2bc;" horiz-adv-x="505" d="M159 900v527h192v-188l-100 -339h-92z" />
<glyph unicode="&#x2c6;" horiz-adv-x="958" d="M167 1226v26l243 234h116l242 -234v-26h-156l-145 147l-142 -147h-158z" />
<glyph unicode="&#x2c7;" horiz-adv-x="902" d="M136 1465v21h163l145 -147l144 147h167v-19l-253 -241h-117z" />
<glyph unicode="&#x2d8;" horiz-adv-x="858" d="M130 1421l2 6h149q0 -65 33 -104.5t105 -39.5q71 0 106 40t35 104h149l1 -6q0 -115 -76 -186t-215 -71q-134 0 -211.5 71t-77.5 186z" />
<glyph unicode="&#x2d9;" horiz-adv-x="543" d="M157 1230v197h214v-197h-214z" />
<glyph unicode="&#x2da;" horiz-adv-x="682" d="M163 1283q0 74 52 119t120 45q69 0 119 -47.5t50 -116.5q0 -71 -49 -116t-120 -45q-72 0 -122 42t-50 119zM259 1283q0 -31 22 -52t54 -21q29 0 50 20t21 53q0 32 -21 52.5t-50 20.5q-32 0 -54 -20.5t-22 -52.5z" />
<glyph unicode="&#x2db;" horiz-adv-x="549" d="M67 -219q0 79 58.5 149t183.5 126l70 -56q-68 -52 -106 -98t-38 -99q0 -40 21 -64t73 -24q27 0 49 7.5t47 18.5l33 -120q-35 -20 -78 -32t-101 -12q-90 0 -151 52t-61 152z" />
<glyph unicode="&#x2dc;" horiz-adv-x="958" d="M132 1250q0 45 15.5 86t42.5 72t65 49t82 18q25 0 61.5 -14t76 -32t75.5 -32t59 -14q40 0 69 32t29 79l105 -33q0 -46 -14.5 -85t-42 -69t-65 -47t-81.5 -17q-35 0 -72 13.5t-73.5 30.5t-69 31.5t-57.5 14.5q-42 0 -70 -31.5t-28 -77.5z" />
<glyph unicode="&#x2dd;" horiz-adv-x="745" d="M98 1226l181 262h207l2 -5l-237 -257h-153zM362 1232l236 256h225l2 -7l-293 -255h-168z" />
<glyph unicode="&#x2f3;" horiz-adv-x="657" d="M178 -228q0 64 45.5 105t109.5 41q60 0 104.5 -42.5t44.5 -103.5q0 -62 -43.5 -102.5t-105.5 -40.5q-64 0 -109.5 39t-45.5 104zM265 -228q0 -27 20 -46t48 -19q27 0 44.5 18t17.5 47q0 28 -17.5 46.5t-44.5 18.5q-28 0 -48 -18.5t-20 -46.5z" />
<glyph unicode="&#x300;" horiz-adv-x="0" d="M-779 1574l3 10h156l119 -346h-107z" />
<glyph unicode="&#x301;" horiz-adv-x="0" d="M-625 1238l124 347h155l1 -9l-181 -338h-99z" />
<glyph unicode="&#x303;" horiz-adv-x="0" d="M-868 1250q0 45 15.5 86t42.5 72t65 49t82 18q25 0 61.5 -14t76 -32t75.5 -32t59 -14q40 0 69 32t29 79l105 -33q0 -46 -14.5 -85t-42 -69t-65 -47t-81.5 -17q-35 0 -72 13.5t-73.5 30.5t-69 31.5t-57.5 14.5q-42 0 -70 -31.5t-28 -77.5z" />
<glyph unicode="&#x309;" horiz-adv-x="0" d="M-664 1515l7 107q144 0 221.5 -51.5t77.5 -135.5q0 -69 -42 -103.5t-106 -44.5v-71h-138v153q75 4 106.5 19t31.5 51q0 40 -43 58t-115 18z" />
<glyph unicode="&#x30f;" horiz-adv-x="0" d="M-961 1481l4 7h224l235 -256l-2 -6h-166zM-624 1483l2 5h208l181 -262h-154z" />
<glyph unicode="&#x323;" horiz-adv-x="0" d="M-695 -134h216v-197h-216v197z" />
<glyph unicode="&#x384;" horiz-adv-x="515" d="M203 1247l28 264h204l-152 -264h-80z" />
<glyph unicode="&#x385;" horiz-adv-x="1023" d="M159 1230v197h192v-197h-192zM437 1439l51 257h213l-125 -257h-139zM657 1230v197h194v-197h-194z" />
<glyph unicode="&#x386;" horiz-adv-x="1268" d="M42 0l514 1427h166l504 -1427h-196l-126 368h-536l-129 -368h-197zM197 1247l28 264h204l-152 -264h-80zM421 530h428l-209 612h-6z" />
<glyph unicode="&#x387;" horiz-adv-x="529" d="M159 612v207h192v-207h-192z" />
<glyph unicode="&#x388;" horiz-adv-x="1107" d="M-124 1249l28 264h204l-152 -264h-80zM167 0v1427h869v-153h-676v-462h586v-150h-586v-511h686v-151h-879z" />
<glyph unicode="&#x389;" horiz-adv-x="1412" d="M-76 1249l28 264h204l-152 -264h-80zM167 0v1427h193v-644h692v644h195v-1427h-195v630h-692v-630h-193z" />
<glyph unicode="&#x38a;" horiz-adv-x="567" d="M-62 1247l28 264h204l-152 -264h-80zM186 0v1427h193v-1427h-193z" />
<glyph unicode="&#x38c;" horiz-adv-x="1368" d="M61 1247l28 264h204l-152 -264h-80zM111 586v253q0 128 41 239.5t114 192.5t176.5 128.5t229.5 47.5q129 0 237 -46.5t184.5 -127t119.5 -192.5t43 -242v-253q0 -130 -43 -240.5t-119.5 -191.5t-184.5 -127.5t-237 -46.5q-124 0 -227.5 46.5t-177.5 127.5t-115 191.5 t-41 240.5zM303 586q0 -100 27.5 -182.5t75.5 -141.5t116 -92.5t150 -33.5q90 0 163.5 34.5t123.5 94.5t77 142.5t27 178.5v255q0 96 -27 177.5t-77 141.5t-123.5 94.5t-163.5 34.5q-84 0 -152 -34.5t-116.5 -93.5t-74.5 -141.5t-26 -178.5v-255z" />
<glyph unicode="&#x38e;" horiz-adv-x="1268" d="M-190 1247l28 264h204l-152 -264h-80zM40 1427h219l373 -724l372 724h220l-500 -925v-502h-192v515z" />
<glyph unicode="&#x38f;" horiz-adv-x="1338" d="M50 1247l28 264h204l-152 -264h-80zM111 709v112q0 138 39 253.5t111 197.5t172.5 128.5t223.5 46.5q120 0 221 -46.5t174.5 -129.5t113.5 -198.5t40 -251.5v-112q0 -81 -18 -161.5t-51.5 -153.5t-80.5 -136t-102 -107h254v-151h-488v157q138 24 214.5 163.5t76.5 388.5 v114q0 231 -95 352.5t-259 121.5q-163 0 -258.5 -121.5t-95.5 -352.5v-114q0 -249 78.5 -390t218.5 -162v-157h-483v151h247q-60 44 -106.5 106t-80 135.5t-50 153.5t-16.5 163z" />
<glyph unicode="&#x390;" horiz-adv-x="657" d="M-50 1157v197h192v-197h-192zM193 273v786h192v-796q0 -73 26 -100t71 -27q50 0 90 27l42 -131q-44 -30 -87 -41t-96 -11q-118 0 -178 68.5t-60 224.5zM228 1366l51 257h213l-125 -257h-139zM448 1157v197h194v-197h-194z" />
<glyph unicode="&#x391;" horiz-adv-x="1268" d="M42 0l514 1427h166l504 -1427h-196l-126 368h-536l-129 -368h-197zM421 530h428l-209 612h-6z" />
<glyph unicode="&#x392;" horiz-adv-x="1275" d="M167 0v1427h465q221 0 348 -95t127 -290q0 -92 -55.5 -165.5t-149.5 -112.5q68 -9 123 -40t95 -79.5t62 -111t22 -129.5q0 -100 -33 -175.5t-95.5 -126t-148.5 -76.5t-194 -26h-566zM360 151h373q132 0 204 65t72 186q0 118 -74 190t-200 76h-375v-517zM360 821h312 q109 0 176 58t67 167q0 114 -72.5 171t-210.5 57h-272v-453z" />
<glyph unicode="&#x393;" horiz-adv-x="1099" d="M161 0v1427h875v-153h-683v-1274h-192z" />
<glyph unicode="&#x394;" horiz-adv-x="1418" d="M30 0l604 1427h165l566 -1427h-1335zM289 151h821l-394 1029h-6z" />
<glyph unicode="&#x395;" horiz-adv-x="1107" d="M167 0v1427h869v-153h-676v-462h586v-150h-586v-511h686v-151h-879z" />
<glyph unicode="&#x396;" horiz-adv-x="1199" d="M94 0v142l763 1132h-750v153h971v-138l-765 -1138h797v-151h-1016z" />
<glyph unicode="&#x397;" horiz-adv-x="1412" d="M167 0v1427h193v-644h692v644h195v-1427h-195v630h-692v-630h-193z" />
<glyph unicode="&#x398;" horiz-adv-x="1368" d="M111 586v253q0 128 41 239.5t114 192.5t176.5 128.5t229.5 47.5q129 0 237 -46.5t184.5 -127t119.5 -192.5t43 -242v-253q0 -130 -43 -240.5t-119.5 -191.5t-184.5 -127.5t-237 -46.5q-124 0 -227.5 46.5t-177.5 127.5t-115 191.5t-41 240.5zM303 586q0 -100 27.5 -182.5 t75.5 -141.5t116 -92.5t150 -33.5q90 0 163.5 34.5t123.5 94.5t77 142.5t27 178.5v255q0 96 -27 177.5t-77 141.5t-123.5 94.5t-163.5 34.5q-84 0 -152 -34.5t-116.5 -93.5t-74.5 -141.5t-26 -178.5v-255zM442 646v151h497v-151h-497z" />
<glyph unicode="&#x399;" horiz-adv-x="567" d="M186 0v1427h193v-1427h-193z" />
<glyph unicode="&#x39a;" horiz-adv-x="1275" d="M167 0v1427h193v-632h106l530 632h216l2 -6l-578 -674l618 -743v-4h-235l-533 644h-126v-644h-193z" />
<glyph unicode="&#x39b;" horiz-adv-x="1318" d="M48 0l524 1427h167l521 -1427h-197l-404 1148h-6l-408 -1148h-197z" />
<glyph unicode="&#x39c;" horiz-adv-x="1743" d="M167 0v1427h252l456 -1160h4l458 1160h239v-1427h-193v1070h-6l-431 -1070h-136l-444 1105l-6 -2v-1103h-193z" />
<glyph unicode="&#x39d;" horiz-adv-x="1412" d="M167 0v1427h193l686 -1090l6 2v1088h195v-1427h-195l-686 1090l-6 -2v-1088h-193z" />
<glyph unicode="&#x39e;" horiz-adv-x="1149" d="M121 0v151h919v-151h-919zM122 1274v153h906v-153h-906zM203 664v153h745v-153h-745z" />
<glyph unicode="&#x39f;" horiz-adv-x="1368" d="M111 586v253q0 128 41 239.5t114 192.5t176.5 128.5t229.5 47.5q129 0 237 -46.5t184.5 -127t119.5 -192.5t43 -242v-253q0 -130 -43 -240.5t-119.5 -191.5t-184.5 -127.5t-237 -46.5q-124 0 -227.5 46.5t-177.5 127.5t-115 191.5t-41 240.5zM303 586q0 -100 27.5 -182.5 t75.5 -141.5t116 -92.5t150 -33.5q90 0 163.5 34.5t123.5 94.5t77 142.5t27 178.5v255q0 96 -27 177.5t-77 141.5t-123.5 94.5t-163.5 34.5q-84 0 -152 -34.5t-116.5 -93.5t-74.5 -141.5t-26 -178.5v-255z" />
<glyph unicode="&#x3a0;" horiz-adv-x="1410" d="M165 0v1427h1082v-1427h-195v1274h-694v-1274h-193z" />
<glyph unicode="&#x3a1;" horiz-adv-x="1275" d="M167 0v1427h545q115 0 204 -31t150.5 -87.5t95 -134.5t33.5 -174t-32.5 -174.5t-94 -135t-151.5 -87.5t-205 -31h-352v-572h-193zM360 722h352q73 0 127 21t90 58.5t54.5 87.5t18.5 109q0 56 -18.5 107t-54.5 88t-90 59t-127 22h-352v-552z" />
<glyph unicode="&#x3a3;" horiz-adv-x="1149" d="M69 0v144l471 568l-471 571v144h957v-153h-717l-2 -4l436 -546v-23l-436 -544l2 -4h765v-153h-1005z" />
<glyph unicode="&#x3a4;" horiz-adv-x="1199" d="M36 1274v153h1128v-153h-469v-1274h-193v1274h-466z" />
<glyph unicode="&#x3a5;" horiz-adv-x="1268" d="M40 1427h219l373 -724l372 724h220l-500 -925v-502h-192v515z" />
<glyph unicode="&#x3a6;" horiz-adv-x="1410" d="M82 707q0 106 40.5 196.5t110.5 156.5t167.5 104t210.5 42v221h192v-223q110 -2 207 -40t168 -104t112 -157t41 -194q0 -107 -40.5 -197.5t-110.5 -157.5t-166.5 -105t-210.5 -40v-209h-192v209q-113 2 -209.5 39t-166.5 102.5t-111.5 156.5t-41.5 200zM273 707 q0 -161 87.5 -250t243.5 -89l7 1v677l-7 2q-159 0 -245 -93.5t-86 -247.5zM803 369l5 -1q159 0 244.5 92t85.5 249q0 154 -86.5 246.5t-243.5 92.5l-5 -2v-677z" />
<glyph unicode="&#x3a7;" horiz-adv-x="1268" d="M65 0l463 718l-454 709h231l331 -556l333 556h235l-453 -709l461 -718h-228l-344 566l-343 -566h-232z" />
<glyph unicode="&#x3a8;" horiz-adv-x="1386" d="M84 867v560h193v-560q0 -166 80 -269.5t215 -122.5h6v952h192v-952l7 -2q144 18 227.5 122t83.5 272v560h193v-560q0 -120 -37.5 -216.5t-103.5 -167.5t-160.5 -114.5t-209.5 -55.5v-313h-192v313q-112 11 -203.5 55t-155.5 115t-99.5 168.5t-35.5 215.5z" />
<glyph unicode="&#x3a9;" horiz-adv-x="1338" d="M111 709v112q0 138 39 253.5t111 197.5t172.5 128.5t223.5 46.5q120 0 221 -46.5t174.5 -129.5t113.5 -198.5t40 -251.5v-112q0 -81 -18 -161.5t-51.5 -153.5t-80.5 -136t-102 -107h254v-151h-488v157q138 24 214.5 163.5t76.5 388.5v114q0 231 -95 352.5t-259 121.5 q-163 0 -258.5 -121.5t-95.5 -352.5v-114q0 -249 78.5 -390t218.5 -162v-157h-483v151h247q-60 44 -106.5 106t-80 135.5t-50 153.5t-16.5 163z" />
<glyph unicode="&#x3aa;" horiz-adv-x="567" d="M-52 1571v197h214v-197h-214zM186 0v1427h193v-1427h-193zM407 1571v197h215v-197h-215z" />
<glyph unicode="&#x3ab;" horiz-adv-x="1268" d="M40 1427h219l373 -724l372 724h220l-500 -925v-502h-192v515zM295 1571v197h214v-197h-214zM754 1571v197h215v-197h-215z" />
<glyph unicode="&#x3ac;" horiz-adv-x="1133" d="M96 490v20q0 126 28.5 231.5t80.5 181t129.5 116.5t177.5 41t175 -35.5t130 -100.5l50 115h114v-789q0 -70 20 -98t54 -28q33 0 50 9l23 -141q-28 -20 -57 -26t-66 -6q-150 0 -195 131q-108 -131 -300 -131q-98 0 -174.5 37t-129.5 104.5t-81.5 161.5t-28.5 207zM289 490 q0 -78 16 -144.5t49 -114t83.5 -74.5t120.5 -27q80 0 135.5 34.5t95.5 98.5v538q-40 57 -96.5 91.5t-132.5 34.5q-71 0 -122 -32t-84 -87t-49 -131.5t-16 -166.5v-20zM569 1253l28 264h204l-152 -264h-80z" />
<glyph unicode="&#x3ad;" horiz-adv-x="1080" d="M96 299q0 180 197 245q-84 34 -131 94.5t-47 131.5q0 149 115 228.5t310 79.5q86 0 163.5 -22t133.5 -62t89 -97.5t33 -126.5l-2 -6h-182q0 35 -19 65t-50.5 52.5t-74.5 35t-91 12.5q-113 0 -173 -47t-60 -112q0 -74 53.5 -115t167.5 -41h205v-147h-205q-237 0 -237 -168 q0 -71 66 -121t183 -50q54 0 100 15.5t80.5 40.5t53.5 59t19 70h180l2 -6q0 -83 -34 -143t-93 -100.5t-138.5 -61t-169.5 -20.5q-98 0 -179.5 22t-140.5 62.5t-91.5 99t-32.5 133.5zM496 1253l28 264h204l-152 -264h-80z" />
<glyph unicode="&#x3ae;" d="M140 0v1059h173l12 -146q52 81 130.5 124t178.5 43q173 0 266.5 -96.5t93.5 -315.5v-1076h-195v1074q0 141 -55.5 201t-169.5 60q-84 0 -143.5 -33t-97.5 -91v-803h-193zM522 1253l28 264h204l-152 -264h-80z" />
<glyph unicode="&#x3af;" horiz-adv-x="657" d="M193 273v786h192v-796q0 -73 26 -100t71 -27q50 0 90 27l42 -131q-44 -30 -87 -41t-96 -11q-118 0 -178 68.5t-60 224.5zM251 1235l28 264h204l-152 -264h-80z" />
<glyph unicode="&#x3b0;" d="M138 462v597h193v-599q0 -171 67.5 -250.5t183.5 -79.5q69 0 119 35.5t81.5 94t48 133t16.5 157.5q-4 124 -36 250.5t-85 258.5h201q52 -106 83.5 -231t31.5 -278q0 -123 -26 -227t-82.5 -180t-141.5 -119.5t-202 -43.5q-219 0 -335.5 117.5t-116.5 364.5zM241 1157v197 h192v-197h-192zM519 1366l51 257h213l-125 -257h-139zM739 1157v197h194v-197h-194z" />
<glyph unicode="&#x3b1;" horiz-adv-x="1133" d="M96 490v20q0 126 28.5 231.5t80.5 181t129.5 116.5t177.5 41t175 -35.5t130 -100.5l50 115h114v-789q0 -70 20 -98t54 -28q33 0 50 9l23 -141q-28 -20 -57 -26t-66 -6q-150 0 -195 131q-108 -131 -300 -131q-98 0 -174.5 37t-129.5 104.5t-81.5 161.5t-28.5 207zM289 490 q0 -78 16 -144.5t49 -114t83.5 -74.5t120.5 -27q80 0 135.5 34.5t95.5 98.5v538q-40 57 -96.5 91.5t-132.5 34.5q-71 0 -122 -32t-84 -87t-49 -131.5t-16 -166.5v-20z" />
<glyph unicode="&#x3b2;" horiz-adv-x="1187" d="M155 -375v1427q0 80 34.5 151t95 125.5t140 86.5t169.5 32q96 0 173.5 -29t133.5 -80t86 -121.5t30 -155.5q0 -90 -49 -164t-133 -118q113 -42 180 -138.5t67 -223.5q0 -101 -32.5 -182.5t-91 -138t-141 -86.5t-183.5 -30q-80 0 -154 21.5t-133 67.5v-444h-192zM347 239 q44 -52 112.5 -80.5t156.5 -28.5q127 0 199 78.5t72 205.5q0 52 -16 101t-46 88t-74 63.5t-100 24.5h-141v152h80q120 0 177.5 59t57.5 163q0 44 -16 87t-46 74.5t-72 51t-97 19.5q-50 0 -94 -18.5t-78.5 -51t-54.5 -77.5t-20 -98v-813z" />
<glyph unicode="&#x3b3;" horiz-adv-x="1009" d="M44 1059h199l251 -746l16 -74h5l21 74l243 746h196l-366 -999v-470h-193v477z" />
<glyph unicode="&#x3b4;" d="M94 517v23q0 102 27.5 193.5t77.5 161.5t122 116t163 63h6l2 6l-291 230v117h718v-148h-446l-2 -7l366 -270q98 -75 153.5 -196.5t55.5 -265.5v-23q0 -116 -32.5 -214t-94.5 -170.5t-150.5 -112.5t-198.5 -40q-112 0 -199.5 40t-149.5 112.5t-94.5 171t-32.5 213.5z M289 517q0 -84 18 -155t53 -122t87.5 -80.5t122.5 -29.5q69 0 122 29.5t87.5 80.5t53 122t18.5 155v23q0 82 -18.5 152t-53 122.5t-87.5 82.5t-124 30q-70 0 -122.5 -29t-86.5 -81.5t-52 -123.5t-18 -153v-23z" />
<glyph unicode="&#x3b5;" horiz-adv-x="1080" d="M96 299q0 180 197 245q-84 34 -131 94.5t-47 131.5q0 149 115 228.5t310 79.5q86 0 163.5 -22t133.5 -62t89 -97.5t33 -126.5l-2 -6h-182q0 35 -19 65t-50.5 52.5t-74.5 35t-91 12.5q-113 0 -173 -47t-60 -112q0 -74 53.5 -115t167.5 -41h205v-147h-205q-237 0 -237 -168 q0 -71 66 -121t183 -50q54 0 100 15.5t80.5 40.5t53.5 59t19 70h180l2 -6q0 -83 -34 -143t-93 -100.5t-138.5 -61t-169.5 -20.5q-98 0 -179.5 22t-140.5 62.5t-91.5 99t-32.5 133.5z" />
<glyph unicode="&#x3b6;" horiz-adv-x="1049" d="M113 1274v153h839v-111l-336 -423q-64 -77 -109 -138.5t-74 -121t-42.5 -120.5t-13.5 -134q0 -228 205 -228h30q157 0 245.5 -61.5t88.5 -187.5q-4 -111 -79.5 -191t-182.5 -127l-80 125q64 28 110 70.5t46 111.5q0 52 -39 80.5t-129 28.5h-50q-88 0 -155.5 28t-113 77.5 t-67.5 118.5t-22 151q0 119 69.5 275.5t208.5 320.5l262 299l-2 4h-609z" />
<glyph unicode="&#x3b7;" d="M140 0v1059h173l12 -146q52 81 130.5 124t178.5 43q173 0 266.5 -96.5t93.5 -315.5v-1076h-195v1074q0 141 -55.5 201t-169.5 60q-84 0 -143.5 -33t-97.5 -91v-803h-193z" />
<glyph unicode="&#x3b8;" horiz-adv-x="1141" d="M117 504v419q0 121 31.5 218.5t91 164.5t143.5 104t187 37q102 0 186.5 -37t144.5 -105t92.5 -164.5t32.5 -217.5v-419q0 -121 -32.5 -217t-91.5 -164.5t-142.5 -105.5t-187.5 -37t-188.5 37t-144 104.5t-91 164.5t-31.5 218zM309 464q0 -155 68.5 -244.5t194.5 -89.5 q127 0 194 90.5t67 243.5v170h-524v-170zM309 787h524v176q0 151 -69 242.5t-194 91.5q-126 0 -193.5 -91.5t-67.5 -242.5v-176z" />
<glyph unicode="&#x3b9;" horiz-adv-x="657" d="M193 273v786h192v-796q0 -73 26 -100t71 -27q50 0 90 27l42 -131q-44 -30 -87 -41t-96 -11q-118 0 -178 68.5t-60 224.5z" />
<glyph unicode="&#x3ba;" horiz-adv-x="1121" d="M151 0v1059h192v-447h82l380 447h227l2 -4l-442 -503l473 -548l-2 -4h-234l-387 450h-99v-450h-192z" />
<glyph unicode="&#x3bb;" d="M54 0l383 1007l-54 144q-32 82 -74 134t-100 52q-4 0 -14.5 -1t-22.5 -3q-13 -2 -30 -2v142q20 4 50 9.5t55 5.5q65 0 115 -22t88 -58.5t66 -85t46 -100.5l353 -927q23 -71 56.5 -111t78.5 -40h18q2 0 9 1.5t19 3.5l-4 -151q-10 -4 -28 -9t-28 -5q-121 0 -189 63.5 t-121 201.5l-196 519l-6 -2l-28 -109l-227 -657h-215z" />
<glyph unicode="&#x3bc;" d="M151 -408v1467h190v-628q2 -90 16 -148.5t41 -92t65.5 -47t86.5 -13.5q96 0 155 35.5t92 103.5v790h193v-1059h-173l-10 107q-87 -127 -249 -127q-142 0 -217 66v-454h-190z" />
<glyph unicode="&#x3bd;" horiz-adv-x="1009" d="M44 1059h199l251 -746l16 -74h5l21 74l243 746h196l-389 -1059h-146z" />
<glyph unicode="&#x3be;" horiz-adv-x="1021" d="M84 1274v153h820v-153h-290q-122 -6 -182.5 -70t-60.5 -158q0 -92 70.5 -143.5t222.5 -51.5h139v-152h-139q-184 0 -279.5 -76.5t-95.5 -227.5q0 -119 78.5 -192t216.5 -73h58q159 0 246 -62t87 -189q-4 -108 -79 -189t-182 -125l-78 124q62 29 109.5 70.5t47.5 112.5 q0 52 -34.5 81t-107.5 29h-67q-109 0 -198 28t-153 81t-100.5 130.5t-36.5 178.5q0 142 77.5 238.5t228.5 140.5q-109 40 -167.5 108.5t-58.5 154.5q0 155 119 232h-211z" />
<glyph unicode="&#x3bf;" d="M94 517v23q0 117 33.5 215t94.5 170.5t148.5 113.5t197.5 41q109 0 197 -40t150 -111.5t96.5 -170.5t34.5 -218v-23q0 -116 -32.5 -214t-94.5 -170.5t-150.5 -112.5t-198.5 -40q-112 0 -199.5 40t-149.5 112.5t-94.5 171t-32.5 213.5zM289 517q0 -84 18 -155t53 -122 t87.5 -80.5t122.5 -29.5q69 0 122 29.5t87.5 80.5t53 122t18.5 155v23q0 82 -18.5 152t-53 122.5t-88 82.5t-123.5 30t-122.5 -29t-86.5 -81.5t-52 -123.5t-18 -153v-23z" />
<glyph unicode="&#x3c0;" horiz-adv-x="1165" d="M78 907v152h1018v-152h-121v-644q0 -73 25.5 -100t71.5 -27q48 0 88 27l44 -131q-46 -30 -89 -41t-96 -11q-116 0 -176 68.5t-60 224.5v634h-362v-907h-193v907h-150z" />
<glyph unicode="&#x3c1;" d="M140 -408v974q0 123 34.5 218t93.5 161t139.5 100.5t172.5 34.5q111 0 196 -41t144 -116.5t89.5 -181t30.5 -231.5v-20q0 -115 -28 -209.5t-81.5 -161.5t-129 -103t-171.5 -36q-186 0 -297 114v-502h-193zM333 269q36 -65 95.5 -102t143.5 -37q69 0 121 27t84.5 74.5 t50 114t17.5 144.5v20q0 92 -16.5 168.5t-48 131.5t-81.5 86t-119 31q-62 0 -108.5 -32t-77 -84t-46 -116.5t-15.5 -130.5v-295z" />
<glyph unicode="&#x3c2;" horiz-adv-x="1078" d="M96 510v40q0 111 32.5 207t92.5 168.5t146 113.5t195 41q90 0 165.5 -26t129.5 -75.5t83 -119.5t29 -158l-2 -6h-174q0 100 -60.5 166t-170.5 66q-69 0 -120 -31t-85 -82.5t-51 -120.5t-17 -143v-40q0 -141 80.5 -240t242.5 -121q89 -12 153 -30.5t106 -46.5t62.5 -70 t20.5 -102q0 -54 -21.5 -101.5t-56.5 -87.5t-82 -72t-101 -56l-79 124q31 14 59 31t50 39t34.5 49t12.5 63q0 48 -43 72.5t-137 38.5q-247 34 -370.5 165.5t-123.5 344.5z" />
<glyph unicode="&#x3c3;" d="M94 517v23q0 111 32.5 206t93.5 165t149.5 109t198.5 39h558v-152h-273q92 -70 142.5 -174.5t50.5 -230.5v-23q0 -100 -34.5 -191t-95.5 -159.5t-149.5 -108.5t-196.5 -40q-112 0 -199.5 40t-149.5 112.5t-94.5 171t-32.5 213.5zM289 517q0 -84 18 -155t53 -122 t87.5 -80.5t122.5 -29.5q69 0 122 29.5t87.5 80.5t53 122t18.5 155v23q0 76 -18.5 143.5t-53 116.5t-88 78t-123.5 29t-123.5 -29t-87.5 -78t-51 -116.5t-17 -143.5v-23z" />
<glyph unicode="&#x3c4;" horiz-adv-x="1049" d="M80 911v148h887v-148h-349v-911h-195v911h-343z" />
<glyph unicode="&#x3c5;" d="M138 462v597h193v-599q0 -171 67.5 -250.5t183.5 -79.5q69 0 119 35.5t81.5 94t48 133t16.5 157.5q-4 124 -36 250.5t-85 258.5h201q52 -106 83.5 -231t31.5 -278q0 -123 -26 -227t-82.5 -180t-141.5 -119.5t-202 -43.5q-219 0 -335.5 117.5t-116.5 364.5z" />
<glyph unicode="&#x3c6;" horiz-adv-x="1420" d="M82 552q0 151 30 276.5t83 230.5h203q-54 -132 -88.5 -257.5t-34.5 -249.5q0 -77 20.5 -146t60 -123.5t99.5 -90t143 -48.5l6 3v912h193q112 0 211 -43t172.5 -116t116 -172.5t42.5 -213.5q0 -107 -32.5 -198.5t-98.5 -160.5t-168.5 -114t-242.5 -57v-451h-193v451 q-135 12 -233 59t-162.5 122.5t-95.5 173.5t-31 213zM797 144l6 -2q88 10 152 44t106 83.5t63.5 112.5t21.5 132q-2 78 -26 148.5t-67.5 123.5t-106.5 84.5t-143 31.5l-6 -2v-756z" />
<glyph unicode="&#x3c7;" d="M92 919v140q23 6 52.5 11.5t54.5 5.5q65 0 114 -22t86.5 -59.5t65 -84.5t49.5 -98l90 -218h7l226 465h195l-333 -691l198 -483q34 -74 64.5 -112t70.5 -38h14h6.5t7.5 1t18 3l-4 -153q-10 -5 -27 -9t-32 -4q-116 0 -182.5 63t-118.5 201l-124 295h-6l-259 -540h-204 l375 768l-161 379q-32 82 -74 133t-100 51q-10 0 -37.5 -2t-31.5 -2z" />
<glyph unicode="&#x3c8;" horiz-adv-x="1410" d="M88 584v475h195v-477q0 -205 82.5 -311t222.5 -124l6 2v910h195v-912l6 -3q86 10 150 48.5t106.5 93.5t63.5 125.5t21 144.5q-4 122 -35 247.5t-88 255.5h203q52 -103 83.5 -227.5t31.5 -275.5q0 -119 -32.5 -218t-98.5 -174.5t-168.5 -122.5t-242.5 -57v-448h-195v450 q-241 25 -373.5 172t-132.5 426z" />
<glyph unicode="&#x3c9;" horiz-adv-x="1705" d="M107 550q0 153 41 280t109 229h203q-73 -132 -115 -257.5t-46 -251.5q0 -90 13 -167.5t40 -133.5t70.5 -87.5t103.5 -31.5q107 0 168 79.5t61 250.5v295h195v-295q0 -171 61 -250.5t167 -79.5q58 0 101.5 31.5t71.5 86.5t42 132.5t14 169.5q-6 126 -48.5 251.5 t-111.5 257.5h202q67 -103 108.5 -229.5t41.5 -279.5q0 -125 -24 -229t-74 -179t-127 -118.5t-184 -43.5q-255 0 -337 235q-87 -236 -338 -235q-106 0 -183 43.5t-127 119.5t-74 180t-24 227z" />
<glyph unicode="&#x3ca;" horiz-adv-x="657" d="M-40 1236v197h214v-197h-214zM193 273v786h192v-796q0 -73 26 -100t71 -27q50 0 90 27l42 -131q-44 -30 -87 -41t-96 -11q-118 0 -178 68.5t-60 224.5zM419 1236v197h215v-197h-215z" />
<glyph unicode="&#x3cb;" d="M138 462v597h193v-599q0 -171 67.5 -250.5t183.5 -79.5q69 0 119 35.5t81.5 94t48 133t16.5 157.5q-4 124 -36 250.5t-85 258.5h201q52 -106 83.5 -231t31.5 -278q0 -123 -26 -227t-82.5 -180t-141.5 -119.5t-202 -43.5q-219 0 -335.5 117.5t-116.5 364.5zM251 1236v197 h214v-197h-214zM710 1236v197h215v-197h-215z" />
<glyph unicode="&#x3cc;" d="M94 517v23q0 117 33.5 215t94.5 170.5t148.5 113.5t197.5 41q109 0 197 -40t150 -111.5t96.5 -170.5t34.5 -218v-23q0 -116 -32.5 -214t-94.5 -170.5t-150.5 -112.5t-198.5 -40q-112 0 -199.5 40t-149.5 112.5t-94.5 171t-32.5 213.5zM289 517q0 -84 18 -155t53 -122 t87.5 -80.5t122.5 -29.5q69 0 122 29.5t87.5 80.5t53 122t18.5 155v23q0 82 -18.5 152t-53 122.5t-88 82.5t-123.5 30t-122.5 -29t-86.5 -81.5t-52 -123.5t-18 -153v-23zM526 1253l28 264h204l-152 -264h-80z" />
<glyph unicode="&#x3cd;" d="M138 462v597h193v-599q0 -171 67.5 -250.5t183.5 -79.5q69 0 119 35.5t81.5 94t48 133t16.5 157.5q-4 124 -36 250.5t-85 258.5h201q52 -106 83.5 -231t31.5 -278q0 -123 -26 -227t-82.5 -180t-141.5 -119.5t-202 -43.5q-219 0 -335.5 117.5t-116.5 364.5zM544 1235 l28 264h204l-152 -264h-80z" />
<glyph unicode="&#x3ce;" horiz-adv-x="1705" d="M107 550q0 153 41 280t109 229h203q-73 -132 -115 -257.5t-46 -251.5q0 -90 13 -167.5t40 -133.5t70.5 -87.5t103.5 -31.5q107 0 168 79.5t61 250.5v295h195v-295q0 -171 61 -250.5t167 -79.5q58 0 101.5 31.5t71.5 86.5t42 132.5t14 169.5q-6 126 -48.5 251.5 t-111.5 257.5h202q67 -103 108.5 -229.5t41.5 -279.5q0 -125 -24 -229t-74 -179t-127 -118.5t-184 -43.5q-255 0 -337 235q-87 -236 -338 -235q-106 0 -183 43.5t-127 119.5t-74 180t-24 227zM809 1235l28 264h204l-152 -264h-80z" />
<glyph unicode="&#x3d1;" horiz-adv-x="1239" d="M111 580v648h192v-648q0 -96 23 -177.5t67 -140.5t104.5 -92.5t136.5 -33.5q163 0 256.5 117.5t93.5 320.5q-107 2 -193 36t-149.5 93t-97.5 138.5t-34 173.5v61q0 84 25 153t69.5 117.5t105 74.5t133.5 26q157 0 245 -97.5t88 -273.5v-496q0 -134 -39 -245 t-109.5 -189.5t-170.5 -122t-223 -43.5q-117 0 -213 45.5t-165.5 124t-107 189.5t-37.5 241zM705 1013q0 -120 73 -195t199 -81l7 2v337q0 213 -141 213q-65 0 -101.5 -53.5t-36.5 -159.5v-63z" />
<glyph unicode="&#x3d2;" horiz-adv-x="1067" d="M-23 1415q25 14 49 18t58 4q81 0 140 -50t111 -173l175 -397l18 -68h6l18 68l174 397q52 123 111.5 173t139.5 50q34 0 57 -4t52 -18l-25 -151q-11 8 -38 8q-34 0 -60 -15.5t-42 -56.5l-295 -634v-566h-191v566l-295 634q-34 73 -100 72q-28 0 -40 -8z" />
<glyph unicode="&#x3d6;" horiz-adv-x="1574" d="M76 907v152h1454v-152h-132q29 -80 46 -168t17 -189q0 -121 -20 -224.5t-63 -180t-109.5 -121t-158.5 -44.5q-118 0 -198.5 58t-118.5 173q-40 -115 -121.5 -173t-196.5 -58q-94 0 -160 44.5t-108 121t-62.5 180t-20.5 224.5q0 100 16.5 188.5t43.5 168.5h-108zM318 550 q0 -92 9.5 -169.5t29.5 -132.5t52.5 -86.5t76.5 -31.5q96 0 153.5 79.5t57.5 250.5v247h192v-247q0 -171 56.5 -250.5t154.5 -79.5q44 0 75 31.5t51.5 87.5t30 133.5t9.5 167.5q-4 90 -22 178.5t-51 178.5h-800q-71 -186 -75 -357z" />
<glyph unicode="&#x400;" horiz-adv-x="1107" d="M167 0v1427h869v-153h-676v-462h586v-150h-586v-511h686v-151h-879zM289 1822l4 7h225l170 -262h-154z" />
<glyph unicode="&#x401;" horiz-adv-x="1107" d="M167 0v1427h869v-153h-676v-462h586v-150h-586v-511h686v-151h-879zM269 1571v197h214v-197h-214zM728 1571v197h215v-197h-215z" />
<glyph unicode="&#x402;" horiz-adv-x="1482" d="M56 1274v153h1128v-153h-472v-411h179q114 0 210 -32t165 -92.5t107 -147.5t38 -196q0 -65 -24 -135.5t-71.5 -134t-118.5 -110.5t-165 -63l-51 144q126 34 180.5 110.5t54.5 188.5q0 147 -90 226.5t-235 79.5h-179v-701h-193v1274h-463z" />
<glyph unicode="&#x403;" horiz-adv-x="1099" d="M161 0v1427h875v-153h-683v-1274h-192zM509 1563l181 262h227l2 -7l-265 -255h-145z" />
<glyph unicode="&#x404;" horiz-adv-x="1358" d="M132 586v255q0 128 40.5 240t113 193.5t172.5 128t220 46.5q121 0 218.5 -34t165.5 -95.5t105 -148.5t37 -194l-2 -6h-187q0 149 -86 237.5t-251 88.5q-80 0 -145.5 -35.5t-111.5 -97t-71 -143.5t-25 -178v-46h552v-151h-552v-60q0 -94 24 -177.5t70.5 -144.5 t111.5 -97.5t147 -36.5q165 0 251 88.5t86 239.5h187l2 -6q0 -100 -37 -186t-106 -150t-165.5 -100t-217.5 -36q-120 0 -220 46.5t-172.5 127.5t-113 192.5t-40.5 239.5z" />
<glyph unicode="&#x405;" horiz-adv-x="1225" d="M113 406l2 6h182q0 -71 29 -123t75.5 -87t106.5 -53.5t122 -18.5q136 0 216.5 60.5t80.5 169.5q0 96 -69 162t-246 112q-218 54 -339.5 158.5t-121.5 262.5q0 83 34 154.5t96 124.5t149 83t194 30q113 0 203 -35t153.5 -94.5t97.5 -136t34 -160.5l-2 -6h-185 q0 58 -22 109.5t-62 89.5t-95 60.5t-122 22.5q-138 0 -209.5 -67.5t-71.5 -170.5q0 -96 79.5 -157t255.5 -107q217 -58 329.5 -166t112.5 -267q0 -85 -35 -155.5t-100.5 -120.5t-155.5 -78t-199 -28q-102 0 -195.5 29t-164.5 83.5t-114 133.5t-43 180z" />
<glyph unicode="&#x406;" horiz-adv-x="567" d="M186 0v1427h193v-1427h-193z" />
<glyph unicode="&#x407;" horiz-adv-x="567" d="M-52 1571v197h214v-197h-214zM186 0v1427h193v-1427h-193zM407 1571v197h215v-197h-215z" />
<glyph unicode="&#x408;" horiz-adv-x="1099" d="M78 387l2 6h185q0 -134 61 -198.5t176 -64.5q104 0 173.5 77.5t69.5 206.5v1013h192v-1013q0 -98 -32 -178.5t-89 -137t-137.5 -87.5t-176.5 -31q-201 0 -312.5 102t-111.5 305z" />
<glyph unicode="&#x409;" horiz-adv-x="2156" d="M48 0v151h40q73 0 125 33t86 105.5t50.5 186.5t16.5 279v672h881v-556h350q115 0 205 -33t151.5 -91.5t94 -137.5t32.5 -174q0 -96 -33.5 -176.5t-95 -137t-150.5 -89t-204 -32.5h-545v1274h-494v-519q-2 -197 -27 -339.5t-79 -235t-142 -136.5t-210 -44h-52zM1247 151 h350q73 0 127.5 23t90 62t53 91t17.5 110t-18.5 109.5t-53 90.5t-89 61t-127.5 22h-350v-569z" />
<glyph unicode="&#x40a;" horiz-adv-x="2156" d="M165 0v1427h193v-617h694v617h195v-604h350q229 0 356 -111.5t127 -295.5q0 -91 -32.5 -166.5t-94 -131.5t-150.5 -87t-206 -31h-545v661h-694v-661h-193zM1247 163h350q144 0 216 71t72 183q0 111 -71.5 182t-216.5 71h-350v-507z" />
<glyph unicode="&#x40b;" horiz-adv-x="1635" d="M73 1274v153h1127v-153h-472v-332h289q235 0 357.5 -108t122.5 -342v-492h-195v492q0 165 -69 232t-216 67h-289v-791h-192v1274h-463z" />
<glyph unicode="&#x40c;" horiz-adv-x="1275" d="M167 0v1427h193v-632h106l530 632h216l2 -6l-578 -674l618 -743v-4h-235l-533 644h-126v-644h-193zM503 1477l181 262h227l2 -7l-265 -255h-145z" />
<glyph unicode="&#x40d;" horiz-adv-x="1410" d="M169 0v1427h195v-1088l5 -2l686 1090h194v-1427h-194v1088l-5 2l-686 -1090h-195zM393 1822l4 7h225l170 -262h-154z" />
<glyph unicode="&#x40e;" horiz-adv-x="1270" d="M65 1427h216l275 -668l72 -187h6l341 855h225l-520 -1192q-28 -62 -59 -109.5t-73 -79.5t-98.5 -49t-130.5 -17q-64 0 -119.5 10t-86.5 26l23 141q33 -10 81 -18.5t80 -8.5q82 0 129 42.5t78 106.5l38 83zM343 1827l2 6h149q0 -65 33 -104.5t105 -39.5q71 0 106 40 t35 104h149l1 -6q0 -115 -76 -186t-215 -71q-134 0 -211.5 71t-77.5 186z" />
<glyph unicode="&#x40f;" horiz-adv-x="1410" d="M165 0v1427h193v-1276h694v1276h195v-1427h-439v-351h-192v351h-451z" />
<glyph unicode="&#x410;" horiz-adv-x="1268" d="M42 0l514 1427h166l504 -1427h-196l-126 368h-536l-129 -368h-197zM421 530h428l-209 612h-6z" />
<glyph unicode="&#x411;" horiz-adv-x="1266" d="M161 0v1427h875v-153h-683v-411h352q112 0 201.5 -31t151.5 -86t95 -134.5t33 -176.5q0 -98 -33 -178.5t-95 -137.5t-151.5 -88t-201.5 -31h-544zM353 151h352q74 0 128 23t90 62t53.5 91t17.5 110q0 56 -18.5 106.5t-54.5 87.5t-90 58t-126 21h-352v-559z" />
<glyph unicode="&#x412;" horiz-adv-x="1275" d="M167 0v1427h465q221 0 348 -95t127 -290q0 -92 -55.5 -165.5t-149.5 -112.5q68 -9 123 -40t95 -79.5t62 -111t22 -129.5q0 -100 -33 -175.5t-95.5 -126t-148.5 -76.5t-194 -26h-566zM360 151h373q132 0 204 65t72 186q0 118 -74 190t-200 76h-375v-517zM360 821h312 q109 0 176 58t67 167q0 114 -72.5 171t-210.5 57h-272v-453z" />
<glyph unicode="&#x413;" horiz-adv-x="1099" d="M161 0v1427h875v-153h-683v-1274h-192z" />
<glyph unicode="&#x414;" horiz-adv-x="1542" d="M52 151h103q130 0 194.5 176.5t79.5 521.5l33 578h831v-1276h195v-500h-193v349h-1048v-351h-195v502zM458 151h642v1123h-474v-425q-14 -245 -53 -418.5t-115 -279.5z" />
<glyph unicode="&#x415;" horiz-adv-x="1107" d="M167 0v1427h869v-153h-676v-462h586v-150h-586v-511h686v-151h-879z" />
<glyph unicode="&#x416;" horiz-adv-x="1653" d="M26 0l484 755l-445 672h226l379 -620h65v620h190v-620h56l382 620h225l-446 -672l486 -755h-241l-408 655h-54v-655h-190v655h-63l-407 -655h-239z" />
<glyph unicode="&#x417;" horiz-adv-x="1356" d="M122 389l2 6h185q0 -56 25.5 -104t71.5 -84t110 -56.5t141 -20.5q176 0 274.5 73.5t98.5 189.5q0 257 -358 258h-178v152h178q171 0 253 64t82 179q0 110 -90 180.5t-260 70.5q-67 0 -127.5 -18.5t-104.5 -51t-70 -77.5t-26 -96h-185v5q0 89 39 160.5t109 122.5t163 78 t202 27q126 0 226.5 -27t170.5 -79t108 -127.5t38 -171.5q0 -100 -66 -181.5t-184 -127.5q132 -42 202 -127t70 -208q0 -98 -41 -176t-116 -132t-179.5 -82t-228.5 -28q-111 0 -208.5 26t-169.5 77t-114.5 127.5t-42.5 178.5z" />
<glyph unicode="&#x418;" horiz-adv-x="1410" d="M169 0v1427h195v-1088l5 -2l686 1090h194v-1427h-194v1088l-5 2l-686 -1090h-195z" />
<glyph unicode="&#x419;" horiz-adv-x="1410" d="M169 0v1427h195v-1088l5 -2l686 1090h194v-1427h-194v1088l-5 2l-686 -1090h-195zM423 1827l2 6h149q0 -65 33 -104.5t105 -39.5q71 0 106 40t35 104h149l1 -6q0 -115 -76 -186t-215 -71q-134 0 -211.5 71t-77.5 186z" />
<glyph unicode="&#x41a;" horiz-adv-x="1275" d="M167 0v1427h193v-632h106l530 632h216l2 -6l-578 -674l618 -743v-4h-235l-533 644h-126v-644h-193z" />
<glyph unicode="&#x41b;" horiz-adv-x="1410" d="M48 0v151h40q67 0 115 32t79 104.5t46 187.5t15 280l2 672h902v-1427h-195v1274h-514l-2 -519q0 -197 -24 -339.5t-76.5 -235t-135.5 -136.5t-200 -44h-52z" />
<glyph unicode="&#x41c;" horiz-adv-x="1743" d="M167 0v1427h252l456 -1160h4l458 1160h239v-1427h-193v1070h-6l-431 -1070h-136l-444 1105l-6 -2v-1103h-193z" />
<glyph unicode="&#x41d;" horiz-adv-x="1412" d="M167 0v1427h193v-644h692v644h195v-1427h-195v630h-692v-630h-193z" />
<glyph unicode="&#x41e;" horiz-adv-x="1368" d="M111 586v253q0 128 41 239.5t114 192.5t176.5 128.5t229.5 47.5q129 0 237 -46.5t184.5 -127t119.5 -192.5t43 -242v-253q0 -130 -43 -240.5t-119.5 -191.5t-184.5 -127.5t-237 -46.5q-124 0 -227.5 46.5t-177.5 127.5t-115 191.5t-41 240.5zM303 586q0 -100 27.5 -182.5 t75.5 -141.5t116 -92.5t150 -33.5q90 0 163.5 34.5t123.5 94.5t77 142.5t27 178.5v255q0 96 -27 177.5t-77 141.5t-123.5 94.5t-163.5 34.5q-84 0 -152 -34.5t-116.5 -93.5t-74.5 -141.5t-26 -178.5v-255z" />
<glyph unicode="&#x41f;" horiz-adv-x="1410" d="M165 0v1427h1082v-1427h-195v1274h-694v-1274h-193z" />
<glyph unicode="&#x420;" horiz-adv-x="1275" d="M167 0v1427h545q115 0 204 -31t150.5 -87.5t95 -134.5t33.5 -174t-32.5 -174.5t-94 -135t-151.5 -87.5t-205 -31h-352v-572h-193zM360 722h352q73 0 127 21t90 58.5t54.5 87.5t18.5 109q0 56 -18.5 107t-54.5 88t-90 59t-127 22h-352v-552z" />
<glyph unicode="&#x421;" horiz-adv-x="1270" d="M117 586v253q0 132 40 244t112 192.5t172.5 126t220.5 45.5q123 0 220 -33t164.5 -95.5t103.5 -148.5t36 -193l-2 -6h-184q0 151 -88.5 238.5t-249.5 87.5q-84 0 -149 -36.5t-110 -98.5t-69.5 -145.5t-24.5 -175.5v-255q0 -96 24.5 -178.5t70.5 -144.5t111 -97.5 t147 -35.5q161 0 249.5 86.5t88.5 241.5h184l2 -6q0 -100 -36 -187t-104.5 -150t-165.5 -99t-218 -36q-120 0 -220.5 45.5t-172.5 126.5t-112 191.5t-40 242.5z" />
<glyph unicode="&#x422;" horiz-adv-x="1199" d="M36 1274v153h1128v-153h-469v-1274h-193v1274h-466z" />
<glyph unicode="&#x423;" horiz-adv-x="1270" d="M65 1427h216l275 -668l72 -187h6l341 855h225l-520 -1192q-28 -62 -59 -109.5t-73 -79.5t-98.5 -49t-130.5 -17q-64 0 -119.5 10t-86.5 26l23 141q33 -10 81 -18.5t80 -8.5q82 0 129 42.5t78 106.5l38 83z" />
<glyph unicode="&#x424;" horiz-adv-x="1410" d="M82 707q0 106 40.5 196.5t110.5 156.5t167.5 104t210.5 42v221h192v-223q110 -2 207 -40t168 -104t112 -157t41 -194q0 -107 -40.5 -197.5t-110.5 -157.5t-166.5 -105t-210.5 -40v-209h-192v209q-113 2 -209.5 39t-166.5 102.5t-111.5 156.5t-41.5 200zM273 707 q0 -161 87.5 -250t243.5 -89l7 1v677l-7 2q-159 0 -245 -93.5t-86 -247.5zM803 369l5 -1q159 0 244.5 92t85.5 249q0 154 -86.5 246.5t-243.5 92.5l-5 -2v-677z" />
<glyph unicode="&#x425;" horiz-adv-x="1268" d="M65 0l463 718l-454 709h231l331 -556l333 556h235l-453 -709l461 -718h-228l-344 566l-343 -566h-232z" />
<glyph unicode="&#x426;" horiz-adv-x="1502" d="M159 0v1427h192v-1274h695v1274h193v-1270h184v-508h-193v351h-1071z" />
<glyph unicode="&#x427;" horiz-adv-x="1368" d="M144 975v452h193v-452q0 -163 69 -223.5t218 -60.5q102 0 195.5 12.5t189.5 41.5v682h195v-1427h-195v590q-48 -14 -92 -24t-89 -16t-94.5 -9t-109.5 -3q-237 0 -358.5 102.5t-121.5 334.5z" />
<glyph unicode="&#x428;" horiz-adv-x="2036" d="M161 0v1427h192v-1276h580v1276h193v-1276h578v1276h192v-1427h-1735z" />
<glyph unicode="&#x429;" horiz-adv-x="2105" d="M161 0v1427h192v-1276h580v1276h193v-1276h578v1276h192v-1272h167v-508h-192v353h-1710z" />
<glyph unicode="&#x42a;" horiz-adv-x="1428" d="M0 1274v153h512v-564h353q113 0 202 -31t151.5 -87.5t95.5 -134.5t33 -175q0 -96 -33 -176.5t-95.5 -137t-152 -89t-201.5 -32.5h-546v1274h-319zM512 151h353q73 0 127 22t90 61t54 91t18 112q0 115 -72.5 194t-216.5 79h-353v-559z" />
<glyph unicode="&#x42b;" horiz-adv-x="1713" d="M161 0v1427h192v-564h352q112 0 201.5 -31t151.5 -86t95 -134.5t33 -176.5q0 -98 -33 -178.5t-95 -137.5t-151.5 -88t-201.5 -31h-544zM353 151h352q74 0 128 23t90 62t53.5 91t17.5 110q0 56 -18.5 106.5t-54.5 87.5t-90 58t-126 21h-352v-559zM1361 0v1427h192v-1427 h-192z" />
<glyph unicode="&#x42c;" horiz-adv-x="1264" d="M161 0v1427h192v-564h352q112 0 201.5 -31t151.5 -86t95 -134.5t33 -176.5q0 -98 -33 -178.5t-95 -137.5t-151.5 -88t-201.5 -31h-544zM353 151h352q74 0 128 23t90 62t53.5 91t17.5 110q0 56 -18.5 106.5t-54.5 87.5t-90 58t-126 21h-352v-559z" />
<glyph unicode="&#x42d;" horiz-adv-x="1356" d="M182 450l2 6h185q0 -149 85.5 -237.5t252.5 -88.5q80 0 145 35.5t111 97.5t71 145.5t25 177.5v78h-561v153h561v24q0 92 -24 174.5t-70 144.5t-111 99.5t-147 37.5q-167 0 -252.5 -88.5t-85.5 -239.5h-185l-2 6q0 98 37.5 185t104.5 151t164.5 101t218.5 37 q120 0 221.5 -47.5t173.5 -128t112 -192.5t40 -240v-255q0 -128 -40 -239.5t-112 -192.5t-172.5 -127.5t-222.5 -46.5q-123 0 -220.5 33t-164.5 94.5t-103.5 148.5t-36.5 194z" />
<glyph unicode="&#x42e;" horiz-adv-x="1787" d="M186 0v1427h193v-657h203v69q0 128 40 239.5t114 193.5t177.5 128.5t230.5 46.5q130 0 238 -47.5t184 -128.5t118 -192.5t42 -239.5v-253q0 -128 -42 -239.5t-119 -192.5t-185 -127.5t-236 -46.5q-125 0 -228.5 46.5t-177.5 127.5t-115 191.5t-41 240.5v34h-203v-620 h-193zM775 586q0 -98 26 -180.5t74 -142.5t116 -93.5t153 -33.5q90 0 162.5 34.5t122.5 94.5t77.5 142.5t27.5 178.5v255q0 96 -27.5 177.5t-77.5 141.5t-122 94.5t-163 34.5q-87 0 -155 -34.5t-116 -94.5t-73 -141.5t-25 -177.5v-255z" />
<glyph unicode="&#x42f;" horiz-adv-x="1185" d="M42 0l335 649q-138 50 -210.5 142t-72.5 226q0 98 35.5 174.5t101.5 129t159.5 79.5t209.5 27h455v-1427h-192v596h-317l-297 -596h-207zM289 1019q0 -122 79.5 -195t229.5 -73h265v523h-263q-155 0 -233 -67t-78 -188z" />
<glyph unicode="&#x430;" horiz-adv-x="1103" d="M104 297q0 76 32.5 136.5t91.5 102.5t143.5 64t188.5 22h210v104q0 94 -56.5 147.5t-161.5 53.5q-94 0 -151.5 -47t-57.5 -112l-182 -2l-2 6q0 58 28 114t81 99t127 69t169 26q88 0 161.5 -23t127 -68t82 -112t28.5 -153v-511q0 -56 6 -108.5t23 -104.5h-199 q-10 48 -16.5 84.5t-6.5 74.5q-54 -75 -139 -127t-187 -52q-167 0 -253.5 83.5t-86.5 233.5zM297 293q0 -71 44 -112t130 -41q52 0 100.5 15.5t88 40t68.5 57t42 66.5v173h-216q-58 0 -105 -16t-80.5 -43t-52.5 -63.5t-19 -76.5z" />
<glyph unicode="&#x431;" horiz-adv-x="1109" d="M94 517v23q0 16 2 26v229q0 305 120.5 446.5t357.5 153.5q135 7 208 34.5t73 91.5h149l1 -6q0 -80 -25.5 -133t-79 -85.5t-130.5 -47t-180 -17.5q-149 -4 -238 -81t-89 -232l4 -6q57 73 147 120t192 47t183.5 -40t139 -112.5t87.5 -171.5t30 -216v-23q0 -116 -32.5 -214 t-94.5 -170.5t-150.5 -112.5t-198.5 -40q-112 0 -199.5 40t-149.5 112.5t-94.5 171t-32.5 213.5zM289 517q0 -84 18 -155t53 -122t87.5 -80.5t122.5 -29.5q69 0 122 29.5t87.5 80.5t53 122t18.5 155v23q0 82 -18.5 152t-53 122.5t-87.5 82.5t-124 30q-70 0 -122.5 -29 t-86.5 -81.5t-52 -123.5t-18 -153v-23z" />
<glyph unicode="&#x432;" d="M140 0v1059h420q210 0 326 -72t116 -219q0 -76 -45.5 -134t-127.5 -88q100 -25 154.5 -91t54.5 -154q0 -151 -108.5 -226t-303.5 -75h-486zM335 149h291q217 0 217 158q0 76 -54 116.5t-163 40.5h-291v-315zM335 612h225q247 0 247 147q0 152 -247 152h-225v-299z" />
<glyph unicode="&#x433;" horiz-adv-x="832" d="M140 0v1059h674v-152h-481v-907h-193z" />
<glyph unicode="&#x434;" horiz-adv-x="1270" d="M69 151h102q78 0 112.5 125.5t49.5 385.5l27 397h701v-908h141v-502h-193v351h-748v-351h-192v502zM435 151h434v738h-327l-14 -227q-12 -189 -32.5 -310t-60.5 -201z" />
<glyph unicode="&#x435;" horiz-adv-x="1049" d="M94 510v42q0 114 36.5 210.5t97.5 167t143.5 110.5t176.5 40q109 0 189 -35.5t132 -99.5t78 -152t26 -197v-102h-678l-2 -4q0 -80 17 -146.5t52.5 -114t89.5 -73.5t128 -26q98 0 171.5 27t125.5 78l77 -124q-58 -56 -150 -93.5t-224 -37.5q-118 0 -208.5 39t-151.5 109.5 t-93.5 167.5t-32.5 214zM301 651l2 -5h478v16q0 56 -13 104t-42 84.5t-73.5 56.5t-104.5 20q-100 0 -165 -78.5t-82 -197.5z" />
<glyph unicode="&#x436;" horiz-adv-x="1442" d="M26 0l395 560l-363 499h235l279 -435h52v435h193v-435h54l281 435h231l-362 -499l396 -560h-243l-299 460h-58v-460h-193v460h-56l-299 -460h-243z" />
<glyph unicode="&#x437;" horiz-adv-x="1080" d="M104 307l3 6h182q0 -37 19 -69.5t52 -58.5t79.5 -41.5t100.5 -15.5q111 0 181 49t70 122q0 84 -59.5 123.5t-179.5 39.5h-205v158h205q114 0 166 38.5t52 111.5q0 62 -57.5 110.5t-172.5 48.5q-50 0 -93 -12.5t-74.5 -35t-49.5 -52.5t-18 -65h-183l-1 6q0 69 31.5 126.5 t88 97.5t134 62t165.5 22q195 0 309 -79.5t114 -228.5q0 -72 -47 -132t-131 -94q96 -32 147.5 -93.5t51.5 -151.5q0 -77 -33.5 -134.5t-91.5 -99t-140.5 -62.5t-178.5 -21q-90 0 -170.5 21t-139 61t-92.5 101t-34 142z" />
<glyph unicode="&#x438;" d="M140 0v1059h193v-752l4 -2l470 754h193v-1059h-193v753l-6 2l-468 -755h-193z" />
<glyph unicode="&#x439;" d="M140 0v1059h193v-752l4 -2l470 754h193v-1059h-193v753l-6 2l-468 -755h-193zM281 1492l2 6h149q0 -65 33 -104.5t105 -39.5q71 0 106 40t35 104h149l1 -6q0 -115 -76 -186t-215 -71q-134 0 -211.5 71t-77.5 186z" />
<glyph unicode="&#x43a;" horiz-adv-x="1097" d="M151 0v1059h192v-447h82l380 447h227l2 -4l-442 -503l473 -548l-2 -4h-236l-385 450h-99v-450h-192z" />
<glyph unicode="&#x43b;" horiz-adv-x="1109" d="M30 0v165l41 2q51 0 86.5 24t56.5 77t30 137.5t9 203.5v450h747v-1059h-193v907h-359v-298q0 -157 -19 -273t-63.5 -189.5t-114 -110t-171.5 -36.5h-50z" />
<glyph unicode="&#x43c;" horiz-adv-x="1496" d="M151 0v1059h249l345 -806h6l345 806h243v-1059h-195v737l-6 2l-326 -739h-132l-331 755l-6 -2v-753h-192z" />
<glyph unicode="&#x43d;" d="M140 0v1059h193v-457h472v457h195v-1059h-195v452h-472v-452h-193z" />
<glyph unicode="&#x43e;" d="M94 517v23q0 117 33.5 215t94.5 170.5t148.5 113.5t197.5 41q109 0 197 -40t150 -111.5t96.5 -170.5t34.5 -218v-23q0 -116 -32.5 -214t-94.5 -170.5t-150.5 -112.5t-198.5 -40q-112 0 -199.5 40t-149.5 112.5t-94.5 171t-32.5 213.5zM289 517q0 -84 18 -155t53 -122 t87.5 -80.5t122.5 -29.5q69 0 122 29.5t87.5 80.5t53 122t18.5 155v23q0 82 -18.5 152t-53 122.5t-88 82.5t-123.5 30t-122.5 -29t-86.5 -81.5t-52 -123.5t-18 -153v-23z" />
<glyph unicode="&#x43f;" d="M140 0v1059h860v-1059h-193v907h-474v-907h-193z" />
<glyph unicode="&#x440;" d="M140 -408v1467h149l30 -136q104 157 309 157q98 0 175.5 -42t131 -117.5t81.5 -180t28 -230.5v-20q0 -115 -28 -208t-81.5 -160.5t-131 -104.5t-173.5 -37q-191 0 -297 131v-519h-193zM333 269q36 -65 95.5 -102t143.5 -37q138 0 208.5 100.5t70.5 259.5v20 q0 86 -17 161.5t-52 131.5t-88.5 88t-123.5 32q-84 0 -142.5 -38t-94.5 -102v-514z" />
<glyph unicode="&#x441;" horiz-adv-x="1049" d="M94 510v40q0 111 31.5 207t90.5 168.5t146.5 113.5t199.5 41q88 0 161.5 -29.5t127 -80.5t82 -120t28.5 -149l-2 -6h-174q0 48 -17 90t-47 74t-70 50t-89 18q-73 0 -125 -30t-85 -81.5t-48 -119.5t-15 -146v-40q0 -79 15 -148t48 -120t85 -81.5t125 -30.5q44 0 84 16.5 t71.5 44.5t49.5 65t18 79h174l2 -6q0 -68 -32 -131.5t-86 -111.5t-127.5 -77t-153.5 -29q-115 0 -202 41t-146 113.5t-89.5 169t-30.5 206.5z" />
<glyph unicode="&#x442;" horiz-adv-x="1027" d="M71 911v148h886v-148h-348v-911h-193v911h-345z" />
<glyph unicode="&#x443;" horiz-adv-x="1009" d="M26 1059h215l223 -666l36 -134h4l260 800h215l-445 -1222q-18 -52 -46 -99t-66.5 -84t-89.5 -59t-115 -22q-23 0 -60.5 5t-56.5 8l21 153h-2q2 0 16 -1t28.5 -1t28 -1t15.5 -1q32 0 57 16t45 41.5t36.5 57t27.5 62.5l46 111z" />
<glyph unicode="&#x444;" horiz-adv-x="1789" d="M96 490v20q0 126 28.5 231.5t80.5 181t129.5 116.5t177.5 41q170 0 277 -107v557h192v-571q111 121 298 121q96 0 173.5 -41t130.5 -116.5t80.5 -180t27.5 -232.5v-20q0 -115 -27.5 -209.5t-80.5 -161.5t-129.5 -103t-172.5 -36q-189 0 -300 114v-502h-192v492 q-104 -104 -279 -104q-98 0 -174.5 37t-129.5 104.5t-81.5 161.5t-28.5 207zM289 490q0 -78 16 -144.5t49 -114t83.5 -74.5t120.5 -27q80 0 136.5 35.5t94.5 99.5v534q-38 59 -94.5 93.5t-134.5 34.5q-71 0 -122 -32t-84 -87t-49 -131.5t-16 -166.5v-20zM981 269 q36 -65 95.5 -102t143.5 -37q138 0 208.5 100.5t70.5 259.5v20q0 88 -18 164.5t-53 132.5t-87 88t-123 32q-84 0 -142.5 -38t-94.5 -104v-516z" />
<glyph unicode="&#x445;" horiz-adv-x="1009" d="M44 0l356 536l-346 523h223l223 -391l224 391h228l-346 -523l355 -536h-222l-235 402l-235 -402h-225z" />
<glyph unicode="&#x446;" horiz-adv-x="1193" d="M140 0v1059h193v-908h474v908h193v-908h128v-498h-193v347h-795z" />
<glyph unicode="&#x447;" horiz-adv-x="1107" d="M124 751v310h194v-310q0 -129 54.5 -189t163.5 -60q125 0 239 30v527h192v-1059h-192v379q-56 -15 -114.5 -22.5t-124.5 -7.5q-189 0 -300.5 99.5t-111.5 302.5z" />
<glyph unicode="&#x448;" horiz-adv-x="1611" d="M140 0v1059h193v-908h374v908h193v-908h372v908h193v-1059h-1325z" />
<glyph unicode="&#x449;" horiz-adv-x="1697" d="M140 0v1059h193v-908h374v908h193v-908h372v908h193v-917h173v-473h-191v331h-1307z" />
<glyph unicode="&#x44a;" horiz-adv-x="1247" d="M44 909v150h494v-402h263q94 0 167.5 -24t124.5 -69t78.5 -103.5t27.5 -127.5q0 -72 -27.5 -132.5t-78.5 -105.5t-124.5 -70t-167.5 -25h-458v909h-299zM538 151h263q108 0 155.5 52t47.5 122q0 71 -50 126t-153 55h-263v-355z" />
<glyph unicode="&#x44b;" horiz-adv-x="1584" d="M169 0v1059h195v-402h262q189 0 293 -91t104 -233q0 -72 -27 -132.5t-78 -105.5t-124.5 -70t-167.5 -25h-457zM364 151h262q109 0 156 52t47 122q0 35 -12 67.5t-37 57.5t-63.5 40.5t-90.5 15.5h-262v-355zM1210 0v1059h193v-1059h-193z" />
<glyph unicode="&#x44c;" horiz-adv-x="1089" d="M151 0v1059h192v-402h263q189 0 293.5 -91t104.5 -233q0 -70 -26 -131.5t-77.5 -106.5t-124.5 -70t-170 -25h-455zM343 151h263q108 0 155 52t47 122q0 35 -11.5 67.5t-36.5 57.5t-63 40.5t-91 15.5h-263v-355z" />
<glyph unicode="&#x44d;" horiz-adv-x="1078" d="M102 358l2 6h175q0 -48 18.5 -90.5t49 -73.5t73 -50.5t90.5 -19.5q61 0 109.5 27t82 72.5t52 104.5t23.5 126l-5 4h-377v152h375l2 4q-4 65 -24 121t-53 97t-80.5 65t-104.5 24q-44 0 -86.5 -16t-74 -43t-51 -64.5t-19.5 -81.5h-175l-2 6q0 69 33.5 133t89.5 112 t130 77.5t155 29.5q108 0 194.5 -41t146.5 -113.5t92 -168.5t32 -207v-40q0 -109 -32 -205t-92 -168t-146.5 -114.5t-194.5 -42.5q-93 0 -168 29t-128 80t-82.5 120.5t-29.5 148.5z" />
<glyph unicode="&#x44e;" horiz-adv-x="1637" d="M151 0v1059h192v-447h251q8 102 45 187.5t97.5 147.5t143.5 97.5t183 35.5q109 0 197 -40t150.5 -111.5t97 -170.5t34.5 -218v-23q0 -116 -32.5 -214t-95 -170.5t-150.5 -112.5t-199 -40q-104 0 -188 36t-144.5 99t-96.5 151.5t-44 195.5h-249v-462h-192zM785 517 q0 -84 18 -155t53 -122t87.5 -80.5t121.5 -29.5t122.5 29.5t88 80.5t53 122t18.5 155v23q0 82 -18.5 152t-53 122.5t-88 82.5t-124.5 30q-70 0 -122 -29t-86 -81.5t-52 -123.5t-18 -153v-23z" />
<glyph unicode="&#x44f;" d="M76 0l269 440q-102 36 -156.5 114t-54.5 183q0 71 28.5 129.5t80.5 101.5t128.5 67t170.5 24h448v-1059h-193v412h-261l-251 -412h-209zM329 735q0 -73 48 -122t144 -49h276v347h-255q-102 0 -157.5 -52.5t-55.5 -123.5z" />
<glyph unicode="&#x450;" horiz-adv-x="1049" d="M94 510v42q0 114 36.5 210.5t97.5 167t143.5 110.5t176.5 40q109 0 189 -35.5t132 -99.5t78 -152t26 -197v-102h-678l-2 -4q0 -80 17 -146.5t52.5 -114t89.5 -73.5t128 -26q98 0 171.5 27t125.5 78l77 -124q-58 -56 -150 -93.5t-224 -37.5q-118 0 -208.5 39t-151.5 109.5 t-93.5 167.5t-32.5 214zM208 1509l4 7h225l170 -262h-154zM301 651l2 -5h478v16q0 56 -13 104t-42 84.5t-73.5 56.5t-104.5 20q-100 0 -165 -78.5t-82 -197.5z" />
<glyph unicode="&#x451;" horiz-adv-x="1049" d="M94 510v42q0 114 36.5 210.5t97.5 167t143.5 110.5t176.5 40q109 0 189 -35.5t132 -99.5t78 -152t26 -197v-102h-678l-2 -4q0 -80 17 -146.5t52.5 -114t89.5 -73.5t128 -26q98 0 171.5 27t125.5 78l77 -124q-58 -56 -150 -93.5t-224 -37.5q-118 0 -208.5 39t-151.5 109.5 t-93.5 167.5t-32.5 214zM191 1258v197h214v-197h-214zM301 651l2 -5h478v16q0 56 -13 104t-42 84.5t-73.5 56.5t-104.5 20q-100 0 -165 -78.5t-82 -197.5zM650 1258v197h215v-197h-215z" />
<glyph unicode="&#x452;" d="M-14 1204v121h154v205h193v-205h231v-121h-231v-285q56 77 135.5 119t175.5 42q170 0 265 -101.5t95 -314.5v-750q0 -165 -84.5 -253t-235.5 -88q-32 0 -57 3t-53 12l14 149q6 -2 20 -4.5t29.5 -5t28 -3.5t18.5 -1q58 0 92 50.5t34 140.5v752q0 257 -224 257 q-86 0 -149.5 -33t-103.5 -95v-795h-193v1204h-154z" />
<glyph unicode="&#x453;" horiz-adv-x="832" d="M140 0v1059h674v-152h-481v-907h-193zM325 1228l181 262h227l2 -7l-265 -255h-145z" />
<glyph unicode="&#x454;" horiz-adv-x="1080" d="M94 510v40q0 111 31.5 207t90.5 168.5t146.5 113.5t199.5 41q88 0 161.5 -29.5t127 -80.5t82 -120t28.5 -149l-2 -6h-174q0 48 -17 90t-47 74t-70 50t-89 18q-67 0 -115.5 -25t-82 -69t-50.5 -101.5t-19 -120.5l2 -7h379v-150h-379l-2 -4q2 -67 19 -125t50.5 -101.5 t82 -68.5t115.5 -25q44 0 84 16.5t71.5 44.5t49.5 65t18 79h174l2 -6q0 -68 -32 -131.5t-86 -111.5t-127.5 -77t-153.5 -29q-115 0 -202 41t-146 113.5t-89.5 169t-30.5 206.5z" />
<glyph unicode="&#x455;" horiz-adv-x="1049" d="M107 323l2 6h184q2 -52 22 -90t54.5 -62t77.5 -35.5t91 -11.5q102 0 160.5 43.5t58.5 111.5q0 65 -49 104.5t-184 70.5q-189 40 -288.5 112t-99.5 194q0 62 29.5 120t81.5 101t124.5 68t160.5 25q90 0 163 -26t126.5 -70.5t81.5 -104.5t28 -126l-2 -4h-184q0 32 -16.5 64 t-44 58t-67 41t-85.5 15q-102 0 -152.5 -45t-50.5 -110q0 -30 8 -52.5t32 -41.5t68.5 -35.5t114.5 -30.5q197 -40 297.5 -116.5t100.5 -196.5q0 -71 -30.5 -129.5t-84.5 -101t-130.5 -65.5t-166.5 -23q-104 0 -184.5 28t-135.5 75t-83 109.5t-28 130.5z" />
<glyph unicode="&#x456;" horiz-adv-x="505" d="M157 0v1059h192v-1059h-192zM157 1333v197h192v-197h-192z" />
<glyph unicode="&#x457;" horiz-adv-x="503" d="M-88 1236v197h214v-197h-214zM151 0v1059h192v-1059h-192zM371 1236v197h215v-197h-215z" />
<glyph unicode="&#x458;" horiz-adv-x="519" d="M-65 -412l15 153q14 -4 39 -7.5t41 -3.5q65 0 102 43t37 141v1145h195v-1145q0 -165 -84.5 -253t-235.5 -88q-30 0 -55 4t-54 11zM165 1337v193h193v-193h-193z" />
<glyph unicode="&#x459;" horiz-adv-x="1745" d="M69 0v155l40 2q104 0 148 106t44 346v450h699v-400h262q92 0 166.5 -24t125.5 -67.5t78.5 -103.5t27.5 -131q0 -70 -26.5 -131.5t-76.5 -106.5t-124.5 -70t-170.5 -25h-455v907h-311v-298q0 -316 -88.5 -462.5t-288.5 -146.5h-50zM1000 149h262q102 0 152.5 55t50.5 131 q0 71 -48 121t-155 50h-262v-357z" />
<glyph unicode="&#x45a;" horiz-adv-x="1745" d="M140 0v1059h193v-398h472v398h195v-402h262q94 0 167.5 -24t124.5 -69t78.5 -103.5t27.5 -127.5q0 -72 -27.5 -132.5t-78.5 -105.5t-124.5 -70t-167.5 -25h-457v510h-472v-510h-193zM1000 149h262q102 0 152.5 55t50.5 131q0 67 -48 119t-155 52h-262v-357z" />
<glyph unicode="&#x45b;" d="M18 1186v153h122v191h193v-191h313v-153h-313v-267q56 77 135.5 119t175.5 42q170 0 265 -101.5t95 -314.5v-664h-194v666q0 257 -224 257q-86 0 -149.5 -33t-103.5 -95v-795h-193v1186h-122z" />
<glyph unicode="&#x45c;" horiz-adv-x="1097" d="M151 0v1059h192v-447h82l380 447h227l2 -4l-442 -503l473 -548l-2 -4h-236l-385 450h-99v-450h-192zM439 1226l181 262h227l2 -7l-265 -255h-145z" />
<glyph unicode="&#x45d;" d="M140 0v1059h193v-752l4 -2l470 754h193v-1059h-193v753l-6 2l-468 -755h-193zM251 1487l4 7h225l170 -262h-154z" />
<glyph unicode="&#x45e;" horiz-adv-x="1009" d="M26 1059h215l223 -666l36 -134h4l260 800h215l-445 -1222q-18 -52 -46 -99t-66.5 -84t-89.5 -59t-115 -22q-23 0 -60.5 5t-56.5 8l21 153h-2q2 0 16 -1t28.5 -1t28 -1t15.5 -1q32 0 57 16t45 41.5t36.5 57t27.5 62.5l46 111zM214 1492l2 6h149q0 -65 33 -104.5t105 -39.5 q71 0 106 40t35 104h149l1 -6q0 -115 -76 -186t-215 -71q-134 0 -211.5 71t-77.5 186z" />
<glyph unicode="&#x45f;" d="M140 0v1059h193v-908h474v908h193v-1059h-332v-349h-193v349h-335z" />
<glyph unicode="&#x460;" horiz-adv-x="1894" d="M119 566v295q0 129 35 236t98.5 185.5t150.5 121.5t193 43q65 0 125 -11t114 -31l-58 -153q-76 45 -181 45q-65 0 -117 -33.5t-89 -90.5t-58 -137t-21 -173v-297q0 -94 22 -173.5t61 -137.5t94.5 -91.5t122.5 -33.5q101 0 159.5 31.5t88.5 75.5v325h-193v150h583v-150 h-195v-325q28 -44 87 -75.5t161 -31.5q67 0 121 33.5t94 91.5t62 137t22 174v297q0 94 -21 173.5t-59 137.5t-90 90.5t-115 32.5q-104 0 -180 -45l-56 153q52 20 111 31t125 11q104 0 191.5 -43t152 -120.5t100.5 -185.5t36 -237v-295q0 -128 -37 -236t-102 -185.5 t-155.5 -121t-199.5 -43.5q-112 0 -198.5 28t-146.5 76q-61 -48 -148 -76t-198 -28q-109 0 -199.5 43.5t-155.5 120t-101 184t-36 238.5z" />
<glyph unicode="&#x461;" horiz-adv-x="1380" d="M44 1059h199l251 -746l16 -74h5l21 74l130 386l-114 360h197l193 -746l23 -110l6 -2l13 34q38 58 65 138.5t45 172.5t27 193.5t9 202.5v59t-2 58h199q0 -304 -73.5 -566t-219.5 -493h-147l-140 442h-6l-155 -442h-146z" />
<glyph unicode="&#x462;" horiz-adv-x="1264" d="M-50 1080v150h211v197h192v-197h225v-150h-225v-217h352q112 0 201.5 -31t151.5 -86t95 -134.5t33 -176.5q0 -98 -33 -178.5t-95 -137.5t-151.5 -88t-201.5 -31h-544v1080h-211zM353 151h352q74 0 128 23t90 62t53.5 91t17.5 110q0 56 -18.5 106.5t-54.5 87.5t-90 58 t-126 21h-352v-559z" />
<glyph unicode="&#x463;" horiz-adv-x="1089" d="M-36 1055v153h187v324h192v-324h316v-153h-316v-398h263q189 0 293.5 -91t104.5 -233q0 -70 -26 -131.5t-77.5 -106.5t-124.5 -70t-170 -25h-455v1055h-187zM343 151h263q108 0 155 52t47 122q0 35 -11.5 67.5t-36.5 57.5t-63 40.5t-91 15.5h-263v-355z" />
<glyph unicode="&#x464;" horiz-adv-x="1800" d="M186 0v1427h195v-650h193v64q0 130 40.5 242t112.5 192.5t172.5 127t220.5 46.5q121 0 218 -34t165.5 -95.5t104 -148.5t35.5 -194l-1 -6h-185q0 151 -87 238.5t-250 87.5q-82 0 -147.5 -35.5t-112 -97.5t-70.5 -144.5t-24 -176.5v-66h471v-151h-471v-40q0 -92 24 -175.5 t70 -145.5t111 -98.5t149 -36.5q163 0 250 87.5t87 240.5h185l1 -6q0 -100 -36.5 -186t-104 -150t-164.5 -100t-218 -36q-120 0 -220.5 45.5t-172.5 126.5t-112.5 192.5t-40.5 241.5v40h-193v-626h-195z" />
<glyph unicode="&#x465;" horiz-adv-x="1498" d="M149 0v1059h192v-455h173q7 100 41.5 187.5t93 151.5t141.5 100.5t189 36.5q88 0 161.5 -29.5t127 -80.5t82.5 -120t29 -149l-2 -6h-175q0 48 -17 90t-47.5 74t-70 50t-88.5 18q-67 0 -116 -25t-80.5 -68t-50 -101.5t-20.5 -123.5l2 -5h314v-152h-314l-2 -4 q2 -67 19.5 -125t50 -100.5t82 -67.5t115.5 -25q44 0 84 16.5t71.5 44.5t49.5 65t18 79h175l2 -6q0 -68 -32.5 -131.5t-86.5 -111.5t-127.5 -77t-153.5 -29q-107 0 -189.5 36t-141 99t-93 149.5t-41.5 187.5h-173v-452h-192z" />
<glyph unicode="&#x466;" horiz-adv-x="1209" d="M42 0l514 1427h166l504 -1427h-196l-147 429h-159v-429h-190v429h-147l-148 -429h-197zM444 590h385l-189 552h-6z" />
<glyph unicode="&#x467;" horiz-adv-x="1075" d="M12 0l432 1059h167l433 -1059h-197l-117 289h-104v-289h-193v289h-110l-114 -289h-197zM383 440h285l-122 307l-18 65h-7l-17 -65z" />
<glyph unicode="&#x468;" horiz-adv-x="1767" d="M205 0v1427h195v-837h372l304 837h165l503 -1427h-197l-146 429h-156v-429h-193v429h-145l-150 -429h-197l154 429h-314v-429h-195zM961 590h386l-187 552h-6z" />
<glyph unicode="&#x469;" horiz-adv-x="1517" d="M182 0v1059h193v-619h253l253 619h167l433 -1059h-196l-117 289h-105v-289h-190v289h-113l-111 -289h-197l116 287h-193v-287h-193zM821 440h286l-123 307l-19 65h-4l-17 -65z" />
<glyph unicode="&#x46a;" horiz-adv-x="1723" d="M147 0v364q0 228 120 330.5t357 102.5h37l-384 630h221l4 -8l6 2v6h953l-383 -630h22q228 0 354 -100.5t126 -332.5v-364h-195v364q0 158 -67.5 220t-217.5 62h-114l-25 -42v-604h-193v620l-15 26h-129q-74 0 -127 -13t-88.5 -46t-52.5 -87t-17 -136v-364h-192zM586 1274 l279 -477h10l277 477h-566z" />
<glyph unicode="&#x46b;" horiz-adv-x="1484" d="M147 0v159q0 222 103 323.5t304 107.5l-277 469h823h120l-278 -469q195 -10 296 -111.5t101 -319.5v-159h-193v159q0 162 -60 222.5t-186 60.5h-47l-10 -21v-421h-192v431l-7 11h-58q-130 0 -188.5 -62t-58.5 -221v-159h-192zM576 909l173 -315l172 315h-345z" />
<glyph unicode="&#x46c;" horiz-adv-x="2279" d="M186 0v1427h193v-1427h-193zM353 646v151h897v-151h-897zM703 0v364q0 228 120.5 330.5t354.5 102.5h36l-381 630h221l3 -8l6 2v6h954l-383 -630h22q231 0 354 -102.5t123 -330.5v-364h-193v364q0 158 -67 220t-217 62h-114l-25 -42v-604h-192v620l-19 26h-128 q-75 0 -127.5 -14t-88 -46t-51.5 -87t-16 -135v-364h-192zM1142 1274l279 -477h8l279 477h-566z" />
<glyph unicode="&#x46d;" horiz-adv-x="1978" d="M151 0v1059h192v-1059h-192zM253 442v150h994v-150h-994zM642 0v159q0 222 103.5 323.5t304.5 107.5l-278 469h823h121l-279 -469q195 -10 297.5 -111.5t102.5 -319.5v-159h-195v159q0 160 -59.5 221.5t-187.5 61.5h-47l-9 -21v-421h-193v431l-6 11h-58 q-130 0 -188.5 -62t-58.5 -221v-159h-193zM1072 909l173 -315l172 315h-345z" />
<glyph unicode="&#x46e;" horiz-adv-x="1038" d="M73 -121q0 127 87 190t246 63h42q126 0 198 72.5t72 190.5q0 261 -314 262h-141v151h141q151 0 223 61.5t72 176.5q0 94 -69.5 161t-206.5 67h-299v153h299q102 0 188 -27t148 -77.5t97 -121.5t35 -159q0 -102 -63.5 -181.5t-174.5 -123.5q126 -40 193 -126.5t67 -210.5 q0 -96 -33 -173.5t-94.5 -133t-147.5 -84.5t-190 -29h-50q-75 0 -109 -28t-34 -80q0 -71 47 -113t110 -70l-77 -124q-109 44 -184 124t-78 190zM217 1848v21h162l145 -147l144 147h167v-19l-251 -241h-118z" />
<glyph unicode="&#x46f;" horiz-adv-x="965" d="M73 -121q0 127 87 190t246 63h40q109 0 169.5 44t60.5 117q0 161 -274 161h-141v152h141q132 0 193.5 40t61.5 114q0 65 -60.5 106t-175.5 41h-297v152h297q93 0 171 -21t135.5 -61t89.5 -96t32 -124q0 -71 -49 -130t-139 -93q101 -32 155.5 -91.5t54.5 -145.5 q0 -75 -32 -134t-89 -99t-134.5 -62t-169.5 -22h-48q-77 0 -110 -28t-33 -80q0 -71 46 -113t111 -70l-79 -124q-52 22 -99.5 53t-83 71.5t-56.5 88.5t-21 101zM147 1511v21h162l145 -147l144 147h166v-19l-252 -241h-117z" />
<glyph unicode="&#x470;" horiz-adv-x="1386" d="M84 867v560h193v-560q0 -166 80 -269.5t215 -122.5h6v952h192v-952l7 -2q144 18 227.5 122t83.5 272v560h193v-560q0 -120 -37.5 -216.5t-103.5 -167.5t-160.5 -114.5t-209.5 -55.5v-313h-192v313q-112 11 -203.5 55t-155.5 115t-99.5 168.5t-35.5 215.5z" />
<glyph unicode="&#x471;" horiz-adv-x="1410" d="M88 584v475h195v-477q0 -205 82.5 -311t222.5 -124l6 2v910h195v-912l6 -3q86 10 150 48.5t106.5 93.5t63.5 125.5t21 144.5q-4 122 -35 247.5t-88 255.5h203q52 -103 83.5 -227.5t31.5 -275.5q0 -119 -32.5 -218t-98.5 -174.5t-168.5 -122.5t-242.5 -57v-448h-195v450 q-241 25 -373.5 172t-132.5 426z" />
<glyph unicode="&#x472;" horiz-adv-x="1368" d="M111 586v253q0 128 41 239.5t114 192.5t176.5 128.5t229.5 47.5q129 0 237 -46.5t184.5 -127t119.5 -192.5t43 -242v-253q0 -130 -43 -240.5t-119.5 -191.5t-184.5 -127.5t-237 -46.5q-124 0 -227.5 46.5t-177.5 127.5t-115 191.5t-41 240.5zM303 586q0 -100 27.5 -182.5 t75.5 -141.5t116 -92.5t150 -33.5q90 0 163.5 34.5t123.5 94.5t77 142.5t27 178.5v20q-74 -56 -174 -56q-50 0 -107.5 20t-114 45t-108 45t-88.5 20q-52 0 -98 -23t-70 -57v-14zM303 775q36 29 79 44.5t89 15.5q39 0 96 -21t117.5 -45t114.5 -45t90 -21q54 0 100.5 20 t73.5 52v66q0 96 -27 177.5t-77 141.5t-123.5 94.5t-163.5 34.5q-84 0 -152 -34.5t-116.5 -93.5t-74.5 -141.5t-26 -178.5v-66z" />
<glyph unicode="&#x473;" horiz-adv-x="1141" d="M94 517v23q0 117 33.5 215t94.5 170.5t148.5 113.5t197.5 41q109 0 197 -40t150 -111.5t96.5 -170.5t34.5 -218v-23q0 -116 -32.5 -214t-94.5 -170.5t-150.5 -112.5t-198.5 -40q-112 0 -199.5 40t-149.5 112.5t-94.5 171t-32.5 213.5zM293 433q16 -138 86.5 -220.5 t190.5 -82.5q67 0 116 26t83 71.5t52 105.5t20 131l-2 3q-23 -26 -58.5 -39.5t-77.5 -13.5q-37 0 -78 14t-80 29.5t-74 30t-61 14.5q-39 0 -71 -20t-46 -49zM295 586l4 -6q22 23 55 37.5t73 14.5q27 0 68 -14t83 -30t81 -30t63 -14q42 0 78.5 25t44.5 61 q-18 132 -87.5 214.5t-189.5 82.5q-66 0 -116 -27t-84.5 -73t-52.5 -108t-20 -133z" />
<glyph unicode="&#x474;" horiz-adv-x="1268" d="M23 1427h208l357 -1052l32 -118h6l251 907q46 144 122.5 213.5t170.5 69.5q32 0 57 -5t50 -21l-23 -149q-11 8 -38 9q-52 0 -86 -32.5t-58 -108.5l-365 -1140h-165z" />
<glyph unicode="&#x475;" horiz-adv-x="1009" d="M44 1059h199l230 -746l17 -74h6l18 74l147 524q40 126 104 184.5t146 58.5q35 0 59 -5t47 -21l-21 -147q-12 8 -39 8q-32 0 -61 -26t-41 -66l-291 -823h-147z" />
<glyph unicode="&#x476;" horiz-adv-x="1268" d="M23 1427h208l357 -1052l32 -118h6l251 907q46 144 122.5 213.5t170.5 69.5q32 0 57 -5t50 -21l-23 -149q-11 8 -38 9q-52 0 -86 -32.5t-58 -108.5l-365 -1140h-165zM96 1820l4 7h224l235 -256l-2 -6h-166zM433 1822l2 5h208l181 -262h-154z" />
<glyph unicode="&#x477;" horiz-adv-x="1009" d="M-2 1529l4 7h224l235 -256l-2 -6h-166zM44 1059h199l230 -746l17 -74h6l18 74l147 524q40 126 104 184.5t146 58.5q35 0 59 -5t47 -21l-21 -147q-12 8 -39 8q-32 0 -61 -26t-41 -66l-291 -823h-147zM335 1531l2 5h208l181 -262h-154z" />
<glyph unicode="&#x478;" horiz-adv-x="2377" d="M111 586v253q0 128 41 239.5t114 192.5t176.5 128.5t229.5 47.5q129 0 237 -46.5t184.5 -127t119.5 -192.5t43 -242v-253q0 -130 -43 -240.5t-119.5 -191.5t-184.5 -127.5t-237 -46.5q-124 0 -227.5 46.5t-177.5 127.5t-115 191.5t-41 240.5zM303 586q0 -100 27.5 -182.5 t75.5 -141.5t116 -92.5t150 -33.5q90 0 163.5 34.5t123.5 94.5t77 142.5t27 178.5v255q0 96 -27 177.5t-77 141.5t-123.5 94.5t-163.5 34.5q-84 0 -152 -34.5t-116.5 -93.5t-74.5 -141.5t-26 -178.5v-255zM1395 1059h215l223 -666l36 -134h4l260 800h215l-445 -1222 q-18 -52 -46 -99t-66.5 -84t-89.5 -59t-115 -22q-23 0 -60.5 5t-56.5 8l21 153h-2q2 0 16 -1t28.5 -1t28 -1t15.5 -1q32 0 57 16t45 41.5t36.5 57t27.5 62.5l46 111z" />
<glyph unicode="&#x479;" horiz-adv-x="2149" d="M94 517v23q0 117 33.5 215t94.5 170.5t148.5 113.5t197.5 41q109 0 197 -40t150 -111.5t96.5 -170.5t34.5 -218v-23q0 -116 -32.5 -214t-94.5 -170.5t-150.5 -112.5t-198.5 -40q-112 0 -199.5 40t-149.5 112.5t-94.5 171t-32.5 213.5zM289 517q0 -84 18 -155t53 -122 t87.5 -80.5t122.5 -29.5q69 0 122 29.5t87.5 80.5t53 122t18.5 155v23q0 82 -18.5 152t-53 122.5t-88 82.5t-123.5 30t-122.5 -29t-86.5 -81.5t-52 -123.5t-18 -153v-23zM1166 1059h215l223 -666l36 -134h4l260 800h215l-445 -1222q-18 -52 -46 -99t-66.5 -84t-89.5 -59 t-115 -22q-23 0 -60.5 5t-56.5 8l21 153h-2q2 0 16 -1t28.5 -1t28 -1t15.5 -1q32 0 57 16t45 41.5t36.5 57t27.5 62.5l46 111z" />
<glyph unicode="&#x47a;" horiz-adv-x="1368" d="M111 586v253q0 128 41 239.5t114 192.5t176.5 128.5t229.5 47.5q129 0 237 -46.5t184.5 -127t119.5 -192.5t43 -242v-253q0 -130 -43 -240.5t-119.5 -191.5t-184.5 -127.5t-237 -46.5q-124 0 -227.5 46.5t-177.5 127.5t-115 191.5t-41 240.5zM303 586q0 -100 27.5 -182.5 t75.5 -141.5t116 -92.5t150 -33.5q90 0 163.5 34.5t123.5 94.5t77 142.5t27 178.5v255q0 96 -27 177.5t-77 141.5t-123.5 94.5t-163.5 34.5q-84 0 -152 -34.5t-116.5 -93.5t-74.5 -141.5t-26 -178.5v-255zM588 -138v389h193v-389h-193zM588 1176v381h193v-381h-193z" />
<glyph unicode="&#x47b;" d="M94 517v23q0 117 33.5 215t94.5 170.5t148.5 113.5t197.5 41q109 0 197 -40t150 -111.5t96.5 -170.5t34.5 -218v-23q0 -116 -32.5 -214t-94.5 -170.5t-150.5 -112.5t-198.5 -40q-112 0 -199.5 40t-149.5 112.5t-94.5 171t-32.5 213.5zM289 517q0 -84 18 -155t53 -122 t87.5 -80.5t122.5 -29.5q69 0 122 29.5t87.5 80.5t53 122t18.5 155v23q0 82 -18.5 152t-53 122.5t-88 82.5t-123.5 30t-122.5 -29t-86.5 -81.5t-52 -123.5t-18 -153v-23zM473 -117v364h195v-364h-195zM473 819v363h195v-363h-195z" />
<glyph unicode="&#x47c;" horiz-adv-x="1894" d="M119 566v295q0 129 35 236t98.5 185.5t150.5 121.5t193 43q65 0 125 -11t112 -31l-56 -153q-76 45 -181 45q-65 0 -117 -33.5t-89 -90.5t-58 -137t-21 -173v-297q0 -94 22 -173.5t61 -137.5t94.5 -91.5t122.5 -33.5q101 0 160.5 32.5t89.5 76.5v31h193v-31 q28 -44 87 -76.5t163 -32.5q65 0 119 33.5t94 91.5t63 137t23 174v297q0 93 -21 172t-57.5 137t-90 91.5t-118.5 33.5q-107 0 -178 -45l-56 153q52 20 111 31t123 11q104 0 192.5 -43t153 -121.5t99.5 -185.5t35 -236v-295q0 -130 -37 -238t-102 -184.5t-155.5 -120 t-197.5 -43.5q-114 0 -199.5 28t-147.5 76q-64 -48 -149.5 -76t-196.5 -28q-109 0 -199.5 43.5t-155.5 120t-101 184t-36 238.5zM693 1740v36q0 107 59.5 160t172.5 53q32 0 89.5 -19t124.5 -41t135.5 -41t120.5 -19h42v-129h-44q-60 0 -134.5 19.5t-142.5 42.5t-120 42 t-67 19q-104 0 -104 -107v-16h-132zM883 1503l56 113v138h185v-122l-163 -195z" />
<glyph unicode="&#x47d;" horiz-adv-x="1620" d="M119 488v60q0 116 29.5 212.5t82 167t125.5 109.5t161 39q56 0 105.5 -11t91.5 -31l-55 -153q-29 20 -65 31t-77 11q-48 0 -86 -28t-65 -78.5t-41 -118.5t-14 -148v-62q0 -76 16 -141.5t45.5 -114t70.5 -75.5t89 -27q79 0 122 31.5t68 77.5v31h195v-31q23 -46 67 -77.5 t123 -31.5q48 0 89 27t70 75.5t46 114t17 141.5v62q0 80 -15.5 148t-42 118.5t-65 78.5t-84.5 28q-42 0 -77.5 -10.5t-65.5 -31.5l-56 153q42 20 91 31t108 11q86 0 159 -39t126.5 -109.5t83.5 -168t30 -211.5v-60q0 -113 -31 -205t-86.5 -160.5t-130 -105.5t-166.5 -37 t-164 29t-124 79q-52 -50 -124.5 -79t-162.5 -29q-92 0 -168.5 37t-131 105.5t-84 160.5t-29.5 205zM556 1396v37q0 107 60 159.5t173 52.5q30 0 88 -19t125.5 -41t134.5 -41t119 -19h44v-127h-46q-57 0 -130.5 19.5t-142 41.5t-121 41t-67.5 19q-50 0 -78.5 -26t-28.5 -78 v-19h-130zM747 1160l56 112v139h185v-120l-163 -195z" />
<glyph unicode="&#x47e;" horiz-adv-x="1894" d="M119 566v295q0 129 35 236t98.5 185.5t150.5 121.5t193 43q65 0 125 -11t114 -31l-58 -153q-76 45 -181 45q-65 0 -117 -33.5t-89 -90.5t-58 -137t-21 -173v-297q0 -94 22 -173.5t61 -137.5t94.5 -91.5t122.5 -33.5q101 0 159.5 31.5t88.5 75.5v325h-193v150h583v-150 h-195v-325q28 -44 87 -75.5t161 -31.5q67 0 121 33.5t94 91.5t62 137t22 174v297q0 94 -21 173.5t-59 137.5t-90 90.5t-115 32.5q-104 0 -180 -45l-56 153q52 20 111 31t125 11q104 0 191.5 -43t152 -120.5t100.5 -185.5t36 -237v-295q0 -128 -37 -236t-102 -185.5 t-155.5 -121t-199.5 -43.5q-112 0 -198.5 28t-146.5 76q-61 -48 -148 -76t-198 -28q-109 0 -199.5 43.5t-155.5 120t-101 184t-36 238.5zM534 1532v228h805v-228h-173v122h-151v-122h-174v122h-136v-122h-171z" />
<glyph unicode="&#x47f;" horiz-adv-x="1380" d="M44 1059h199l230 -746l37 -74h5l21 74l130 386l-114 360h197l193 -746l23 -110l6 -2l13 34q38 58 65 138.5t45 172.5t27 193.5t9 202.5v59t-2 58h199q0 -304 -73.5 -566t-219.5 -493h-147l-140 442h-6l-155 -442h-146zM303 1202v229h804v-231h-172v125h-150v-125h-174 v125h-138v-123h-170z" />
<glyph unicode="&#x480;" horiz-adv-x="1308" d="M117 586v253q0 132 40 244t112 192.5t172.5 126t220.5 45.5q123 0 220 -33t164.5 -95.5t103.5 -148.5t36 -193l-2 -6h-184q0 151 -88.5 238.5t-249.5 87.5q-84 0 -149 -36.5t-110 -98.5t-69.5 -145.5t-24.5 -175.5v-255q0 -96 24.5 -178.5t70.5 -144.5t111 -97.5 t147 -35.5h113v-505h-191v361q-107 14 -193 65t-147.5 130.5t-94 182.5t-32.5 222z" />
<glyph unicode="&#x481;" horiz-adv-x="1077" d="M96 510v40q0 111 32.5 207t92.5 168.5t146.5 113.5t194.5 41q86 0 161.5 -29.5t129.5 -79.5t85 -120t31 -150l-2 -6h-174q0 46 -18 88t-49 74t-73 51t-91 19q-69 0 -120 -31t-85 -82.5t-51 -120.5t-17 -143v-40q0 -77 17 -146t50 -121t84.5 -82.5t121.5 -30.5h104v-505 h-195v363q-90 14 -159 61t-117 116.5t-73.5 158t-25.5 186.5z" />
<glyph unicode="&#x482;" horiz-adv-x="1256" d="M111 558l67 120l288 -166l198 357l-285 167l73 124l285 -168l182 322h167l-225 -397l287 -168l-72 -123l-283 169l-201 -358l283 -168l-70 -122l-286 166l-176 -313h-171l221 389z" />
<glyph unicode="&#x483;" horiz-adv-x="1141" d="M209 1166v229h532v106h172v-212h-534v-123h-170z" />
<glyph unicode="&#x484;" horiz-adv-x="1183" d="M247 1277v128h42q50 0 118 19.5t136 41.5t125.5 40.5t88.5 18.5q112 0 173.5 -53t61.5 -160v-35h-133v18q0 52 -29 77.5t-77 25.5q-16 0 -68.5 -18.5t-120.5 -42t-141.5 -42t-131.5 -18.5h-44z" />
<glyph unicode="&#x485;" horiz-adv-x="770" d="M251 1469v121h182v-137l59 -114l-80 -65z" />
<glyph unicode="&#x486;" horiz-adv-x="830" d="M293 1339l56 114v137h185v-121l-161 -195z" />
<glyph unicode="&#x488;" horiz-adv-x="2034" d="M62 484q0 79 53.5 128.5t147.5 49.5q92 0 146.5 -50t54.5 -128l-2 -7h-102q0 44 -23.5 71.5t-73.5 27.5t-73 -28.5t-23 -70.5h-102zM224 -26q0 82 53.5 130.5t147.5 48.5q96 0 148.5 -49.5t52.5 -129.5v-6h-105q0 44 -23 72.5t-73 28.5t-72 -29.5t-22 -71.5h-105z M235 975q0 82 53 130.5t147 48.5q98 0 149.5 -50t51.5 -129l-2 -6h-100q0 42 -24 71.5t-75 29.5q-48 0 -71 -29.5t-23 -71.5h-104zM797 1249q0 76 51.5 126t149.5 50q96 0 148.5 -50t52.5 -126l-2 -6h-103q0 40 -24 69t-72 29q-50 0 -73 -29t-23 -69h-103zM801 -303 q0 79 49.5 128t151.5 49q100 0 150 -51t50 -126l-2 -6h-102q0 44 -23 71t-73 27t-72.5 -27t-22.5 -71h-104zM1367 -26q0 78 50 128.5t148 50.5q100 0 150.5 -52.5t50.5 -126.5l-2 -6h-100q0 44 -24 72.5t-75 28.5q-48 0 -71 -29.5t-23 -71.5h-102zM1377 975q0 80 51 129.5 t148 49.5q92 0 147.5 -48.5t55.5 -130.5l-3 -6h-104q0 44 -23 72.5t-73 28.5t-72.5 -29.5t-22.5 -71.5h-102zM1559 484q0 75 50.5 126.5t148.5 51.5q94 0 148.5 -50t54.5 -128l-2 -7h-103q0 44 -23 71.5t-75 27.5q-48 0 -71 -28.5t-23 -70.5h-103z" />
<glyph unicode="&#x489;" horiz-adv-x="1966" d="M76 534v96l340 -70v-137l-14 -9zM267 -78l287 197l97 -99l-2 -16l-314 -151zM351 1164l65 68l233 -293l-137 -96l-16 2zM879 -406l69 348h134l10 -15l-119 -333h-94zM879 1118l121 331h92v-346h-201zM1321 981l2 17l313 150l68 -66q-38 -25 -289 -197zM1361 60l94 99 l16 -2l147 -320l-65 -70zM1555 482v136l12 12l327 -122v-94z" />
<glyph unicode="&#x48a;" horiz-adv-x="1410" d="M169 0v1427h195v-1088l5 -2l686 1090h194v-1427h-194v1088l-5 2l-686 -1090h-195zM423 1827l2 6h149q0 -65 33 -104.5t105 -39.5q71 0 106 40t35 104h149l1 -6q0 -115 -76 -186t-215 -71q-134 0 -211.5 71t-77.5 186zM1146 -291l71 309v161h192v-171l-146 -299h-117z" />
<glyph unicode="&#x48b;" d="M140 0v1059h193v-752l4 -2l470 754h193v-1059h-193v753l-6 2l-468 -755h-193zM281 1492l2 6h149q0 -65 33 -104.5t105 -39.5q71 0 106 40t35 104h149l1 -6q0 -115 -76 -186t-215 -71q-134 0 -211.5 71t-77.5 186zM897 -291l71 309v161h192v-171l-146 -299h-117z" />
<glyph unicode="&#x48c;" horiz-adv-x="1264" d="M-50 1080v150h211v197h192v-197h225v-150h-225v-217h352q112 0 201.5 -31t151.5 -86t95 -134.5t33 -176.5q0 -98 -33 -178.5t-95 -137.5t-151.5 -88t-201.5 -31h-544v1080h-211zM353 151h352q74 0 128 23t90 62t53.5 91t17.5 110q0 56 -18.5 106.5t-54.5 87.5t-90 58 t-126 21h-352v-559z" />
<glyph unicode="&#x48d;" horiz-adv-x="1089" d="M-69 783v152h220v124h192v-124h217v-152h-217v-126h263q189 0 293.5 -91t104.5 -233q0 -70 -26 -131.5t-77.5 -106.5t-124.5 -70t-170 -25h-455v783h-220zM343 151h263q108 0 155 52t47 122q0 35 -11.5 67.5t-36.5 57.5t-63 40.5t-91 15.5h-263v-355z" />
<glyph unicode="&#x48e;" horiz-adv-x="1266" d="M161 0v1427h546q112 0 201.5 -31t151.5 -87.5t95 -135.5t33 -173q0 -96 -33 -174.5t-94 -135t-150.5 -87.5t-203.5 -31h-354v-572h-192zM353 722h354q72 0 126 21t90 59.5t53.5 87.5t17.5 108q0 57 -18.5 108.5t-53.5 88.5t-89 58t-126 21h-354v-552zM659 863l136 68 l251 -477l-139 -71z" />
<glyph unicode="&#x48f;" d="M140 -408v1467h149l30 -136q104 157 309 157q98 0 175.5 -42t131 -117.5t81.5 -180t28 -230.5v-20q0 -115 -28 -208t-81.5 -160.5t-131 -104.5t-173.5 -37q-191 0 -297 131v-519h-193zM333 269q36 -65 95.5 -102t143.5 -37q138 0 208.5 100.5t70.5 259.5v20 q0 86 -17 161.5t-52 131.5t-88.5 88t-123.5 32q-84 0 -142.5 -38t-94.5 -102v-514zM560 277l145 54l170 -463l-145 -54z" />
<glyph unicode="&#x490;" horiz-adv-x="1101" d="M161 0v1427h684v327h195v-480h-195h-492v-1274h-192z" />
<glyph unicode="&#x491;" horiz-adv-x="896" d="M140 0v1059h486v310h193v-462h-486v-907h-193z" />
<glyph unicode="&#x492;" horiz-adv-x="1099" d="M-20 668v151h181v608h875v-153h-683v-455h256v-151h-256v-668h-192v668h-181z" />
<glyph unicode="&#x493;" horiz-adv-x="832" d="M-12 466v152h152v441h674v-152h-481v-289h283v-152h-283v-466h-193v466h-152z" />
<glyph unicode="&#x494;" horiz-adv-x="1211" d="M161 0v1427h875v-153h-683v-417h243q116 0 212 -33t165 -93.5t107 -146.5t38 -193q-2 -67 -26 -138t-72.5 -134t-118.5 -110t-162 -63l-51 144q126 34 180.5 110.5t54.5 190.5q0 144 -91 225t-236 81h-243v-697h-192z" />
<glyph unicode="&#x495;" horiz-adv-x="1011" d="M140 0v1059h674v-152h-481v-246h90q115 0 210 -33.5t164.5 -94t109 -146.5t39.5 -194q-2 -67 -26.5 -138t-71.5 -133t-118 -109.5t-164 -63.5l-51 144q127 34 181.5 109.5t54.5 190.5q0 144 -91.5 224.5t-236.5 80.5h-90v-498h-193z" />
<glyph unicode="&#x496;" horiz-adv-x="1653" d="M26 0l484 755l-445 672h226l379 -620h65v620h190v-620h56l382 620h225l-446 -672l486 -755h-241l-408 655h-54v-655h-190v655h-63l-407 -655h-239zM1503 155h193v-506h-193v506z" />
<glyph unicode="&#x497;" horiz-adv-x="1442" d="M26 0l395 560l-363 499h235l279 -435h52v435h193v-435h54l281 435h231l-362 -499l396 -560h-243l-299 460h-58v-460h-193v460h-56l-299 -460h-243zM1260 155h193v-506h-193v506z" />
<glyph unicode="&#x498;" horiz-adv-x="1356" d="M122 389l2 6h185q0 -56 25.5 -104t71.5 -84t110 -56.5t141 -20.5q176 0 274.5 73.5t98.5 189.5q0 257 -358 258h-178v152h178q171 0 253 64t82 179q0 110 -90 180.5t-260 70.5q-67 0 -127.5 -18.5t-104.5 -51t-70 -77.5t-26 -96h-185v5q0 89 39 160.5t109 122.5t163 78 t202 27q126 0 226.5 -27t170.5 -79t108 -127.5t38 -171.5q0 -100 -66 -181.5t-184 -127.5q132 -42 202 -127t70 -208q0 -98 -41 -176t-116 -132t-179.5 -82t-228.5 -28q-111 0 -208.5 26t-169.5 77t-114.5 127.5t-42.5 178.5zM439 -370l32 121q30 -10 57 -18t60 -8 q59 0 86.5 24t27.5 65q0 48 -34 90t-92 88l88 67q102 -52 153.5 -121.5t51.5 -146.5q0 -96 -64.5 -150.5t-166.5 -54.5q-67 0 -113 13.5t-86 30.5z" />
<glyph unicode="&#x499;" horiz-adv-x="1080" d="M104 307l3 6h182q0 -37 19 -69.5t52 -58.5t79.5 -41.5t100.5 -15.5q111 0 181 49t70 122q0 84 -59.5 123.5t-179.5 39.5h-205v158h205q114 0 166 38.5t52 111.5q0 62 -57.5 110.5t-172.5 48.5q-50 0 -93 -12.5t-74.5 -35t-49.5 -52.5t-18 -65h-183l-1 6q0 69 31.5 126.5 t88 97.5t134 62t165.5 22q195 0 309 -79.5t114 -228.5q0 -72 -47 -132t-131 -94q96 -32 147.5 -93.5t51.5 -151.5q0 -77 -33.5 -134.5t-91.5 -99t-140.5 -62.5t-178.5 -21q-90 0 -170.5 21t-139 61t-92.5 101t-34 142zM311 -370l32 121q30 -10 57 -18t60 -8q59 0 86.5 24 t27.5 65q0 48 -34 90t-92 88l88 67q102 -52 153.5 -121.5t51.5 -146.5q0 -96 -64.5 -150.5t-166.5 -54.5q-67 0 -113 13.5t-86 30.5z" />
<glyph unicode="&#x49a;" horiz-adv-x="1275" d="M167 0v1427h193v-632h106l530 632h216l2 -6l-578 -674l618 -743v-4h-235l-533 644h-126v-644h-193zM1126 155h193v-506h-193v506z" />
<glyph unicode="&#x49b;" horiz-adv-x="1097" d="M151 0v1059h192v-447h82l380 447h227l2 -4l-442 -503l473 -548l-2 -4h-236l-385 450h-99v-450h-192zM923 155h193v-506h-193v506z" />
<glyph unicode="&#x49c;" horiz-adv-x="1268" d="M161 0v1427h192v-632h97v251h152v-251h74l312 632h224l-389 -674l431 -753h-243l-333 644h-76v-236h-152v236h-97v-644h-192z" />
<glyph unicode="&#x49d;" horiz-adv-x="1105" d="M151 0v1059h192v-447h74v207h153v-207h16l249 447h230l-330 -501l365 -558h-243l-265 450h-22v-187h-153v187h-74v-450h-192z" />
<glyph unicode="&#x49e;" horiz-adv-x="1275" d="M-40 1130v153h207v144h193v-144h228v-153h-228v-335h106l530 632h216l2 -6l-578 -674l618 -743v-4h-235l-533 644h-126v-644h-193v1130h-207z" />
<glyph unicode="&#x49f;" horiz-adv-x="1029" d="M-69 1190v151h209v189h195v-189h225v-151h-225v-548h96l320 417h230l-385 -487l417 -572h-226l-354 490h-98v-490h-195v1190h-209z" />
<glyph unicode="&#x4a0;" horiz-adv-x="1711" d="M73 1274v153h718v-632h104l530 632h217l1 -6l-578 -674l621 -743l-2 -4h-235l-534 644h-124v-644h-195v1274h-523z" />
<glyph unicode="&#x4a1;" horiz-adv-x="1448" d="M48 907v152h666v-447h83l379 447h227l2 -4l-440 -503l474 -548l-2 -4h-237l-386 450h-100v-450h-193v907h-473z" />
<glyph unicode="&#x4a2;" horiz-adv-x="1412" d="M167 0v1427h193v-644h692v644h195v-1427h-195v630h-692v-630h-193zM1194 155h193v-506h-193v506z" />
<glyph unicode="&#x4a3;" d="M140 0v1059h193v-457h472v457h195v-1059h-195v452h-472v-452h-193zM947 155h193v-506h-193v506z" />
<glyph unicode="&#x4a4;" horiz-adv-x="1936" d="M167 0v1427h193v-644h692v644h813v-153h-620v-1274h-193v630h-692v-630h-193z" />
<glyph unicode="&#x4a5;" horiz-adv-x="1426" d="M140 0v1059h193v-457h472v457h547v-152h-352v-907h-195v452h-472v-452h-193z" />
<glyph unicode="&#x4a6;" horiz-adv-x="2044" d="M165 0v1427h1082v-564h212q111 0 206 -32t165 -92.5t109.5 -146.5t39.5 -197q-2 -65 -26 -135.5t-70 -134t-117.5 -110.5t-166.5 -63l-50 144q127 34 182.5 110.5t55.5 188.5q0 72 -25 129.5t-69 97t-103.5 60.5t-130.5 21h-212v-703h-195v1274h-694v-1274h-193z" />
<glyph unicode="&#x4a7;" horiz-adv-x="1751" d="M140 0v1059h860v-397h166q115 0 210 -32t164 -92.5t107.5 -146.5t38.5 -194q-2 -67 -26 -138t-71 -134t-117.5 -110.5t-165.5 -63.5l-50 145q127 34 181.5 110t54.5 191q0 73 -24 128.5t-69 95t-103.5 60.5t-129.5 21h-166v-502h-193v907h-474v-907h-193z" />
<glyph unicode="&#x4a8;" horiz-adv-x="1368" d="M111 586v255q0 130 41 241t115 189.5t176.5 124t224.5 45.5l4 -2v-150q-84 0 -152 -33.5t-116.5 -93t-74.5 -141.5t-26 -178v-257q0 -100 27.5 -182.5t75.5 -141.5t116 -92.5t150 -33.5q123 0 213 69q-163 40 -259 158.5t-96 280.5v59q0 84 26 157t74 126.5t115 83.5 t148 30q80 0 146 -29t114.5 -82.5t75.5 -126.5t27 -159v-79q0 -138 -43 -256.5t-119.5 -204t-184.5 -134.5t-237 -49q-122 0 -225.5 45.5t-177.5 126.5t-116 192.5t-42 241.5zM722 642q0 -121 74.5 -202.5t207.5 -94.5q28 58 43.5 128.5t15.5 150.5v81q0 102 -45 170.5 t-125 68.5q-81 0 -126 -68.5t-45 -170.5v-63z" />
<glyph unicode="&#x4a9;" d="M94 484v52q0 117 35.5 215t98.5 170.5t151 112.5t195 40l6 -2v-151q-70 0 -123 -29t-91.5 -80.5t-57.5 -121.5t-19 -152v-54q0 -76 20 -139.5t57.5 -109.5t91.5 -72.5t122 -26.5q58 0 106 25q-109 32 -168.5 118.5t-59.5 199.5v36q0 62 21 116.5t59 95.5t92 64t121 23 q61 0 114.5 -24t94 -67t63.5 -101t23 -126v-34q0 -102 -36.5 -191t-99.5 -153t-147.5 -101t-182.5 -37q-109 0 -198 38t-153 105.5t-99.5 159.5t-35.5 201zM651 477q0 -80 44 -130t122 -50q16 36 25 78t9 87v36q0 66 -31 113.5t-69 47.5q-46 0 -73 -42.5t-27 -99.5v-40z" />
<glyph unicode="&#x4aa;" horiz-adv-x="1270" d="M117 586v253q0 132 40 244t112 192.5t172.5 126t220.5 45.5q123 0 220 -33t164.5 -95.5t103.5 -148.5t36 -193l-2 -6h-184q0 151 -88.5 238.5t-249.5 87.5q-84 0 -149 -36.5t-110 -98.5t-69.5 -145.5t-24.5 -175.5v-255q0 -96 24.5 -178.5t70.5 -144.5t111 -97.5 t147 -35.5q161 0 249.5 86.5t88.5 241.5h184l2 -6q0 -100 -36 -187t-104.5 -150t-165.5 -99t-218 -36q-120 0 -220.5 45.5t-172.5 126.5t-112 191.5t-40 242.5zM435 -370l32 121q30 -10 57 -18t60 -8q59 0 86.5 24t27.5 65q0 48 -34 90t-92 88l88 67q102 -52 153.5 -121.5 t51.5 -146.5q0 -96 -64.5 -150.5t-166.5 -54.5q-67 0 -113 13.5t-86 30.5z" />
<glyph unicode="&#x4ab;" horiz-adv-x="1049" d="M94 510v40q0 111 31.5 207t90.5 168.5t146.5 113.5t199.5 41q88 0 161.5 -29.5t127 -80.5t82 -120t28.5 -149l-2 -6h-174q0 48 -17 90t-47 74t-70 50t-89 18q-73 0 -125 -30t-85 -81.5t-48 -119.5t-15 -146v-40q0 -79 15 -148t48 -120t85 -81.5t125 -30.5q44 0 84 16.5 t71.5 44.5t49.5 65t18 79h174l2 -6q0 -68 -32 -131.5t-86 -111.5t-127.5 -77t-153.5 -29q-115 0 -202 41t-146 113.5t-89.5 169t-30.5 206.5zM307 -370l32 121q30 -10 57 -18t60 -8q59 0 86.5 24t27.5 65q0 48 -34 90t-92 88l88 67q102 -52 153.5 -121.5t51.5 -146.5 q0 -96 -64.5 -150.5t-166.5 -54.5q-67 0 -113 13.5t-86 30.5z" />
<glyph unicode="&#x4ac;" horiz-adv-x="1199" d="M36 1274v153h1128v-153h-469v-1274h-193v1274h-466zM642 155h193v-506h-193v506z" />
<glyph unicode="&#x4ad;" horiz-adv-x="1027" d="M71 911v148h886v-148h-348v-911h-193v911h-345zM556 155h193v-506h-193v506z" />
<glyph unicode="&#x4ae;" horiz-adv-x="1268" d="M40 1427h219l373 -724l372 724h220l-500 -925v-502h-192v515z" />
<glyph unicode="&#x4af;" horiz-adv-x="1009" d="M44 1059h199l251 -746l16 -74h5l21 74l243 746h196l-366 -999v-470h-193v477z" />
<glyph unicode="&#x4b0;" horiz-adv-x="1268" d="M40 1427h219l373 -724l372 724h220l-410 -759h117v-153h-198l-9 -13v-502h-192v515h-229v153h147z" />
<glyph unicode="&#x4b1;" horiz-adv-x="1009" d="M44 1059h199l251 -746l16 -74h5l21 74l243 746h196l-339 -921h197v-150h-224v-398h-193v398h-211v150h182z" />
<glyph unicode="&#x4b2;" horiz-adv-x="1268" d="M65 0l463 718l-454 709h231l331 -556l333 556h235l-453 -709l461 -718h-228l-344 566l-343 -566h-232zM1046 155h193v-506h-193v506z" />
<glyph unicode="&#x4b3;" horiz-adv-x="1009" d="M44 0l356 536l-346 523h223l223 -391l224 391h228l-346 -523l355 -536h-222l-235 402l-235 -402h-225zM820 155h193v-506h-193v506z" />
<glyph unicode="&#x4b4;" horiz-adv-x="1810" d="M54 1272v153h358h578v-153h-386v-1119h694v1274h196v-1268h164v-506h-193v347h-1053v1272h-358z" />
<glyph unicode="&#x4b5;" horiz-adv-x="1398" d="M32 909v152h692v-152h-236v-758h473v908h193v-908h129v-498h-193v347h-797v909h-261z" />
<glyph unicode="&#x4b6;" horiz-adv-x="1368" d="M144 975v452h193v-452q0 -163 69 -223.5t218 -60.5q102 0 195.5 12.5t189.5 41.5v682h195v-1427h-195v590q-48 -14 -92 -24t-89 -16t-94.5 -9t-109.5 -3q-237 0 -358.5 102.5t-121.5 334.5zM1151 155h193v-506h-193v506z" />
<glyph unicode="&#x4b7;" horiz-adv-x="1107" d="M124 751v310h194v-310q0 -129 54.5 -189t163.5 -60q125 0 239 30v527h192v-1059h-192v379q-56 -15 -114.5 -22.5t-124.5 -7.5q-189 0 -300.5 99.5t-111.5 302.5zM917 155h193v-506h-193v506z" />
<glyph unicode="&#x4b8;" horiz-adv-x="1370" d="M144 975v452h193v-452q0 -163 69 -223.5t218 -60.5q102 0 195.5 12.5t189.5 41.5v682h195v-1427h-195v590q-48 -14 -92 -24t-89 -16t-94.5 -9t-109.5 -3q-237 0 -358.5 102.5t-121.5 334.5zM626 309v689h157v-689h-157z" />
<glyph unicode="&#x4b9;" horiz-adv-x="1109" d="M124 751v310h194v-310q0 -129 54.5 -189t163.5 -60q125 0 239 30v527h192v-1059h-192v379q-56 -15 -114.5 -22.5t-124.5 -7.5q-189 0 -300.5 99.5t-111.5 302.5zM479 224v555h155v-555h-155z" />
<glyph unicode="&#x4ba;" horiz-adv-x="1370" d="M134 0v1427h195v-590q50 12 93.5 22t88.5 17t94.5 10t108.5 3q238 0 359.5 -103.5t121.5 -333.5v-452h-193v452q0 157 -67.5 221t-220.5 64q-102 0 -195.5 -14t-189.5 -41v-682h-195z" />
<glyph unicode="&#x4bb;" horiz-adv-x="1109" d="M147 2v1059h192v-379q56 15 114.5 22.5t124.5 7.5q189 0 300.5 -99.5t111.5 -302.5v-310h-194v310q0 129 -54.5 189t-163.5 60q-125 0 -239 -30v-527h-192z" />
<glyph unicode="&#x4bc;" horiz-adv-x="1703" d="M80 1055l2 4h146q0 -90 40.5 -151t124.5 -79q14 134 64.5 247.5t128.5 195.5t178.5 128t214.5 46q138 0 244 -45t178 -129t109 -205t37 -274v-107h-957l-2 -4q0 -120 28 -221t87 -175.5t152 -116t219 -41.5q52 0 95 5t82.5 16.5t75.5 26.5t76 35l46 -137 q-50 -34 -143.5 -65.5t-231.5 -31.5q-163 0 -290 51.5t-214.5 145t-134 224t-46.5 288.5v7q-157 22 -233 115.5t-76 246.5zM590 825l4 -6h760v30q0 98 -21 180.5t-66 141.5t-116.5 91.5t-171.5 32.5q-84 0 -153 -36.5t-118 -99.5t-79.5 -148.5t-38.5 -185.5z" />
<glyph unicode="&#x4bd;" horiz-adv-x="1189" d="M-32 849h154q0 -140 91 -187q13 93 54.5 169t100.5 131t133.5 86.5t157.5 31.5q106 0 185 -35.5t132.5 -99.5t80.5 -153t27 -196v-102h-678l-4 -4q0 -80 16.5 -146.5t52 -114t89.5 -73.5t128 -26q98 0 172.5 27t127.5 78l73 -124q-56 -56 -148.5 -93.5t-224.5 -37.5 q-117 0 -207 38t-151 108.5t-93 167.5t-32 216v7q-119 29 -178 114t-59 218zM410 651l2 -5h477v16q0 56 -13 104t-42 84.5t-72.5 56.5t-102.5 20q-102 0 -168 -78.5t-81 -197.5z" />
<glyph unicode="&#x4be;" horiz-adv-x="1703" d="M80 1055l2 4h146q0 -90 40.5 -151t124.5 -79q14 134 64.5 247.5t128.5 195.5t178.5 128t214.5 46q138 0 244 -45t178 -129t109 -205t37 -274v-107h-957l-2 -4q0 -120 28 -221t87 -175.5t152 -116t219 -41.5q52 0 95 5t82.5 16.5t75.5 26.5t76 35l46 -137 q-50 -34 -143.5 -65.5t-231.5 -31.5q-163 0 -290 51.5t-214.5 145t-134 224t-46.5 288.5v7q-157 22 -233 115.5t-76 246.5zM590 825l4 -6h760v30q0 98 -21 180.5t-66 141.5t-116.5 91.5t-171.5 32.5q-84 0 -153 -36.5t-118 -99.5t-79.5 -148.5t-38.5 -185.5zM657 -219 q0 79 58.5 149t183.5 126l70 -56q-68 -52 -106 -98t-38 -99q0 -40 21 -64t73 -24q27 0 49 7.5t47 18.5l33 -120q-35 -20 -78 -32t-101 -12q-90 0 -151 52t-61 152z" />
<glyph unicode="&#x4bf;" horiz-adv-x="1189" d="M-32 849h154q0 -140 91 -187q13 93 54.5 169t100.5 131t133.5 86.5t157.5 31.5q106 0 185 -35.5t132.5 -99.5t80.5 -153t27 -196v-102h-678l-4 -4q0 -80 16.5 -146.5t52 -114t89.5 -73.5t128 -26q98 0 172.5 27t127.5 78l73 -124q-56 -56 -148.5 -93.5t-224.5 -37.5 q-117 0 -207 38t-151 108.5t-93 167.5t-32 216v7q-119 29 -178 114t-59 218zM400 -219q0 79 58.5 149t183.5 126l70 -56q-68 -52 -106 -98t-38 -99q0 -40 21 -64t73 -24q27 0 49 7.5t47 18.5l33 -120q-35 -20 -78 -32t-101 -12q-90 0 -151 52t-61 152zM410 651l2 -5h477v16 q0 56 -13 104t-42 84.5t-72.5 56.5t-102.5 20q-102 0 -168 -78.5t-81 -197.5z" />
<glyph unicode="&#x4c0;" horiz-adv-x="567" d="M186 0v1427h193v-1427h-193z" />
<glyph unicode="&#x4c1;" horiz-adv-x="1653" d="M26 0l484 755l-445 672h226l379 -620h65v620h190v-620h56l382 620h225l-446 -672l486 -755h-241l-408 655h-54v-655h-190v655h-63l-407 -655h-239zM538 1827l2 6h149q0 -65 33 -104.5t105 -39.5q71 0 106 40t35 104h149l1 -6q0 -115 -76 -186t-215 -71q-134 0 -211.5 71 t-77.5 186z" />
<glyph unicode="&#x4c2;" horiz-adv-x="1442" d="M26 0l395 560l-363 499h235l279 -435h52v435h193v-435h54l281 435h231l-362 -499l396 -560h-243l-299 460h-58v-460h-193v460h-56l-299 -460h-243zM431 1492l2 6h149q0 -65 33 -104.5t105 -39.5q71 0 106 40t35 104h149l1 -6q0 -115 -76 -186t-215 -71q-134 0 -211.5 71 t-77.5 186z" />
<glyph unicode="&#x4c3;" horiz-adv-x="1268" d="M161 0v1427h192v-632h124l511 632h218l2 -6l-515 -626q113 -2 206 -34.5t159 -92t102.5 -148.5t36.5 -202q-2 -71 -30.5 -145.5t-83.5 -139.5t-136.5 -114t-189.5 -68l-50 147q156 34 226.5 116.5t70.5 203.5q0 162 -89.5 239t-240.5 77h-321v-634h-192z" />
<glyph unicode="&#x4c4;" horiz-adv-x="1097" d="M151 0v1059h192v-447h82l380 447h227l2 -4l-398 -455q176 -29 284 -137t108 -291q-2 -61 -26.5 -129.5t-71.5 -129t-117 -105.5t-164 -61l-51 146q126 33 181.5 103.5t55.5 175.5q0 143 -88 210.5t-239 67.5h-165v-450h-192z" />
<glyph unicode="&#x4c5;" horiz-adv-x="1410" d="M48 0v151h40q67 0 115 32t79 104.5t46 187.5t15 280l2 672h902v-1427h-195v1274h-514l-2 -519q0 -197 -24 -339.5t-76.5 -235t-135.5 -136.5t-200 -44h-52zM1144 -291l71 309v161h192v-171l-146 -299h-117z" />
<glyph unicode="&#x4c6;" horiz-adv-x="1109" d="M30 0v165l41 2q51 0 86.5 24t56.5 77t30 137.5t9 203.5v450h747v-1059h-193v907h-359v-298q0 -157 -19 -273t-63.5 -189.5t-114 -110t-171.5 -36.5h-50zM897 -291l71 309v161h192v-171l-146 -299h-117z" />
<glyph unicode="&#x4c7;" horiz-adv-x="1410" d="M167 0v1427h193v-644h692v644h193v-1513q0 -165 -84.5 -253t-235.5 -88q-30 0 -56 4t-55 11l15 149q6 -2 19 -4.5t28 -5t29 -3.5t20 -1q58 0 92.5 50.5t34.5 140.5v716h-692v-630h-193z" />
<glyph unicode="&#x4c8;" d="M140 0v1059h193v-457h472v457h195v-1145q0 -165 -85.5 -253t-236.5 -88q-30 0 -55 4t-53 11l14 149q6 -4 19 -5.5t28 -4t28 -3.5t19 -1q58 0 92.5 50.5t34.5 140.5v538h-472v-452h-193z" />
<glyph unicode="&#x4c9;" horiz-adv-x="1412" d="M167 0v1427h193v-644h692v644h195v-1427h-195v630h-692v-630h-193zM1144 -291l71 309v161h192v-171l-146 -299h-117z" />
<glyph unicode="&#x4ca;" d="M140 0v1059h193v-457h472v457h195v-1059h-195v452h-472v-452h-193zM897 -291l71 309v161h192v-171l-146 -299h-117z" />
<glyph unicode="&#x4cb;" horiz-adv-x="1368" d="M144 975v452h193v-452q0 -163 69 -223.5t218 -60.5q102 0 195.5 12.5t189.5 41.5v682h195v-1427h-195v590q-48 -14 -92 -24t-89 -16t-94.5 -9t-109.5 -3q-237 0 -358.5 102.5t-121.5 334.5zM866 155h193v-506h-193v506z" />
<glyph unicode="&#x4cc;" horiz-adv-x="1107" d="M124 751v310h194v-310q0 -129 54.5 -189t163.5 -60q125 0 239 30v527h192v-1059h-192v379q-56 -15 -114.5 -22.5t-124.5 -7.5q-189 0 -300.5 99.5t-111.5 302.5zM632 155h193v-506h-193v506z" />
<glyph unicode="&#x4cd;" horiz-adv-x="1743" d="M167 0v1427h252l456 -1160h4l458 1160h239v-1427h-193v1070h-6l-431 -1070h-136l-444 1105l-6 -2v-1103h-193zM1473 -291l71 309v161h192v-171l-146 -299h-117z" />
<glyph unicode="&#x4ce;" horiz-adv-x="1496" d="M151 0v1059h249l345 -806h6l345 806h243v-1059h-195v737l-6 2l-326 -739h-132l-331 755l-6 -2v-753h-192zM1236 -291l71 309v161h192v-171l-146 -299h-117z" />
<glyph unicode="&#x4cf;" horiz-adv-x="567" d="M186 0v1427h193v-1427h-193z" />
<glyph unicode="&#x4d0;" horiz-adv-x="1268" d="M42 0l514 1427h166l504 -1427h-196l-126 368h-536l-129 -368h-197zM345 1827l2 6h149q0 -65 33 -104.5t105 -39.5q71 0 106 40t35 104h149l1 -6q0 -115 -76 -186t-215 -71q-134 0 -211.5 71t-77.5 186zM421 530h428l-209 612h-6z" />
<glyph unicode="&#x4d1;" horiz-adv-x="1103" d="M104 297q0 76 32.5 136.5t91.5 102.5t143.5 64t188.5 22h210v104q0 94 -56.5 147.5t-161.5 53.5q-94 0 -151.5 -47t-57.5 -112l-182 -2l-2 6q0 58 28 114t81 99t127 69t169 26q88 0 161.5 -23t127 -68t82 -112t28.5 -153v-511q0 -56 6 -108.5t23 -104.5h-199 q-10 48 -16.5 84.5t-6.5 74.5q-54 -75 -139 -127t-187 -52q-167 0 -253.5 83.5t-86.5 233.5zM254 1511l2 6h149q0 -65 33 -104.5t105 -39.5q71 0 106 40t35 104h149l1 -6q0 -115 -76 -186t-215 -71q-134 0 -211.5 71t-77.5 186zM297 293q0 -71 44 -112t130 -41 q52 0 100.5 15.5t88 40t68.5 57t42 66.5v173h-216q-58 0 -105 -16t-80.5 -43t-52.5 -63.5t-19 -76.5z" />
<glyph unicode="&#x4d2;" horiz-adv-x="1268" d="M42 0l514 1427h166l504 -1427h-196l-126 368h-536l-129 -368h-197zM297 1571v197h214v-197h-214zM421 530h428l-209 612h-6zM756 1571v197h215v-197h-215z" />
<glyph unicode="&#x4d3;" horiz-adv-x="1103" d="M104 297q0 76 32.5 136.5t91.5 102.5t143.5 64t188.5 22h210v104q0 94 -56.5 147.5t-161.5 53.5q-94 0 -151.5 -47t-57.5 -112l-182 -2l-2 6q0 58 28 114t81 99t127 69t169 26q88 0 161.5 -23t127 -68t82 -112t28.5 -153v-511q0 -56 6 -108.5t23 -104.5h-199 q-10 48 -16.5 84.5t-6.5 74.5q-54 -75 -139 -127t-187 -52q-167 0 -253.5 83.5t-86.5 233.5zM207 1256v197h214v-197h-214zM297 293q0 -71 44 -112t130 -41q52 0 100.5 15.5t88 40t68.5 57t42 66.5v173h-216q-58 0 -105 -16t-80.5 -43t-52.5 -63.5t-19 -76.5zM666 1256v197 h215v-197h-215z" />
<glyph unicode="&#x4d4;" horiz-adv-x="1958" d="M14 0l863 1427h948v-153h-657v-455h578v-153h-551v-515h690v-151h-891v343h-546l-197 -343h-237zM548 517h409v699h37z" />
<glyph unicode="&#x4d5;" horiz-adv-x="1753" d="M86 297q0 155 112.5 239t329.5 84h225v87q0 101 -51 160.5t-148 59.5q-102 0 -160.5 -53t-58.5 -129l-184 15l-2 6q0 67 28 124.5t80 99.5t127.5 66t169.5 24q231 0 333 -155q62 75 147.5 115t185.5 40q213 0 324.5 -128.5t111.5 -349.5v-116h-695l-2 -7q2 -76 20.5 -140 t56.5 -110.5t95 -72.5t135 -26q52 0 92 7t75.5 20.5t69 32.5t71.5 45l66 -137q-52 -42 -145 -80t-229 -38q-134 0 -235.5 46.5t-165.5 136.5q-54 -77 -164.5 -130t-267.5 -53q-168 0 -257.5 85.5t-89.5 231.5zM279 293q0 -73 48 -118t144 -45q39 0 79 12.5t77 31.5t70 44 t56 52v212h-223q-58 0 -104.5 -15t-79.5 -41t-50 -60.5t-17 -72.5zM963 632l2 -6h498v33q0 120 -58 194t-185 74q-111 0 -179 -82.5t-78 -212.5z" />
<glyph unicode="&#x4d6;" horiz-adv-x="1107" d="M167 0v1427h869v-153h-676v-462h586v-150h-586v-511h686v-151h-879zM316 1827l2 6h149q0 -65 33 -104.5t105 -39.5q71 0 106 40t35 104h149l1 -6q0 -115 -76 -186t-215 -71q-134 0 -211.5 71t-77.5 186z" />
<glyph unicode="&#x4d7;" horiz-adv-x="1049" d="M94 510v42q0 114 36.5 210.5t97.5 167t143.5 110.5t176.5 40q109 0 189 -35.5t132 -99.5t78 -152t26 -197v-102h-678l-2 -4q0 -80 17 -146.5t52.5 -114t89.5 -73.5t128 -26q98 0 171.5 27t125.5 78l77 -124q-58 -56 -150 -93.5t-224 -37.5q-118 0 -208.5 39t-151.5 109.5 t-93.5 167.5t-32.5 214zM239 1511l2 6h149q0 -65 33 -104.5t105 -39.5q71 0 106 40t35 104h149l1 -6q0 -115 -76 -186t-215 -71q-134 0 -211.5 71t-77.5 186zM301 651l2 -5h478v16q0 56 -13 104t-42 84.5t-73.5 56.5t-104.5 20q-100 0 -165 -78.5t-82 -197.5z" />
<glyph unicode="&#x4d8;" horiz-adv-x="1396" d="M86 630v107h1002v6q0 118 -28 219t-88.5 175.5t-152 117t-217.5 42.5q-104 0 -179.5 -22.5t-149.5 -62.5l-49 136q48 37 143 68t235 31q162 0 288.5 -52t215.5 -145.5t135 -224t46 -288.5v-49q0 -155 -45 -284t-125.5 -223.5t-188 -147.5t-231.5 -53q-149 0 -263.5 45.5 t-191.5 129.5t-116.5 204t-39.5 271zM281 574q0 -100 23 -182.5t73 -140.5t128.5 -89.5t191.5 -31.5q84 0 152 35.5t118 98.5t80.5 149.5t38.5 186.5l-2 4h-803v-30z" />
<glyph unicode="&#x4d9;" horiz-adv-x="1067" d="M127 463v102h678l2 4q0 80 -17 146.5t-52.5 114t-89.5 73.5t-128 26q-98 0 -171.5 -27t-125.5 -78l-77 124q58 56 150 93.5t224 37.5q118 0 208.5 -39t151.5 -109.5t93.5 -167.5t32.5 -214v-42q0 -114 -36.5 -210.5t-97.5 -167t-143.5 -110.5t-176.5 -40 q-109 0 -189 35.5t-132 99.5t-78 152t-26 197zM319 397q0 -56 13 -104t42 -84.5t73.5 -56.5t104.5 -20q100 0 165 78.5t82 197.5l-2 5h-478v-16z" />
<glyph unicode="&#x4da;" horiz-adv-x="1396" d="M86 630v107h1002v6q0 118 -28 219t-88.5 175.5t-152 117t-217.5 42.5q-104 0 -179.5 -22.5t-149.5 -62.5l-49 136q48 37 143 68t235 31q162 0 288.5 -52t215.5 -145.5t135 -224t46 -288.5v-49q0 -155 -45 -284t-125.5 -223.5t-188 -147.5t-231.5 -53q-149 0 -263.5 45.5 t-191.5 129.5t-116.5 204t-39.5 271zM280 1527v197h214v-197h-214zM281 574q0 -100 23 -182.5t73 -140.5t128.5 -89.5t191.5 -31.5q84 0 152 35.5t118 98.5t80.5 149.5t38.5 186.5l-2 4h-803v-30zM739 1527v197h215v-197h-215z" />
<glyph unicode="&#x4db;" horiz-adv-x="1067" d="M127 463v102h678l2 4q0 80 -17 146.5t-52.5 114t-89.5 73.5t-128 26q-98 0 -171.5 -27t-125.5 -78l-77 124q58 56 150 93.5t224 37.5q118 0 208.5 -39t151.5 -109.5t93.5 -167.5t32.5 -214v-42q0 -114 -36.5 -210.5t-97.5 -167t-143.5 -110.5t-176.5 -40 q-109 0 -189 35.5t-132 99.5t-78 152t-26 197zM219 1256v197h214v-197h-214zM319 397q0 -56 13 -104t42 -84.5t73.5 -56.5t104.5 -20q100 0 165 78.5t82 197.5l-2 5h-478v-16zM678 1256v197h215v-197h-215z" />
<glyph unicode="&#x4dc;" horiz-adv-x="1653" d="M26 0l484 755l-445 672h226l379 -620h65v620h190v-620h56l382 620h225l-446 -672l486 -755h-241l-408 655h-54v-655h-190v655h-63l-407 -655h-239zM490 1571v197h214v-197h-214zM949 1571v197h215v-197h-215z" />
<glyph unicode="&#x4dd;" horiz-adv-x="1442" d="M26 0l395 560l-363 499h235l279 -435h52v435h193v-435h54l281 435h231l-362 -499l396 -560h-243l-299 460h-58v-460h-193v460h-56l-299 -460h-243zM384 1236v197h214v-197h-214zM843 1236v197h215v-197h-215z" />
<glyph unicode="&#x4de;" horiz-adv-x="1356" d="M122 389l2 6h185q0 -56 25.5 -104t71.5 -84t110 -56.5t141 -20.5q176 0 274.5 73.5t98.5 189.5q0 257 -358 258h-178v152h178q171 0 253 64t82 179q0 110 -90 180.5t-260 70.5q-67 0 -127.5 -18.5t-104.5 -51t-70 -77.5t-26 -96h-185v5q0 89 39 160.5t109 122.5t163 78 t202 27q126 0 226.5 -27t170.5 -79t108 -127.5t38 -171.5q0 -100 -66 -181.5t-184 -127.5q132 -42 202 -127t70 -208q0 -98 -41 -176t-116 -132t-179.5 -82t-228.5 -28q-111 0 -208.5 26t-169.5 77t-114.5 127.5t-42.5 178.5zM334 1594v197h214v-197h-214zM793 1594v197h215 v-197h-215z" />
<glyph unicode="&#x4df;" horiz-adv-x="1080" d="M104 307l3 6h182q0 -37 19 -69.5t52 -58.5t79.5 -41.5t100.5 -15.5q111 0 181 49t70 122q0 84 -59.5 123.5t-179.5 39.5h-205v158h205q114 0 166 38.5t52 111.5q0 62 -57.5 110.5t-172.5 48.5q-50 0 -93 -12.5t-74.5 -35t-49.5 -52.5t-18 -65h-183l-1 6q0 69 31.5 126.5 t88 97.5t134 62t165.5 22q195 0 309 -79.5t114 -228.5q0 -72 -47 -132t-131 -94q96 -32 147.5 -93.5t51.5 -151.5q0 -77 -33.5 -134.5t-91.5 -99t-140.5 -62.5t-178.5 -21q-90 0 -170.5 21t-139 61t-92.5 101t-34 142zM203 1256v197h214v-197h-214zM662 1256v197h215v-197 h-215z" />
<glyph unicode="&#x4e0;" horiz-adv-x="1169" d="M109 389l2 6h184q0 -54 19 -102t54.5 -84.5t84.5 -57.5t109 -21q138 0 215.5 72.5t77.5 190.5q0 151 -79 221t-236 70h-142v151l366 435l-2 4h-618v153h854v-119l-402 -479q216 -14 334 -124.5t118 -306.5q0 -98 -35.5 -176t-99.5 -132t-153.5 -82t-197.5 -28 q-95 0 -177 26t-143.5 77t-97 127.5t-35.5 178.5z" />
<glyph unicode="&#x4e1;" horiz-adv-x="1169" d="M109 23l2 5h184q0 -53 19 -101t54.5 -84t84.5 -57t109 -21q138 0 215.5 73.5t77.5 187.5q0 151 -79 221.5t-236 70.5h-145v149l350 437l-2 3h-599v152h854v-115l-387 -484q210 -16 323.5 -126t113.5 -304q0 -96 -36.5 -173t-100.5 -131.5t-153.5 -83.5t-195.5 -29 q-93 0 -175 26t-144.5 77t-98 128.5t-35.5 178.5z" />
<glyph unicode="&#x4e2;" horiz-adv-x="1410" d="M169 0v1427h195v-1088l5 -2l686 1090h194v-1427h-194v1088l-5 2l-686 -1090h-195zM364 1608v142h706v-142h-706z" />
<glyph unicode="&#x4e3;" d="M140 0v1059h193v-752l4 -2l470 754h193v-1059h-193v753l-6 2l-468 -755h-193zM221 1273v142h706v-142h-706z" />
<glyph unicode="&#x4e4;" horiz-adv-x="1410" d="M169 0v1427h195v-1088l5 -2l686 1090h194v-1427h-194v1088l-5 2l-686 -1090h-195zM376 1571v197h214v-197h-214zM835 1571v197h215v-197h-215z" />
<glyph unicode="&#x4e5;" d="M140 0v1059h193v-752l4 -2l470 754h193v-1059h-193v753l-6 2l-468 -755h-193zM234 1236v197h214v-197h-214zM693 1236v197h215v-197h-215z" />
<glyph unicode="&#x4e6;" horiz-adv-x="1368" d="M111 586v253q0 128 41 239.5t114 192.5t176.5 128.5t229.5 47.5q129 0 237 -46.5t184.5 -127t119.5 -192.5t43 -242v-253q0 -130 -43 -240.5t-119.5 -191.5t-184.5 -127.5t-237 -46.5q-124 0 -227.5 46.5t-177.5 127.5t-115 191.5t-41 240.5zM303 586q0 -100 27.5 -182.5 t75.5 -141.5t116 -92.5t150 -33.5q90 0 163.5 34.5t123.5 94.5t77 142.5t27 178.5v255q0 96 -27 177.5t-77 141.5t-123.5 94.5t-163.5 34.5q-84 0 -152 -34.5t-116.5 -93.5t-74.5 -141.5t-26 -178.5v-255zM347 1594v197h214v-197h-214zM806 1594v197h215v-197h-215z" />
<glyph unicode="&#x4e7;" d="M94 517v23q0 117 33.5 215t94.5 170.5t148.5 113.5t197.5 41q109 0 197 -40t150 -111.5t96.5 -170.5t34.5 -218v-23q0 -116 -32.5 -214t-94.5 -170.5t-150.5 -112.5t-198.5 -40q-112 0 -199.5 40t-149.5 112.5t-94.5 171t-32.5 213.5zM234 1256v197h214v-197h-214z M289 517q0 -84 18 -155t53 -122t87.5 -80.5t122.5 -29.5q69 0 122 29.5t87.5 80.5t53 122t18.5 155v23q0 82 -18.5 152t-53 122.5t-88 82.5t-123.5 30t-122.5 -29t-86.5 -81.5t-52 -123.5t-18 -153v-23zM693 1256v197h215v-197h-215z" />
<glyph unicode="&#x4e8;" horiz-adv-x="1368" d="M111 586v253q0 128 41 239.5t114 192.5t176.5 128.5t229.5 47.5q129 0 237 -46.5t184.5 -127t119.5 -192.5t43 -242v-253q0 -130 -43 -240.5t-119.5 -191.5t-184.5 -127.5t-237 -46.5q-124 0 -227.5 46.5t-177.5 127.5t-115 191.5t-41 240.5zM303 586q0 -100 27.5 -182.5 t75.5 -141.5t116 -92.5t150 -33.5q90 0 163.5 34.5t123.5 94.5t77 142.5t27 178.5v20q-74 -56 -174 -56q-50 0 -107.5 20t-114 45t-108 45t-88.5 20q-52 0 -98 -23t-70 -57v-14zM303 775q36 29 79 44.5t89 15.5q39 0 96 -21t117.5 -45t114.5 -45t90 -21q54 0 100.5 20 t73.5 52v66q0 96 -27 177.5t-77 141.5t-123.5 94.5t-163.5 34.5q-84 0 -152 -34.5t-116.5 -93.5t-74.5 -141.5t-26 -178.5v-66z" />
<glyph unicode="&#x4e9;" horiz-adv-x="1141" d="M94 517v23q0 117 33.5 215t94.5 170.5t148.5 113.5t197.5 41q109 0 197 -40t150 -111.5t96.5 -170.5t34.5 -218v-23q0 -116 -32.5 -214t-94.5 -170.5t-150.5 -112.5t-198.5 -40q-112 0 -199.5 40t-149.5 112.5t-94.5 171t-32.5 213.5zM293 433q16 -138 86.5 -220.5 t190.5 -82.5q67 0 116 26t83 71.5t52 105.5t20 131l-2 3q-23 -26 -58.5 -39.5t-77.5 -13.5q-37 0 -78 14t-80 29.5t-74 30t-61 14.5q-39 0 -71 -20t-46 -49zM295 586l4 -6q22 23 55 37.5t73 14.5q27 0 68 -14t83 -30t81 -30t63 -14q42 0 78.5 25t44.5 61 q-18 132 -87.5 214.5t-189.5 82.5q-66 0 -116 -27t-84.5 -73t-52.5 -108t-20 -133z" />
<glyph unicode="&#x4ea;" horiz-adv-x="1368" d="M111 586v253q0 128 41 239.5t114 192.5t176.5 128.5t229.5 47.5q129 0 237 -46.5t184.5 -127t119.5 -192.5t43 -242v-253q0 -130 -43 -240.5t-119.5 -191.5t-184.5 -127.5t-237 -46.5q-124 0 -227.5 46.5t-177.5 127.5t-115 191.5t-41 240.5zM303 586q0 -100 27.5 -182.5 t75.5 -141.5t116 -92.5t150 -33.5q90 0 163.5 34.5t123.5 94.5t77 142.5t27 178.5v20q-74 -56 -174 -56q-50 0 -107.5 20t-114 45t-108 45t-88.5 20q-52 0 -98 -23t-70 -57v-14zM303 775q36 29 79 44.5t89 15.5q39 0 96 -21t117.5 -45t114.5 -45t90 -21q54 0 100.5 20 t73.5 52v66q0 96 -27 177.5t-77 141.5t-123.5 94.5t-163.5 34.5q-84 0 -152 -34.5t-116.5 -93.5t-74.5 -141.5t-26 -178.5v-66zM370 1567v197h214v-197h-214zM829 1567v197h215v-197h-215z" />
<glyph unicode="&#x4eb;" horiz-adv-x="1141" d="M94 517v23q0 117 33.5 215t94.5 170.5t148.5 113.5t197.5 41q109 0 197 -40t150 -111.5t96.5 -170.5t34.5 -218v-23q0 -116 -32.5 -214t-94.5 -170.5t-150.5 -112.5t-198.5 -40q-112 0 -199.5 40t-149.5 112.5t-94.5 171t-32.5 213.5zM211 1284v197h214v-197h-214z M293 433q16 -138 86.5 -220.5t190.5 -82.5q67 0 116 26t83 71.5t52 105.5t20 131l-2 3q-23 -26 -58.5 -39.5t-77.5 -13.5q-37 0 -78 14t-80 29.5t-74 30t-61 14.5q-39 0 -71 -20t-46 -49zM295 586l4 -6q22 23 55 37.5t73 14.5q27 0 68 -14t83 -30t81 -30t63 -14 q42 0 78.5 25t44.5 61q-18 132 -87.5 214.5t-189.5 82.5q-66 0 -116 -27t-84.5 -73t-52.5 -108t-20 -133zM670 1284v197h215v-197h-215z" />
<glyph unicode="&#x4ec;" horiz-adv-x="1356" d="M182 450l2 6h185q0 -149 85.5 -237.5t252.5 -88.5q80 0 145 35.5t111 97.5t71 145.5t25 177.5v78h-561v153h561v24q0 92 -24 174.5t-70 144.5t-111 99.5t-147 37.5q-167 0 -252.5 -88.5t-85.5 -239.5h-185l-2 6q0 98 37.5 185t104.5 151t164.5 101t218.5 37 q120 0 221.5 -47.5t173.5 -128t112 -192.5t40 -240v-255q0 -128 -40 -239.5t-112 -192.5t-172.5 -127.5t-222.5 -46.5q-123 0 -220.5 33t-164.5 94.5t-103.5 148.5t-36.5 194zM341 1594v197h214v-197h-214zM800 1594v197h215v-197h-215z" />
<glyph unicode="&#x4ed;" horiz-adv-x="1078" d="M102 358l2 6h175q0 -48 18.5 -90.5t49 -73.5t73 -50.5t90.5 -19.5q61 0 109.5 27t82 72.5t52 104.5t23.5 126l-5 4h-377v152h375l2 4q-4 65 -24 121t-53 97t-80.5 65t-104.5 24q-44 0 -86.5 -16t-74 -43t-51 -64.5t-19.5 -81.5h-175l-2 6q0 69 33.5 133t89.5 112 t130 77.5t155 29.5q108 0 194.5 -41t146.5 -113.5t92 -168.5t32 -207v-40q0 -109 -32 -205t-92 -168t-146.5 -114.5t-194.5 -42.5q-93 0 -168 29t-128 80t-82.5 120.5t-29.5 148.5zM199 1256v197h214v-197h-214zM658 1256v197h215v-197h-215z" />
</font>
</defs>
</svg>
