<svg width="121" height="121" viewBox="0 0 121 121" fill="none" xmlns="http://www.w3.org/2000/svg">
<path d="M18.568 0.725204C19.8655 0.252973 20.9173 0.989442 20.9173 2.37015V39.8702C20.9173 70.2458 44.0566 86.4481 72.6004 76.059L105.49 64.0883C108.084 63.1439 110.188 64.6168 110.188 67.3782V82.3782C110.188 85.1397 108.084 88.1439 105.49 89.0883L20.9173 119.87C18.3224 120.815 16.2188 119.342 16.2188 116.58V4.08025C16.2188 2.69954 17.2706 1.19744 18.568 0.725204Z" fill="url(#paint0_linear_36_10)"/>
<path d="M16.9081 118.973C15.8504 118.086 15.9623 116.807 17.1581 116.116L49.634 97.3664C75.9401 82.1785 78.4021 54.0381 55.133 34.513L31.3815 15.2155C29.2662 13.4405 29.49 10.8823 31.8814 9.50158L44.8718 2.00158C47.2633 0.620865 50.9168 0.940506 53.0322 2.71551L118.916 57.3663C121.031 59.1413 120.808 61.6996 118.416 63.0803L20.9883 119.33C19.7926 120.021 17.9658 119.861 16.9081 118.973Z" fill="url(#paint1_linear_36_10)"/>
<path d="M120.073 60.5615C119.833 61.9212 118.669 62.4639 117.473 61.7735L84.9974 43.0235C58.6913 27.8357 33.09 39.7738 27.8154 69.6879L21.7377 104.156C21.2582 106.876 18.9308 107.961 16.5393 106.58L3.54893 99.0803C1.15747 97.6995 -0.392474 94.3757 0.0870424 91.6562L15.7154 3.02352C16.1949 0.304045 18.5223 -0.781235 20.9137 0.599477L118.342 56.8495C119.537 57.5398 120.312 59.2018 120.073 60.5615Z" fill="url(#paint2_linear_36_10)"/>
<defs>
<linearGradient id="paint0_linear_36_10" x1="16.2188" y1="61.5803" x2="110.188" y2="61.5803" gradientUnits="userSpaceOnUse">
<stop stop-color="#FF9E02"/>
<stop offset="1" stop-color="white" stop-opacity="0"/>
</linearGradient>
<linearGradient id="paint1_linear_36_10" x1="70.7848" y1="90.5803" x2="23.8001" y2="9.20049" gradientUnits="userSpaceOnUse">
<stop stop-color="#FF9E02"/>
<stop offset="1" stop-color="white" stop-opacity="0"/>
</linearGradient>
<linearGradient id="paint2_linear_36_10" x1="68.5451" y1="28.0995" x2="21.5605" y2="109.479" gradientUnits="userSpaceOnUse">
<stop stop-color="#FF9E02"/>
<stop offset="1" stop-color="white" stop-opacity="0"/>
</linearGradient>
</defs>
</svg>
