<svg width="649" height="132" viewBox="0 0 649 132" fill="none" xmlns="http://www.w3.org/2000/svg">
<path d="M372.5 30C377.5 12.9192 385.931 0 402.5 0H619C634.152 0 646.68 11.2327 648.712 25.8251C649.095 28.5761 648.622 31.3284 647.852 33.997C644.297 46.318 633.297 83.9668 626.5 102C618.305 123.742 613.069 132 596.5 132H380C365.012 132 352.591 121.009 350.358 106.647C349.883 103.592 350.469 100.529 351.405 97.5838C355.659 84.1992 368.361 44.138 372.5 30Z" fill="#E8191A" fill-opacity="1"/>
<path fill-rule="evenodd" clip-rule="evenodd" d="M225 103.419H243.5L260 23.4192H240.5L236 44.9192L205.5 43.9192C200.667 44.9192 190.4 49.6192 188 60.4192C187.529 62.5391 187.009 64.696 186.485 66.8647C183.676 78.5068 180.785 90.4895 185 98.9192C189 106.919 209.667 105.253 219.5 103.419L225 97.9192V103.419ZM201.5 84.4192C201.1 89.2192 204 90.4192 205.5 90.4192H221C225.8 90.4192 226.667 88.4192 226.5 87.4192L233 57.9192C227.5 58.0859 215.6 58.4192 212 58.4192C208.4 58.4192 206.167 62.4192 205.5 64.4192C204.333 69.0859 201.9 79.6192 201.5 84.4192Z" fill="#FFFFFF"
/>
<path fill-rule="evenodd" clip-rule="evenodd" d="M173 87.9192C171.5 88.5859 166.7 90.0192 159.5 90.4192C152.3 90.8192 141.5 90.9192 137 90.9192C135.333 90.5859 131.9 89.2192 131.5 86.4192C131.1 83.6192 131.333 81.2525 131.5 80.4192L176 79.9192L181 56.4192C180.667 53.9192 179.1 48.4192 175.5 46.4192C171.9 44.4192 165 43.9192 162 43.9192H138.5C134 44.2525 124.2 46.8192 121 54.4192C117.8 62.0192 115.667 71.2525 115 74.9192C114 78.0859 112.3 86.2192 113.5 93.4192C114.7 100.619 124 103.419 128.5 103.919L154.5 103.419C158.667 103.253 167.3 102.119 168.5 98.9192C169.7 95.7192 172 90.2525 173 87.9192ZM147 56.4192C157 56.4192 160.5 56.4192 160.5 59.9192C160.5 62.7192 160.167 67.0859 160 68.9192H135C135.023 68.782 135.048 68.5802 135.08 68.3261C135.279 66.7288 135.735 63.0666 137.5 60.4192C139.5 57.4192 140.5 56.4192 147 56.4192Z" fill="#ffffff"
/>
<path fill-rule="evenodd" clip-rule="evenodd" d="M17 23.4192L0 103.919H20.5L31 49.9192L47.5 87.4192H61L92.5 49.9192L81 103.919H102L118 23.4192H94L58.5 64.9192L40 23.4192H17Z" fill="#FFFFFF"
/>
<path fill-rule="evenodd" clip-rule="evenodd" d="M251 104.419L264.5 43.9192H282.5L271.5 104.419H251Z" fill="#FFFFFF"
/>
<path fill-rule="evenodd" clip-rule="evenodd" d="M265 36.9192L268 23.4192H288L285.5 36.9192H265Z" fill="#FFFFFF"
/>
<path fill-rule="evenodd" clip-rule="evenodd" d="M555.5 73.9192L525.5 104.419H548.5L566 86.9192L574.5 104.419H597.5L580 73.9192L609.5 43.9192H587L571 60.4192L562.5 43.9192H537.5L555.5 73.9192Z" fill="#FFFFFF"
/>
<path fill-rule="evenodd" clip-rule="evenodd" d="M393.5 22.4192L376.5 104.419H434C447.384 100.266 447.988 99.0939 452.327 90.6811C452.689 89.9795 453.077 89.2275 453.5 88.4192C459 77.9192 455 69.4192 453.5 66.4192C452.3 64.0192 447.333 63.0859 445 62.9192C445.5 62.9192 447.4 62.7192 451 61.9192C454.6 61.1192 457.833 57.2525 459 55.4192C460.5 51.0859 463.3 40.6192 462.5 33.4192C461.7 26.2192 455.5 23.0859 452.5 22.4192H393.5ZM399.5 88.9192L403.5 69.4192H432.5C434.333 69.7525 437.9 71.3192 437.5 74.9192C437.452 75.3498 437.409 75.8309 437.362 76.3487C436.922 81.2416 436.187 89.4192 428.5 89.4192C421.7 89.4192 406.333 89.0859 399.5 88.9192ZM406 55.9192L410 37.9192H438C439.5 38.2525 442.5 39.4192 442.5 41.4192C442.5 43.4192 441.833 49.2525 441.5 51.9192C441.667 53.0859 440.5 55.5192 434.5 55.9192C428.5 56.3192 413 56.0859 406 55.9192Z" fill="#FFFFFF"
/>
<path fill-rule="evenodd" clip-rule="evenodd" d="M506.5 104.419H474.5C471.667 103.919 465.3 101.819 462.5 97.4192C459.7 93.0192 462.667 81.2525 464.5 75.9192C465.5 71.5859 468.3 61.0192 471.5 53.4192C474.7 45.8192 483.833 43.9192 488 43.9192H519C532.6 43.9192 534 56.5859 533 62.9192C531.667 68.2525 528.6 81.0192 527 89.4192C525.4 97.8192 512.667 102.919 506.5 104.419ZM484.5 90.9192C483.167 90.7525 482 90.2358 482 85.4192C482 84.4192 484 57.9192 492.5 57.4192C499.3 57.0192 509.5 57.4192 512 58.9192C514.5 60.4192 510.222 83.6527 507.5 86.9192C505 89.9192 503 90.9192 497 90.9192H484.5Z" fill="#FFFFFF"
/>
<path fill-rule="evenodd" clip-rule="evenodd" d="M308.5 104.919C319.7 104.519 322.833 100.419 323 98.4192V104.419H341.5C343.833 93.4192 348.8 68.6192 350 57.4192C351.2 46.2192 341.5 43.7525 336.5 43.9192H304.5L296.5 45.9192L291 57.4192L328 56.4192L331 58.9192V65.9192C331 66.3192 329.667 66.7525 329 66.9192C317.333 66.9192 293.5 67.2192 291.5 68.4192C282.5 74.4192 282.5 88.4192 282.5 96.4192C282.5 104.419 294.5 105.419 308.5 104.919ZM321.5 91.4192H304.5C302.833 91.4192 299.6 90.5192 300 86.9192C300.055 86.4199 300.099 85.9452 300.14 85.493C300.469 81.8716 300.667 79.697 306 77.9192C310.8 76.3192 322.333 76.9192 327.5 77.4192C327.667 80.4192 327.5 86.9192 325.5 88.9192C323.5 90.9192 322 91.4192 321.5 91.4192Z" fill="#FFFFFF"
/>
</svg>