<svg width="146" height="39" viewBox="0 0 146 39" fill="none" xmlns="http://www.w3.org/2000/svg">
<rect width="84.6624" height="41.5029" rx="5" transform="matrix(1 0 -0.34202 0.939693 60.9926 0)" fill="#FF0C35" fill-opacity="0.78"/>
<path d="M53.3108 35.1156L64.6359 4H76.2124C78.5191 4 80.2851 4.37477 81.5106 5.1243C82.7397 5.8637 83.4922 6.86138 83.768 8.11735C84.0475 9.36319 83.9108 10.7458 83.3578 12.2651C82.8712 13.6021 82.216 14.7061 81.3924 15.5772C80.5795 16.4483 79.6713 17.137 78.6678 17.6435C77.6751 18.1499 76.6602 18.5247 75.6232 18.7678L75.5126 19.0716C76.5037 19.1324 77.4006 19.4667 78.2034 20.0744C79.0062 20.6821 79.5461 21.5532 79.823 22.6876C80.1 23.822 79.9398 25.2097 79.3426 26.8506C78.7749 28.4104 77.887 29.8132 76.679 31.0591C75.4711 32.3049 73.9206 33.2925 72.0275 34.0217C70.1345 34.751 67.8837 35.1156 65.2753 35.1156H53.3108ZM58.5371 31.7731H66.4918C69.1111 31.7731 71.1437 31.2971 72.5897 30.345C74.0501 29.3828 75.0292 28.2179 75.5269 26.8506C75.9103 25.7972 75.9786 24.8248 75.7317 23.9335C75.4885 23.032 74.9365 22.3129 74.0755 21.776C73.2183 21.2291 72.0675 20.9556 70.6231 20.9556H62.4743L58.5371 31.7731ZM63.6688 17.6739H71.1062C72.3134 17.6739 73.4832 17.451 74.6155 17.0054C75.7585 16.5597 76.7632 15.9317 77.6294 15.1214C78.5064 14.3111 79.1439 13.359 79.5421 12.2651C80.0398 10.8977 79.9553 9.73796 79.2886 8.78585C78.6256 7.82362 77.1947 7.3425 74.9958 7.3425H67.4291L63.6688 17.6739Z" fill="white"/>
<path d="M92.3176 35.6018C90.0756 35.6018 88.2909 35.1005 86.9636 34.0977C85.6471 33.095 84.8426 31.6921 84.5503 29.8892C84.2688 28.0863 84.5667 25.9795 85.4441 23.5688C86.3289 21.1379 87.5701 19.0159 89.1678 17.2029C90.7762 15.3898 92.6036 13.9819 94.6501 12.9792C96.7074 11.9764 98.857 11.475 101.099 11.475C103.341 11.475 105.12 11.9764 106.437 12.9792C107.764 13.9819 108.567 15.3898 108.845 17.2029C109.133 19.0159 108.835 21.1379 107.95 23.5688C107.073 25.9795 105.832 28.0863 104.227 29.8892C102.633 31.6921 100.808 33.095 98.7503 34.0977C96.7038 35.1005 94.5596 35.6018 92.3176 35.6018ZM93.4899 32.3809C95.1929 32.3809 96.7435 31.9707 98.1416 31.1502C99.5396 30.3298 100.746 29.2511 101.761 27.9141C102.776 26.5771 103.567 25.1287 104.135 23.5688C104.702 22.009 104.967 20.5555 104.929 19.2084C104.892 17.8613 104.474 16.7724 103.677 15.9418C102.88 15.1113 101.63 14.696 99.9267 14.696C98.2236 14.696 96.6712 15.1113 95.2695 15.9418C93.8677 16.7724 92.6576 17.8613 91.6391 19.2084C90.6207 20.5555 89.8275 22.009 89.2598 23.5688C88.6921 25.1287 88.429 26.5771 88.4705 27.9141C88.5121 29.2511 88.9332 30.3298 89.7341 31.1502C90.5349 31.9707 91.7868 32.3809 93.4899 32.3809Z" fill="white"/>
<path d="M119.889 11.7789L122.366 21.3202L131.789 11.7789H136.187L123.92 23.4473L127.693 35.1156H123.295L120.641 26.0605L111.395 35.1156H106.997L119.134 23.4473L115.491 11.7789H119.889Z" fill="white"/>
<path d="M11.3252 4H16.111L17.9633 29.8284H18.3514L39.0052 4H43.791L32.4659 35.1156H28.7148L37.3193 11.475H36.996L18.0438 35.1156H14.4221L12.6789 11.475H12.3555L3.75106 35.1156H2.55075e-05L11.3252 4Z" fill="black"/>
<path d="M11.3252 4H16.111L17.9633 29.8284H18.3514L39.0052 4H43.791L32.4659 35.1156H28.7148L37.3193 11.475H36.996L18.0438 35.1156H14.4221L12.6789 11.475H12.3555L3.75106 35.1156H2.55075e-05L11.3252 4Z" fill="black" fill-opacity="0.2"/>
</svg>
