<svg width="146" height="39" viewBox="0 0 146 39" fill="none" xmlns="http://www.w3.org/2000/svg">
<rect width="84.6624" height="41.5029" rx="5" transform="matrix(1 0 -0.34202 0.939693 61.1696 0)" fill="#FF0C35" fill-opacity="0.78"/>
<path d="M11.5021 4H16.2879L18.1403 29.8284H18.5283L39.1822 4H43.968L32.6428 35.1156H28.8918L37.4963 11.475H37.1729L18.2207 35.1156H14.599L12.8558 11.475H12.5325L3.928 35.1156H0.176967L11.5021 4Z" fill="white"/>
<path d="M53.4877 35.1156L64.8129 4H76.3894C78.696 4 80.4621 4.37477 81.6876 5.1243C82.9167 5.8637 83.6692 6.86138 83.945 8.11735C84.2245 9.36319 84.0878 10.7458 83.5348 12.2651C83.0482 13.6021 82.393 14.7061 81.5694 15.5772C80.7565 16.4483 79.8483 17.137 78.8448 17.6435C77.852 18.1499 76.8372 18.5247 75.8001 18.7678L75.6895 19.0716C76.6806 19.1324 77.5776 19.4667 78.3804 20.0744C79.1832 20.6821 79.723 21.5532 80 22.6876C80.2769 23.822 80.1168 25.2097 79.5196 26.8506C78.9518 28.4104 78.064 29.8132 76.856 31.0591C75.6481 32.3049 74.0976 33.2925 72.2045 34.0217C70.3115 34.751 68.0607 35.1156 65.4522 35.1156H53.4877ZM58.714 31.7731H66.6688C69.2881 31.7731 71.3207 31.2971 72.7667 30.345C74.2271 29.3828 75.2062 28.2179 75.7039 26.8506C76.0873 25.7972 76.1555 24.8248 75.9087 23.9335C75.6655 23.032 75.1135 22.3129 74.2525 21.776C73.3953 21.2291 72.2445 20.9556 70.8001 20.9556H62.6513L58.714 31.7731ZM63.8457 17.6739H71.2831C72.4904 17.6739 73.6601 17.451 74.7924 17.0054C75.9355 16.5597 76.9402 15.9317 77.8064 15.1214C78.6834 14.3111 79.3209 13.359 79.7191 12.2651C80.2168 10.8977 80.1323 9.73796 79.4656 8.78585C78.8026 7.82362 77.3717 7.3425 75.1728 7.3425H67.6061L63.8457 17.6739Z" fill="white"/>
<path d="M92.4945 35.6018C90.2525 35.6018 88.4679 35.1005 87.1406 34.0977C85.8241 33.095 85.0196 31.6921 84.7273 29.8892C84.4458 28.0863 84.7437 25.9795 85.6211 23.5688C86.5059 21.1379 87.7471 19.0159 89.3447 17.2029C90.9532 15.3898 92.7806 13.9819 94.8271 12.9792C96.8843 11.9764 99.034 11.475 101.276 11.475C103.518 11.475 105.297 11.9764 106.614 12.9792C107.941 13.9819 108.744 15.3898 109.022 17.2029C109.31 19.0159 109.012 21.1379 108.127 23.5688C107.25 25.9795 106.009 28.0863 104.404 29.8892C102.81 31.6921 100.984 33.095 98.9272 34.0977C96.8808 35.1005 94.7365 35.6018 92.4945 35.6018ZM93.6669 32.3809C95.3699 32.3809 96.9205 31.9707 98.3185 31.1502C99.7166 30.3298 100.923 29.2511 101.938 27.9141C102.953 26.5771 103.744 25.1287 104.312 23.5688C104.879 22.009 105.144 20.5555 105.106 19.2084C105.069 17.8613 104.651 16.7724 103.854 15.9418C103.057 15.1113 101.807 14.696 100.104 14.696C98.4006 14.696 96.8482 15.1113 95.4464 15.9418C94.0447 16.7724 92.8346 17.8613 91.8161 19.2084C90.7976 20.5555 90.0045 22.009 89.4368 23.5688C88.8691 25.1287 88.606 26.5771 88.6475 27.9141C88.689 29.2511 89.1102 30.3298 89.911 31.1502C90.7119 31.9707 91.9638 32.3809 93.6669 32.3809Z" fill="white"/>
<path d="M120.066 11.7789L122.543 21.3202L131.966 11.7789H136.364L124.097 23.4473L127.87 35.1156H123.472L120.818 26.0605L111.572 35.1156H107.174L119.311 23.4473L115.668 11.7789H120.066Z" fill="white"/>
</svg>
